<svg width="88" height="119" viewBox="0 0 88 119" fill="none" xmlns="http://www.w3.org/2000/svg">
<g clip-path="url(#clip0_10_82)">
<path d="M29.2 49.161L29.6851 51.1013L31.6453 50.6112L31.1352 48.6562L29.2 49.161ZM10.919 46.084L9.62207 47.6065L9.65222 47.6322L9.68336 47.6566L10.919 46.084ZM18.34 13.504L17.2194 11.8474L18.34 13.504ZM70.468 12.599L69.2443 14.1809L69.2608 14.1937L69.2775 14.2061L70.468 12.599ZM65.762 60.202L64.6151 58.5635L61.3127 60.8752L65.1511 62.1064L65.762 60.202ZM80.423 70.157L78.8129 71.3434L78.8229 71.357L78.8331 71.3703L80.423 70.157ZM70.649 115.95L71.8459 117.552L71.8521 117.548L71.8582 117.543L70.649 115.95ZM11.281 121.561L12.2496 119.811L11.281 121.561ZM6.032 93.144L4.70327 91.6492H4.70327L6.032 93.144ZM25.399 89.705L27.2867 90.3657L27.9817 88.3799L25.9633 87.7863L25.399 89.705ZM29.019 106.719L27.8285 108.326L27.8481 108.341L27.868 108.355L29.019 106.719ZM56.169 104.909L57.559 106.347L57.5712 106.335L57.5832 106.323L56.169 104.909ZM37.164 70.519L35.9028 72.0712L35.9553 72.1139L36.0106 72.1529L37.164 70.519ZM35.173 58.754L35.5018 56.7812L33.8161 56.5003L33.2756 58.1215L35.173 58.754ZM53.997 53.505L52.3489 52.3719L53.997 53.505ZM53.997 27.079L52.4465 28.3423L52.4582 28.3567L52.4702 28.3709L53.997 27.079ZM31.553 25.812L30.3336 24.2267L30.0077 24.4774L29.8071 24.8363L31.553 25.812ZM28.7149 47.2207C26.3793 47.8046 24.5657 48.066 23.227 48.066V52.066C25.0256 52.066 27.194 51.724 29.6851 51.1013L28.7149 47.2207ZM23.227 48.066C18.7902 48.066 15.1377 46.8552 12.1546 44.5114L9.68336 47.6566C13.4577 50.6222 18.0105 52.066 23.227 52.066V48.066ZM12.2159 44.5615C9.43898 42.196 8.032 39.0899 8.032 35.043H4.032C4.032 40.1668 5.88303 44.4214 9.62207 47.6065L12.2159 44.5615ZM8.032 35.043C8.032 26.9895 11.7251 20.3934 19.4606 15.1606L17.2194 11.8474C8.54424 17.7159 4.032 25.4792 4.032 35.043H8.032ZM19.4606 15.1606C27.3312 9.83632 36.0504 7.17799 45.671 7.17799V3.17799C35.2609 3.17799 25.7594 6.07033 17.2194 11.8474L19.4606 15.1606ZM45.671 7.17799C55.4784 7.17799 63.2801 9.56712 69.2443 14.1809L71.6917 11.0171C64.8652 5.73619 56.1356 3.17799 45.671 3.17799V7.17799ZM69.2775 14.2061C75.205 18.5968 78.242 25.0128 78.242 33.776H82.242C82.242 23.9566 78.763 16.2545 71.6585 10.9919L69.2775 14.2061ZM78.242 33.776C78.242 43.9209 73.7871 52.1431 64.6151 58.5635L66.9089 61.8405C77.0436 54.7462 82.242 45.3511 82.242 33.776H78.242ZM65.1511 62.1064C71.22 64.0531 75.7259 67.154 78.8129 71.3434L82.0331 68.9706C78.3627 63.9894 73.0946 60.4536 66.3729 58.2976L65.1511 62.1064ZM78.8331 71.3703C82.048 75.583 83.672 80.5192 83.672 86.266H87.672C87.672 79.7048 85.7966 73.9016 82.0129 68.9436L78.8331 71.3703ZM83.672 86.266C83.672 97.805 78.9755 107.119 69.4398 114.357L71.8582 117.543C82.3532 109.577 87.672 99.1017 87.672 86.266H83.672ZM69.4521 114.348C59.811 121.549 48.4743 125.172 35.354 125.172V129.172C49.263 129.172 61.4564 125.313 71.8459 117.552L69.4521 114.348ZM35.354 125.172C26.333 125.172 18.6558 123.357 12.2496 119.811L10.3124 123.311C17.4209 127.246 25.7924 129.172 35.354 129.172V125.172ZM12.2496 119.811C9.12253 118.08 6.87066 115.971 5.39236 113.516C3.91603 111.064 3.145 108.158 3.145 104.728H-0.855C-0.855 108.779 0.0633073 112.42 1.96564 115.579C3.866 118.735 6.68214 121.301 10.3124 123.311L12.2496 119.811ZM3.145 104.728C3.145 100.404 4.57837 97.112 7.36073 94.6388L4.70327 91.6492C0.969634 94.968 -0.855 99.3986 -0.855 104.728H3.145ZM7.36073 94.6388C10.203 92.1123 13.8118 90.8 18.34 90.8V86.8C12.9736 86.8 8.37699 88.3837 4.70327 91.6492L7.36073 94.6388ZM18.34 90.8C20.8477 90.8 23.0045 91.0855 24.8347 91.6237L25.9633 87.7863C23.6908 87.1179 21.1416 86.8 18.34 86.8V90.8ZM23.5113 89.0443C22.6052 91.6332 22.132 94.1501 22.132 96.583H26.132C26.132 94.6719 26.5035 92.6034 27.2867 90.3657L23.5113 89.0443ZM22.132 96.583C22.132 101.508 24.0204 105.505 27.8285 108.326L30.2095 105.112C27.5016 103.106 26.132 100.346 26.132 96.583H22.132ZM27.868 108.355C31.5721 110.961 36.4266 112.158 42.232 112.158V108.158C36.9361 108.158 32.9819 107.062 30.17 105.083L27.868 108.355ZM42.232 112.158C48.3509 112.158 53.5179 110.253 57.559 106.347L54.779 103.471C51.5801 106.563 47.4558 108.158 42.232 108.158V112.158ZM57.5832 106.323C61.6288 102.278 63.599 97.0375 63.599 90.791H59.599C59.599 96.1285 57.9492 100.3 54.7548 103.495L57.5832 106.323ZM63.599 90.791C63.599 84.6372 61.924 79.5996 58.3072 75.9828L55.4788 78.8112C58.1366 81.469 59.599 85.3608 59.599 90.791H63.599ZM58.3072 75.9828C54.7314 72.407 50.0261 70.691 44.404 70.691V74.691C49.1592 74.691 52.7799 76.1124 55.4788 78.8112L58.3072 75.9828ZM44.404 70.691C41.9962 70.691 39.9959 70.0699 38.3174 68.8851L36.0106 72.1529C38.4348 73.8641 41.2612 74.691 44.404 74.691V70.691ZM38.4252 68.9668C36.8856 67.7158 36.268 66.3858 36.268 64.908H32.268C32.268 67.7742 33.5811 70.1848 35.9028 72.0712L38.4252 68.9668ZM36.268 64.908C36.268 62.7883 36.5471 60.9562 37.0704 59.3865L33.2756 58.1215C32.5922 60.1718 32.268 62.4424 32.268 64.908H36.268ZM34.8442 60.7268C37.1234 61.1066 39.4053 61.297 41.689 61.297V57.297C39.6287 57.297 37.5666 57.1254 35.5018 56.7812L34.8442 60.7268ZM41.689 61.297C47.7588 61.297 52.5447 59.1477 55.6451 54.6381L52.3489 52.3719C50.14 55.585 46.7205 57.297 41.689 57.297V61.297ZM55.6451 54.6381C58.5587 50.4001 59.979 45.4071 59.979 39.749H55.979C55.979 44.7095 54.7447 48.8872 52.3489 52.3719L55.6451 54.6381ZM59.979 39.749C59.979 34.1074 58.564 29.3802 55.5238 25.7871L52.4702 28.3709C54.7393 31.0525 55.979 34.7719 55.979 39.749H59.979ZM55.5475 25.8157C52.4753 22.0452 48.2612 20.192 43.137 20.192V24.192C47.1835 24.192 50.2094 25.5968 52.4465 28.3423L55.5475 25.8157ZM43.137 20.192C38.1835 20.192 33.8742 21.5032 30.3336 24.2267L32.7724 27.3972C35.5065 25.2941 38.9199 24.192 43.137 24.192V20.192ZM29.8071 24.8363C27.3619 29.2121 26.114 33.7687 26.114 38.482H30.114C30.114 34.5073 31.1588 30.6173 33.2989 26.7876L29.8071 24.8363ZM26.114 38.482C26.114 42.9186 26.4818 46.6644 27.2648 49.6658L31.1352 48.6562C30.4702 46.1069 30.114 42.7334 30.114 38.482H26.114Z" fill="black"/>
<g filter="url(#filter0_d_10_82)">
<rect x="-14" y="113" width="117" height="85" fill="#F7F6F8"/>
</g>
</g>
<defs>
<filter id="filter0_d_10_82" x="-35" y="64" width="159" height="134" filterUnits="userSpaceOnUse" color-interpolation-filters="sRGB">
<feFlood flood-opacity="0" result="BackgroundImageFix"/>
<feColorMatrix in="SourceAlpha" type="matrix" values="0 0 0 0 0 0 0 0 0 0 0 0 0 0 0 0 0 0 127 0" result="hardAlpha"/>
<feMorphology radius="10" operator="erode" in="SourceAlpha" result="effect1_dropShadow_10_82"/>
<feOffset dy="-28"/>
<feGaussianBlur stdDeviation="15.5"/>
<feComposite in2="hardAlpha" operator="out"/>
<feColorMatrix type="matrix" values="0 0 0 0 0.968627 0 0 0 0 0.964706 0 0 0 0 0.972549 0 0 0 1 0"/>
<feBlend mode="normal" in2="BackgroundImageFix" result="effect1_dropShadow_10_82"/>
<feBlend mode="normal" in="SourceGraphic" in2="effect1_dropShadow_10_82" result="shape"/>
</filter>
<clipPath id="clip0_10_82">
<rect width="88" height="119" fill="white"/>
</clipPath>
</defs>
</svg>
