<svg width="83" height="78" viewBox="0 0 83 78" fill="none" xmlns="http://www.w3.org/2000/svg">
<path d="M32.791 23.8484L57.791 67.1497M25.5223 39.592L19.0272 43.342M32.6874 47.0023L24.0272 52.0023M80.4086 39.6577L60.2919 4.81462C58.2919 1.35052 53.9795 0.414646 50.711 2.68665L50.5378 2.78665C44.7756 6.80627 37.3502 15.2118 34.0784 21.4116L33.771 22.0125C33.2339 23.0154 31.8482 23.8154 30.7111 23.7791L29.7394 23.7628C22.751 23.5252 11.8044 25.7652 5.45891 28.7745C1.85701 30.4691 0.556861 34.6839 2.54019 38.1191L22.6735 72.991C24.2735 75.7623 28.0252 77.0604 30.9965 75.8068L31.9003 75.4389C38.6479 72.6594 50.1518 70.2515 57.4444 70.0826L57.5932 70.0737C58.6226 70.0567 59.8639 69.34 60.3645 68.4737C64.1404 62.2137 71.9899 53.4094 77.7996 48.9389L78.6856 48.2735C81.2569 46.3271 82.0086 42.429 80.4086 39.6577Z" stroke="black" stroke-width="2" stroke-linecap="round" stroke-linejoin="round"/>
</svg>
