<svg width="450" height="530" viewBox="0 0 450 530" fill="none" xmlns="http://www.w3.org/2000/svg">
<g clip-path="url(#clip0_37_679)">
<path d="M92.6298 340.302H15.1037C6.76999 340.293 0.0088845 333.531 0 325.197V15.1048C0.0088845 6.77049 6.76999 0.00888516 15.1037 0H225.382L263.87 34.3678V96.8483H262.093V35.1586L224.707 1.77703H15.1037C7.74729 1.77703 1.78578 7.74786 1.7769 15.1048V325.197C1.7769 332.554 7.74729 338.516 15.1037 338.525H92.6298V340.302Z" fill="#CCCCCC"/>
<path d="M234.551 35.5407H210.563C202.229 35.5318 195.468 28.7702 195.459 20.4359V0.888516C195.459 0.399832 195.859 0 196.348 0C196.836 0 197.236 0.399832 197.236 0.888516V20.4359C197.236 27.7928 203.206 33.7547 210.563 33.7636H234.551C235.04 33.7636 235.439 34.1635 235.439 34.6521C235.439 35.1408 235.04 35.5407 234.551 35.5407Z" fill="#CCCCCC"/>
<path d="M233.254 80.4108H30.6871C26.7601 80.4108 23.5795 83.5917 23.5795 87.5189C23.5795 91.4461 26.7601 94.627 30.6871 94.627H233.254C237.181 94.627 240.361 91.4461 240.361 87.5189C240.361 83.5917 237.181 80.4108 233.254 80.4108Z" fill="#E6E6E6"/>
<path d="M131.082 50.2012H30.6871C26.7601 50.2012 23.5795 53.3821 23.5795 57.3093C23.5795 61.2365 26.7601 64.4174 30.6871 64.4174H131.082C135.009 64.4174 138.19 61.2365 138.19 57.3093C138.19 53.3821 135.009 50.2012 131.082 50.2012Z" fill="#E6E6E6"/>
<path d="M30.6871 139.941C26.7601 139.941 23.5795 143.122 23.5795 147.05C23.5795 150.977 26.7601 154.158 30.6871 154.158H94.1757V139.941H30.6871Z" fill="#E6E6E6"/>
<path d="M30.6871 109.732C26.7601 109.732 23.5795 112.913 23.5795 116.84C23.5795 120.767 26.7601 123.948 30.6871 123.948H94.1757V109.732H30.6871Z" fill="#E6E6E6"/>
<path d="M94.6199 290.545H37.7235C29.6297 290.536 23.073 283.979 23.0641 275.884V201.249C23.073 193.155 29.6297 186.597 37.7235 186.588H94.6199V290.545Z" fill="#793EE5"/>
<path d="M186.361 435.817H108.835C100.502 435.808 93.7405 429.047 93.7316 420.712V110.62C93.7405 102.286 100.502 95.5244 108.835 95.5155H319.114L357.601 129.883V188.81H355.824V130.674L318.438 97.2925H108.835C101.479 97.2925 95.5174 103.263 95.5085 110.62V420.712C95.5085 428.069 101.479 434.031 108.835 434.04H186.361V435.817Z" fill="#CCCCCC"/>
<path d="M356.713 131.056H332.725C324.391 131.047 317.63 124.286 317.621 115.951V96.404C317.621 95.9153 318.021 95.5155 318.51 95.5155C318.998 95.5155 319.398 95.9153 319.398 96.404V115.951C319.398 123.308 325.368 129.27 332.725 129.279H356.713C357.202 129.279 357.601 129.679 357.601 130.168C357.601 130.656 357.202 131.056 356.713 131.056Z" fill="#CCCCCC"/>
<path d="M326.985 175.926H124.419C120.492 175.926 117.311 179.107 117.311 183.034C117.311 186.962 120.492 190.143 124.419 190.143H326.985C330.912 190.143 334.093 186.962 334.093 183.034C334.093 179.107 330.912 175.926 326.985 175.926Z" fill="#E6E6E6"/>
<path d="M224.813 145.717H124.419C120.492 145.717 117.311 148.897 117.311 152.825C117.311 156.752 120.492 159.933 124.419 159.933H224.813C228.74 159.933 231.921 156.752 231.921 152.825C231.921 148.897 228.74 145.717 224.813 145.717Z" fill="#E6E6E6"/>
<path d="M326.985 175.926H124.419C120.492 175.926 117.311 179.107 117.311 183.034C117.311 186.962 120.492 190.143 124.419 190.143H326.985C330.912 190.143 334.093 186.962 334.093 183.034C334.093 179.107 330.912 175.926 326.985 175.926Z" fill="#E6E6E6"/>
<path d="M224.813 145.717H124.419C120.492 145.717 117.311 148.897 117.311 152.825C117.311 156.752 120.492 159.933 124.419 159.933H224.813C228.74 159.933 231.921 156.752 231.921 152.825C231.921 148.897 228.74 145.717 224.813 145.717Z" fill="#E6E6E6"/>
<path d="M124.419 235.457C120.492 235.457 117.311 238.638 117.311 242.565C117.311 246.492 120.492 249.673 124.419 249.673H187.907V235.457H124.419Z" fill="#E6E6E6"/>
<path d="M124.419 205.247C120.492 205.247 117.311 208.428 117.311 212.355C117.311 216.283 120.492 219.464 124.419 219.464H187.907V205.247H124.419Z" fill="#E6E6E6"/>
<path d="M124.419 235.457C120.492 235.457 117.311 238.638 117.311 242.565C117.311 246.492 120.492 249.673 124.419 249.673H187.907V235.457H124.419Z" fill="#E6E6E6"/>
<path d="M124.419 205.247C120.492 205.247 117.311 208.428 117.311 212.355C117.311 216.283 120.492 219.464 124.419 219.464H187.907V205.247H124.419Z" fill="#E6E6E6"/>
<path d="M188.351 386.06H131.455C123.361 386.052 116.805 379.494 116.796 371.4V296.765C116.805 288.67 123.361 282.113 131.455 282.104H188.351V386.06Z" fill="#793EE5"/>
<path d="M193.362 191.92C188.876 194.665 186.13 199.543 186.13 204.803V207.024H187.907V204.803C187.907 198.761 191.976 193.474 197.813 191.92H193.362ZM411.512 189.698H201.234C192.9 189.707 186.139 196.469 186.13 204.803V514.895C186.139 523.23 192.9 529.991 201.234 530H434.896C443.23 529.991 449.991 523.23 450 514.895V224.066L411.512 189.698ZM448.223 514.895C448.214 522.252 442.253 528.214 434.896 528.223H201.234C193.878 528.214 187.916 522.252 187.907 514.895V204.803C187.907 198.761 191.976 193.474 197.813 191.92C198.933 191.626 200.079 191.475 201.234 191.475H410.837L448.223 224.857V514.895ZM193.362 191.92C188.876 194.665 186.13 199.543 186.13 204.803V207.024H187.907V204.803C187.907 198.761 191.976 193.474 197.813 191.92H193.362Z" fill="#3F3D56"/>
<path d="M449.112 225.239H425.123C416.79 225.23 410.029 218.468 410.02 210.134V190.587C410.02 190.098 410.42 189.698 410.908 189.698C411.397 189.698 411.797 190.098 411.797 190.587V210.134C411.797 217.491 417.767 223.453 425.123 223.462H449.112C449.6 223.462 450 223.862 450 224.35C450 224.839 449.6 225.239 449.112 225.239Z" fill="#3F3D56"/>
<path d="M419.384 284.325H216.817C212.89 284.325 209.71 281.144 209.71 277.217C209.71 273.29 212.89 270.109 216.817 270.109H419.384C423.311 270.109 426.492 273.29 426.492 277.217C426.492 281.144 423.311 284.325 419.384 284.325Z" fill="#CCCCCC"/>
<path d="M317.212 254.116H216.817C212.89 254.116 209.71 250.935 209.71 247.008C209.71 243.08 212.89 239.899 216.817 239.899H317.212C321.139 239.899 324.32 243.08 324.32 247.008C324.32 250.935 321.139 254.116 317.212 254.116Z" fill="#CCCCCC"/>
<path d="M419.384 343.856H216.817C212.89 343.856 209.71 340.675 209.71 336.748C209.71 332.82 212.89 329.639 216.817 329.639H419.384C423.311 329.639 426.492 332.82 426.492 336.748C426.492 340.675 423.311 343.856 419.384 343.856Z" fill="#CCCCCC"/>
<path d="M317.212 313.646H216.817C212.89 313.646 209.71 310.465 209.71 306.538C209.71 302.611 212.89 299.43 216.817 299.43H317.212C321.139 299.43 324.32 302.611 324.32 306.538C324.32 310.465 321.139 313.646 317.212 313.646Z" fill="#CCCCCC"/>
<path d="M412.205 480.243H223.854C215.76 480.234 209.203 473.677 209.194 465.583V390.947C209.203 382.853 215.76 376.296 223.854 376.287H412.205C420.299 376.296 426.856 382.853 426.865 390.947V465.583C426.856 473.677 420.299 480.234 412.205 480.243Z" fill="#793EE5"/>
</g>
<defs>
<clipPath id="clip0_37_679">
<rect width="450" height="530" fill="white"/>
</clipPath>
</defs>
</svg>
