<svg width="88" height="119" viewBox="0 0 88 119" fill="none" xmlns="http://www.w3.org/2000/svg">
<g clip-path="url(#clip0_10_82)">
<path d="M8.145 31.966L7.38516 30.116L6.145 30.6253V31.966H8.145ZM29.865 17.486L31.1952 18.9796L31.2056 18.9702L29.865 17.486ZM40.363 8.798L41.5535 10.4051L41.5535 10.4051L40.363 8.798ZM64.617 7.712L66.6012 7.96264L66.7788 6.55684L65.5114 5.92315L64.617 7.712ZM63.531 123.914L64.3188 125.752L65.7379 125.144L65.5089 123.617L63.531 123.914ZM40.906 121.742L39.462 123.126L39.462 123.126L40.906 121.742ZM39.639 79.207L37.654 78.9627L37.654 78.9627L39.639 79.207ZM42.716 28.165L44.716 28.1782L44.746 23.6167L41.3707 26.6851L42.716 28.165ZM36.019 35.405L34.5076 34.0951L34.5069 34.096L36.019 35.405ZM10.86 43.188L9.164 44.248L9.17959 44.2729L9.1959 44.2974L10.86 43.188ZM8.90484 33.816C15.9381 30.9274 23.3683 25.9504 31.1952 18.9795L28.5348 15.9925C20.9164 22.7776 13.8665 27.454 7.38516 30.116L8.90484 33.816ZM31.2056 18.9702C34.9092 15.625 38.3581 12.772 41.5535 10.4051L39.1725 7.19088C35.8519 9.65064 32.3021 12.5897 28.5244 16.0018L31.2056 18.9702ZM41.5535 10.4051C44.4137 8.28642 47.9602 7.17799 52.309 7.17799V3.17799C47.2458 3.17799 42.8283 4.4829 39.1725 7.19088L41.5535 10.4051ZM52.309 7.17799C56.9088 7.17799 60.6878 7.98348 63.7226 9.50085L65.5114 5.92315C61.7888 4.06184 57.3625 3.17799 52.309 3.17799V7.17799ZM62.6328 7.46136C59.7278 30.4588 58.273 52.022 58.273 72.148H62.273C62.273 52.2127 63.7142 30.8185 66.6012 7.96264L62.6328 7.46136ZM58.273 72.148C58.273 92.2446 59.3622 109.604 61.5531 124.211L65.5089 123.617C63.3558 109.264 62.273 92.1128 62.273 72.148H58.273ZM62.7432 122.076C59.6608 123.397 56.0166 124.086 51.766 124.086V128.086C56.4448 128.086 60.6439 127.327 64.3188 125.752L62.7432 122.076ZM51.766 124.086C47.7786 124.086 44.7035 122.814 42.35 120.358L39.462 123.126C42.6591 126.462 46.8241 128.086 51.766 128.086V124.086ZM42.35 120.358C40.0017 117.908 38.743 114.58 38.743 110.158H34.743C34.743 115.389 36.2596 119.784 39.462 123.126L42.35 120.358ZM38.743 110.158C38.743 105.356 39.6901 95.1642 41.624 79.4513L37.654 78.9627C35.7265 94.6232 34.743 105.066 34.743 110.158H38.743ZM41.624 79.4513C43.5655 63.6769 44.5949 46.5848 44.716 28.1782L40.716 28.1518C40.5958 46.4278 39.5739 63.3637 37.654 78.9627L41.624 79.4513ZM41.3707 26.6851C39.9433 27.9827 37.6387 30.4823 34.5076 34.0951L37.5304 36.7149C40.6739 33.0877 42.834 30.7606 44.0613 29.6449L41.3707 26.6851ZM34.5069 34.096C31.0566 38.0817 28.0445 40.9916 25.4665 42.8897C22.8452 44.8196 20.9028 45.532 19.548 45.532V49.532C22.1752 49.532 24.9689 48.2232 27.838 46.1108C30.7504 43.9666 33.9828 40.8129 37.5311 36.714L34.5069 34.096ZM19.548 45.532C16.2693 45.532 14.0385 44.3502 12.5241 42.0786L9.1959 44.2974C11.5428 47.8178 15.1041 49.532 19.548 49.532V45.532ZM12.556 42.128C11.0018 39.6413 10.145 36.3013 10.145 31.966H6.145C6.145 36.8014 7.09822 40.9427 9.164 44.248L12.556 42.128Z" fill="black"/>
<g filter="url(#filter0_d_10_82)">
<rect x="-14" y="113" width="117" height="85" fill="#F7F6F8"/>
</g>
</g>
<defs>
<filter id="filter0_d_10_82" x="-35" y="64" width="159" height="134" filterUnits="userSpaceOnUse" color-interpolation-filters="sRGB">
<feFlood flood-opacity="0" result="BackgroundImageFix"/>
<feColorMatrix in="SourceAlpha" type="matrix" values="0 0 0 0 0 0 0 0 0 0 0 0 0 0 0 0 0 0 127 0" result="hardAlpha"/>
<feMorphology radius="10" operator="erode" in="SourceAlpha" result="effect1_dropShadow_10_82"/>
<feOffset dy="-28"/>
<feGaussianBlur stdDeviation="15.5"/>
<feComposite in2="hardAlpha" operator="out"/>
<feColorMatrix type="matrix" values="0 0 0 0 0.968627 0 0 0 0 0.964706 0 0 0 0 0.972549 0 0 0 1 0"/>
<feBlend mode="normal" in2="BackgroundImageFix" result="effect1_dropShadow_10_82"/>
<feBlend mode="normal" in="SourceGraphic" in2="effect1_dropShadow_10_82" result="shape"/>
</filter>
<clipPath id="clip0_10_82">
<rect width="88" height="119" fill="white"/>
</clipPath>
</defs>
</svg>
