<svg width="88" height="119" viewBox="0 0 88 119" fill="none" xmlns="http://www.w3.org/2000/svg">
<g clip-path="url(#clip0_10_82)">
<path d="M72.821 121.742L71.3782 120.357L71.377 120.358L72.821 121.742ZM34.449 125L34.5631 123.003L34.449 125ZM5.127 123.914L3.47043 125.035L4.06531 125.914H5.127V123.914ZM6.575 96.764L8.17032 97.9702L8.17729 97.961L8.18415 97.9517L6.575 96.764ZM20.15 82.646L21.4165 84.1939L21.4269 84.1854L21.4372 84.1767L20.15 82.646ZM35.897 69.252L34.6098 67.7213L34.6011 67.7286L34.5925 67.736L35.897 69.252ZM49.472 54.41L47.825 53.2754L47.825 53.2754L49.472 54.41ZM51.101 26.898L52.6278 25.6061L52.6278 25.6061L51.101 26.898ZM28.838 25.993L27.5516 24.4616L27.3326 24.6456L27.1739 24.8836L28.838 25.993ZM26.304 49.161L26.7891 51.1013L28.7951 50.5998L28.2271 48.6116L26.304 49.161ZM8.023 46.084L6.72607 47.6065L6.75622 47.6322L6.78736 47.6566L8.023 46.084ZM15.444 13.504L16.5646 15.1606L16.5646 15.1606L15.444 13.504ZM67.572 13.323L66.2916 14.8594L66.3001 14.8665L66.3087 14.8735L67.572 13.323ZM72.097 52.238L70.3949 51.1878L70.3949 51.1878L72.097 52.238ZM59.427 67.985L60.8054 69.4341L60.8146 69.4254L60.8236 69.4166L59.427 67.985ZM44.404 81.922L45.7411 83.4093L45.7458 83.4051L44.404 81.922ZM26.485 109.072H24.485V111.098L26.5105 111.072L26.485 109.072ZM74.993 100.022L76.8206 99.2097L76.0165 97.4004L74.1992 98.1863L74.993 100.022ZM75.165 111.063C75.165 114.638 73.9244 117.705 71.3782 120.357L74.2638 123.127C77.5097 119.746 79.165 115.693 79.165 111.063H75.165ZM71.377 120.358C69.0726 122.763 65.731 124.086 61.056 124.086V128.086C66.517 128.086 71.0187 126.513 74.265 123.126L71.377 120.358ZM61.056 124.086C56.0517 124.086 47.2347 123.727 34.5631 123.003L34.3349 126.997C47.0033 127.721 55.9243 128.086 61.056 128.086V124.086ZM34.5631 123.003C21.881 122.279 12.0623 121.914 5.127 121.914V125.914C11.9477 125.914 21.677 126.273 34.3349 126.997L34.5631 123.003ZM6.78357 122.793C4.20657 118.984 2.964 115.085 2.964 111.063H-1.036C-1.036 115.97 0.496768 120.639 3.47043 125.035L6.78357 122.793ZM2.964 111.063C2.964 107.044 4.60067 102.691 8.17032 97.9702L4.97968 95.5578C1.068 100.731 -1.036 105.912 -1.036 111.063H2.964ZM8.18415 97.9517C11.8177 93.0289 16.2246 88.4418 21.4165 84.1939L18.8835 81.0981C13.4568 85.5382 8.81366 90.3631 4.96585 95.5763L8.18415 97.9517ZM21.4372 84.1767C26.7522 79.7073 32.007 75.2377 37.2015 70.768L34.5925 67.736C29.4097 72.1956 24.1664 76.6554 18.8628 81.1153L21.4372 84.1767ZM37.1842 70.7827C42.6235 66.2087 47.2715 61.1297 51.119 55.5446L47.825 53.2754C44.1911 58.5503 39.7891 63.3659 34.6098 67.7213L37.1842 70.7827ZM51.119 55.5446C55.0075 49.9 57.083 44.3808 57.083 39.025H53.083C53.083 43.3225 51.4178 48.06 47.825 53.2754L51.119 55.5446ZM57.083 39.025C57.083 33.7052 55.6472 29.1746 52.6278 25.6061L49.5742 28.1899C51.8641 30.8961 53.083 34.4501 53.083 39.025H57.083ZM52.6278 25.6061C49.5463 21.9643 45.3381 20.192 40.241 20.192V24.192C44.3146 24.192 47.3464 25.557 49.5742 28.1899L52.6278 25.6061ZM40.241 20.192C35.2663 20.192 30.9863 21.5765 27.5516 24.4616L30.1244 27.5244C32.7231 25.3415 36.045 24.192 40.241 24.192V20.192ZM27.1739 24.8836C24.5235 28.8591 23.218 33.4149 23.218 38.482H27.218C27.218 34.1371 28.3258 30.3669 30.5021 27.1024L27.1739 24.8836ZM23.218 38.482C23.218 43.1377 23.5817 46.9131 24.381 49.7104L28.2271 48.6116C27.5783 46.3409 27.218 42.997 27.218 38.482H23.218ZM25.8189 47.2207C23.4833 47.8046 21.6697 48.066 20.331 48.066V52.066C22.1296 52.066 24.298 51.724 26.7891 51.1013L25.8189 47.2207ZM20.331 48.066C15.8942 48.066 12.2417 46.8552 9.25864 44.5114L6.78736 47.6566C10.5617 50.6222 15.1145 52.066 20.331 52.066V48.066ZM9.31993 44.5615C6.54298 42.196 5.136 39.0899 5.136 35.043H1.136C1.136 40.1668 2.98703 44.4214 6.72607 47.6065L9.31993 44.5615ZM5.136 35.043C5.136 26.9895 8.82909 20.3934 16.5646 15.1606L14.3234 11.8474C5.64824 17.7159 1.136 25.4792 1.136 35.043H5.136ZM16.5646 15.1606C24.4352 9.83632 33.1544 7.17799 42.775 7.17799V3.17799C32.3649 3.17799 22.8634 6.07033 14.3234 11.8474L16.5646 15.1606ZM42.775 7.17799C52.4111 7.17799 60.1977 9.78117 66.2916 14.8594L68.8524 11.7865C61.9143 6.00481 53.1696 3.17799 42.775 3.17799V7.17799ZM66.3087 14.8735C72.2988 19.7543 75.346 26.5128 75.346 35.405H79.346C79.346 25.4732 75.8772 17.5103 68.8354 11.7725L66.3087 14.8735ZM75.346 35.405C75.346 40.5163 73.7388 45.7684 70.3949 51.1878L73.7991 53.2882C77.4538 47.365 79.346 41.395 79.346 35.405H75.346ZM70.3949 51.1878C66.9846 56.7149 62.865 61.8367 58.0304 66.5534L60.8236 69.4166C65.8836 64.48 70.2108 59.1038 73.7991 53.2882L70.3949 51.1878ZM58.0486 66.5359C53.1133 71.2304 48.1178 75.8647 43.0622 80.4389L45.7458 83.4051C50.8262 78.8086 55.846 74.1516 60.8054 69.4341L58.0486 66.5359ZM43.0669 80.4347C37.0218 85.8692 32.4091 90.9447 29.2955 95.6623C26.1896 100.368 24.485 104.856 24.485 109.072H28.485C28.485 105.928 29.7669 102.21 32.634 97.8657C35.4934 93.5333 39.8402 88.7142 45.7411 83.4093L43.0669 80.4347ZM26.5105 111.072C45.6443 110.828 62.0894 107.781 75.7868 101.858L74.1992 98.1863C61.1086 103.847 45.215 106.833 26.4595 107.072L26.5105 111.072ZM73.1654 100.834C74.4838 103.801 75.165 107.198 75.165 111.063H79.165C79.165 106.722 78.3982 102.759 76.8206 99.2097L73.1654 100.834Z" fill="black"/>
<g filter="url(#filter0_d_10_82)">
<rect x="-14" y="113" width="117" height="85" fill="#F7F6F8"/>
</g>
</g>
<defs>
<filter id="filter0_d_10_82" x="-35" y="64" width="159" height="134" filterUnits="userSpaceOnUse" color-interpolation-filters="sRGB">
<feFlood flood-opacity="0" result="BackgroundImageFix"/>
<feColorMatrix in="SourceAlpha" type="matrix" values="0 0 0 0 0 0 0 0 0 0 0 0 0 0 0 0 0 0 127 0" result="hardAlpha"/>
<feMorphology radius="10" operator="erode" in="SourceAlpha" result="effect1_dropShadow_10_82"/>
<feOffset dy="-28"/>
<feGaussianBlur stdDeviation="15.5"/>
<feComposite in2="hardAlpha" operator="out"/>
<feColorMatrix type="matrix" values="0 0 0 0 0.968627 0 0 0 0 0.964706 0 0 0 0 0.972549 0 0 0 1 0"/>
<feBlend mode="normal" in2="BackgroundImageFix" result="effect1_dropShadow_10_82"/>
<feBlend mode="normal" in="SourceGraphic" in2="effect1_dropShadow_10_82" result="shape"/>
</filter>
<clipPath id="clip0_10_82">
<rect width="88" height="119" fill="white"/>
</clipPath>
</defs>
</svg>
