<svg width="750" height="500" viewBox="0 0 750 500" fill="none" xmlns="http://www.w3.org/2000/svg">
<path fill-rule="evenodd" clip-rule="evenodd" d="M591.49 183.28C592.818 184.271 594.008 185.435 595.03 186.74L599.54 185.91L602.54 192.91L598.82 195.6C599.06 197.236 599.08 198.898 598.88 200.54L602.65 203.15L599.82 210.2L595.29 209.47C594.301 210.797 593.137 211.984 591.83 213L592.65 217.52L585.65 220.52L583 216.77C581.341 217 579.659 217 578 216.77L575.39 220.55L568.39 217.72L569.12 213.19C567.79 212.201 566.599 211.037 565.58 209.73L561.07 210.55L558.07 203.55L561.78 200.86C561.56 199.2 561.56 197.519 561.78 195.86L558 193.37L560.83 186.37L565.36 187.09C566.352 185.765 567.515 184.578 568.82 183.56L568 179L575 176L577.69 179.71C579.347 179.469 581.029 179.452 582.69 179.66L585.29 175.89L592.34 178.72L591.61 183.25L591.49 183.28ZM583.64 190.83C582.146 190.23 580.508 190.087 578.933 190.418C577.357 190.749 575.915 191.54 574.79 192.691C573.664 193.841 572.904 195.3 572.607 196.882C572.31 198.464 572.489 200.099 573.121 201.579C573.753 203.06 574.809 204.32 576.157 205.2C577.505 206.08 579.084 206.54 580.694 206.523C582.303 206.506 583.872 206.012 585.201 205.104C586.53 204.196 587.56 202.913 588.16 201.42C588.559 200.428 588.758 199.367 588.747 198.298C588.736 197.228 588.514 196.172 588.094 195.188C587.674 194.205 587.065 193.314 586.301 192.566C585.536 191.818 584.632 191.228 583.64 190.83Z" fill="#EBEBEB"/>
<path fill-rule="evenodd" clip-rule="evenodd" d="M172.82 213.71C175.217 215.505 177.366 217.61 179.21 219.97L187.37 218.48L192.76 231.1L186 236C186.43 238.963 186.46 241.969 186.09 244.94L192.91 249.65L187.8 262.39L179.65 261C177.861 263.402 175.755 265.552 173.39 267.39L174.88 275.55L162.26 281L157.4 274.28C154.437 274.709 151.431 274.742 148.46 274.38L143.74 281.19L131 276.06L132.31 267.87C129.912 266.075 127.764 263.97 125.92 261.61L117.77 263.1L112.38 250.48L119.1 245.62C118.671 242.658 118.638 239.651 119 236.68L112.19 232L117.31 219.27L125.49 220.59C127.287 218.192 129.392 216.04 131.75 214.19L130.26 206L142.88 200.61L147.75 207.33C150.712 206.901 153.719 206.868 156.69 207.23L161.4 200.41L174.14 205.53L172.82 213.71ZM158.64 227.37C155.938 226.284 152.975 226.023 150.126 226.621C147.276 227.219 144.668 228.649 142.631 230.73C140.594 232.81 139.22 235.448 138.682 238.31C138.144 241.172 138.468 244.128 139.611 246.806C140.754 249.484 142.666 251.763 145.104 253.355C147.542 254.946 150.398 255.778 153.309 255.747C156.221 255.715 159.058 254.82 161.461 253.176C163.864 251.532 165.725 249.212 166.81 246.51C168.261 242.888 168.215 238.839 166.683 235.25C165.152 231.662 162.259 228.828 158.64 227.37Z" fill="#EBEBEB"/>
<path fill-rule="evenodd" clip-rule="evenodd" d="M139.34 149.83C140.665 150.822 141.852 151.985 142.87 153.29L147.38 152.47L150.38 159.47L146.67 162.16C146.895 163.819 146.895 165.501 146.67 167.16L150.44 169.77L147.61 176.77L143.09 176.04C142.095 177.368 140.928 178.559 139.62 179.58L140.45 184.09L133.45 187.09L130.76 183.38C129.12 183.595 127.46 183.595 125.82 183.38L123.21 187.15L116.21 184.32L116.94 179.79C115.613 178.801 114.426 177.637 113.41 176.33L108.89 177.15L105.89 170.15L109.61 167.46C109.368 165.82 109.351 164.155 109.56 162.51L105.78 159.91L108.61 152.86L113.14 153.59C114.132 152.262 115.295 151.072 116.6 150.05L115.78 145.54L122.78 142.54L125.47 146.26C127.126 146.015 128.808 145.995 130.47 146.2L133.08 142.43L140.08 145.26L139.36 149.79L139.34 149.83ZM131.49 157.38C129.995 156.778 128.356 156.633 126.779 156.963C125.202 157.292 123.758 158.082 122.629 159.232C121.501 160.382 120.738 161.84 120.439 163.424C120.139 165.007 120.315 166.643 120.945 168.126C121.574 169.609 122.63 170.872 123.977 171.756C125.324 172.639 126.903 173.103 128.514 173.09C130.126 173.077 131.696 172.586 133.029 171.68C134.361 170.774 135.395 169.493 136 168C136.402 167.007 136.605 165.944 136.596 164.872C136.587 163.8 136.367 162.741 135.948 161.755C135.529 160.768 134.919 159.874 134.155 159.123C133.39 158.373 132.484 157.78 131.49 157.38Z" fill="#F0F0F0"/>
<path fill-rule="evenodd" clip-rule="evenodd" d="M231.19 94.29C235.065 95.7139 238.731 97.6512 242.09 100.05L252.29 94.87L264.37 109.43L257.37 118.5C259.102 122.248 260.329 126.209 261.02 130.28L271.88 133.83L270.13 152.67L258.79 154.15C257.366 158.028 255.429 161.697 253.03 165.06L258.21 175.26L243.64 187.34L234.58 180.34C230.84 182.077 226.885 183.308 222.82 184L219.27 194.87L200.43 193.11L199 181.79C195.125 180.366 191.459 178.429 188.1 176.03L177.9 181.2L165.82 166.64L172.82 157.57C171.089 153.822 169.861 149.861 169.17 145.79L158.31 142.24L160 123.4L171.34 121.92C172.759 118.041 174.689 114.368 177.08 111L171.9 100.81L186.47 88.73L195.53 95.73C199.278 93.9892 203.244 92.7615 207.32 92.08L210.87 81.21L229.71 83L231.19 94.34V94.29ZM217.81 117.91C213.812 117.538 209.794 118.359 206.263 120.271C202.732 122.182 199.847 125.098 197.973 128.649C196.099 132.2 195.321 136.227 195.736 140.221C196.151 144.215 197.741 147.996 200.305 151.085C202.869 154.175 206.292 156.436 210.14 157.58C213.989 158.725 218.09 158.702 221.926 157.516C225.762 156.329 229.16 154.032 231.69 150.914C234.22 147.796 235.769 143.998 236.14 140C236.388 137.346 236.11 134.669 235.323 132.122C234.536 129.575 233.255 127.208 231.552 125.157C229.85 123.105 227.76 121.409 225.402 120.166C223.044 118.923 220.464 118.156 217.81 117.91Z" fill="#E0E0E0"/>
<path d="M152.11 406C164.59 397.83 167.76 382.18 167.63 368C167.63 365.64 167.93 363.16 166.84 361.06C165.75 358.96 163.14 357.49 160.97 358.43C159.18 359.21 158.36 361.23 157.32 362.89C155.933 365.112 153.947 366.898 151.59 368.04C150.05 368.78 148.16 369.21 146.68 368.36C144.68 367.19 144.47 364.36 144.54 362.03C144.68 357.657 144.813 353.287 144.94 348.92C145.145 346.573 144.962 344.208 144.4 341.92C144.102 340.787 143.537 339.742 142.752 338.872C141.967 338.002 140.986 337.333 139.89 336.92C137.64 336.24 134.82 337.46 134.28 339.74C134.168 340.709 134.121 341.685 134.14 342.66C134.142 343.149 133.998 343.628 133.728 344.036C133.457 344.444 133.072 344.762 132.62 344.95C132.128 344.995 131.633 344.914 131.182 344.715C130.73 344.515 130.337 344.204 130.04 343.81C127.763 341.264 125.919 338.362 124.58 335.22C123.243 332.082 121.538 329.115 119.5 326.38C117.34 323.74 114.31 321.62 110.91 321.38C107.51 321.14 103.84 323.1 102.91 326.38C101.98 329.66 103.84 333.07 105.91 335.79C108.973 339.845 112.608 343.436 116.7 346.45C117.497 346.909 118.127 347.609 118.5 348.45C118.97 350.03 117.43 351.54 115.86 352.02C114.07 352.56 112.15 352.33 110.3 352.5C108.45 352.67 106.41 353.43 105.67 355.14C104.67 357.52 106.61 360.08 108.56 361.77C112.493 365.171 116.977 367.876 121.82 369.77C123.606 370.304 125.279 371.158 126.76 372.29C128.14 373.53 128.94 375.66 128.05 377.29C127.16 378.92 124.96 379.4 123.13 379.02C121.365 378.494 119.649 377.819 118 377C114.76 375.71 110.54 375.83 108.38 378.57C107.713 379.506 107.275 380.585 107.101 381.721C106.928 382.857 107.023 384.018 107.38 385.11C108.127 387.282 109.304 389.282 110.84 390.99C115.883 397.267 122.496 402.097 130.01 404.99C137.52 407.77 144.53 408.64 152.12 406.1" fill="#724FFF"/>
<path d="M106.41 323.29L106.64 323.52L107.33 324.15C107.94 324.71 108.83 325.53 109.96 326.62C113.149 329.692 116.104 332.998 118.8 336.51C120.51 338.72 122.29 341.23 124.15 343.95C126.01 346.67 127.96 349.61 129.91 352.76C131.967 356.04 133.839 359.432 135.52 362.92C136.4 364.73 137.17 366.63 137.95 368.56C138.73 370.49 139.53 372.45 140.33 374.44C143.396 381.871 146.037 389.47 148.24 397.2C150.013 403.522 151.181 409.997 151.73 416.54C152.088 420.951 152.055 425.385 151.63 429.79C151.47 431.34 151.32 432.55 151.19 433.37C151.13 433.76 151.09 434.07 151.05 434.3C151.043 434.407 151.043 434.513 151.05 434.62C151.084 434.519 151.11 434.415 151.13 434.31C151.13 434.08 151.23 433.77 151.3 433.38C151.46 432.57 151.64 431.38 151.83 429.81C152.32 425.397 152.4 420.948 152.07 416.52C151.568 409.951 150.425 403.447 148.66 397.1C146.472 389.344 143.838 381.722 140.77 374.27C139.957 372.27 139.163 370.313 138.39 368.4C137.6 366.47 136.82 364.56 135.94 362.73C134.243 359.231 132.353 355.83 130.28 352.54C128.28 349.39 126.34 346.47 124.48 343.75C122.62 341.03 120.81 338.53 119.07 336.32C116.334 332.814 113.324 329.531 110.07 326.5C108.92 325.43 108 324.62 107.37 324.09L106.66 323.48C106.5 323.35 106.42 323.28 106.41 323.29Z" fill="#263238"/>
<path d="M135.79 362.71C135.909 362.387 135.992 362.051 136.04 361.71C136.18 361.06 136.36 360.13 136.55 358.96C136.94 356.63 137.38 353.4 137.84 349.84C138.3 346.28 138.78 343.06 139.21 340.74C139.42 339.59 139.6 338.65 139.73 338C139.82 337.674 139.874 337.338 139.89 337C139.738 337.318 139.628 337.654 139.56 338C139.38 338.63 139.15 339.56 138.9 340.71C138.4 343.02 137.9 346.24 137.41 349.81C136.92 353.38 136.55 356.51 136.25 358.95C136.1 360.04 135.97 360.95 135.88 361.71C135.811 362.039 135.781 362.374 135.79 362.71Z" fill="#263238"/>
<path d="M105.38 356.35C105.777 356.444 106.182 356.501 106.59 356.52C107.37 356.61 108.51 356.73 109.9 356.93C112.69 357.29 116.53 357.93 120.73 358.81C124.93 359.69 128.73 360.68 131.4 361.45C132.76 361.83 133.85 362.17 134.6 362.4C134.985 362.544 135.384 362.648 135.79 362.71C135.425 362.527 135.047 362.37 134.66 362.24C133.92 361.96 132.84 361.58 131.49 361.16C128.8 360.3 125.03 359.28 120.82 358.39C117.225 357.617 113.594 357.026 109.94 356.62C108.53 356.46 107.39 356.39 106.61 356.36C106.201 356.315 105.789 356.312 105.38 356.35Z" fill="#263238"/>
<path d="M148.27 396.53C148.359 396.42 148.433 396.299 148.49 396.17L149.04 395.09C149.51 394.15 150.16 392.78 150.94 391.09C152.5 387.67 154.5 382.88 156.63 377.57C158.76 372.26 160.73 367.45 162.21 364.01L163.98 359.93L164.46 358.82C164.56 358.56 164.61 358.42 164.59 358.42C164.508 358.532 164.437 358.653 164.38 358.78L163.83 359.86C163.35 360.8 162.71 362.17 161.93 363.86C160.37 367.28 158.37 372.07 156.23 377.38C154.09 382.69 152.14 387.5 150.65 390.94C149.93 392.62 149.33 394 148.88 395.02L148.41 396.13C148.346 396.257 148.299 396.391 148.27 396.53Z" fill="#263238"/>
<path d="M108 382.65C108 382.65 108.13 382.73 108.39 382.83L109.56 383.24L113.88 384.74C117.52 386 122.53 387.8 128.06 389.8C133.59 391.8 138.62 393.55 142.29 394.74C144.13 395.34 145.61 395.8 146.65 396.1L147.84 396.44C148.12 396.52 148.27 396.55 148.27 396.53C148.143 396.46 148.009 396.403 147.87 396.36L146.7 395.94L142.39 394.45C138.75 393.19 133.74 391.39 128.21 389.39C122.68 387.39 117.64 385.63 113.98 384.44C112.14 383.85 110.65 383.38 109.62 383.08L108.42 382.74C108.283 382.696 108.143 382.666 108 382.65Z" fill="#263238"/>
<path d="M557.92 300.48L497.59 300.2C495.863 300.196 494.154 299.851 492.561 299.185C490.968 298.519 489.523 297.544 488.307 296.318C487.092 295.091 486.131 293.637 485.479 292.038C484.828 290.439 484.498 288.727 484.51 287L485.15 136.17C485.159 134.446 485.508 132.741 486.176 131.152C486.845 129.563 487.82 128.122 489.046 126.91C490.272 125.698 491.724 124.739 493.321 124.089C494.917 123.439 496.626 123.109 498.35 123.12L558.68 123.39C562.16 123.403 565.492 124.796 567.946 127.263C570.4 129.73 571.775 133.07 571.77 136.55L571.13 287.39C571.125 289.118 570.779 290.827 570.112 292.421C569.444 294.014 568.469 295.461 567.242 296.677C566.015 297.893 564.56 298.855 562.96 299.507C561.36 300.16 559.648 300.491 557.92 300.48Z" fill="#455A64"/>
<path d="M558.6 128.64H546.9C546.52 128.645 546.144 128.725 545.795 128.876C545.445 129.027 545.129 129.245 544.865 129.518C544.6 129.791 544.392 130.114 544.252 130.468C544.112 130.822 544.043 131.2 544.05 131.58V133.7C544.058 134.468 543.764 135.208 543.23 135.76C542.697 136.312 541.968 136.632 541.2 136.65L518.39 136.54C518.007 136.531 517.63 136.446 517.28 136.29C516.93 136.134 516.615 135.909 516.352 135.63C516.09 135.351 515.885 135.022 515.751 134.664C515.617 134.305 515.555 133.923 515.57 133.54V131.4C515.583 131.017 515.521 130.636 515.386 130.278C515.251 129.92 515.047 129.592 514.785 129.313C514.523 129.034 514.208 128.81 513.859 128.653C513.509 128.496 513.133 128.41 512.75 128.4H508.63H498.39C497.183 128.393 495.987 128.625 494.869 129.08C493.752 129.536 492.735 130.208 491.877 131.056C491.019 131.905 490.337 132.914 489.869 134.027C489.401 135.139 489.157 136.333 489.15 137.54L488.52 284.77C488.515 287.208 489.478 289.549 491.197 291.278C492.916 293.007 495.252 293.982 497.69 293.99L557.9 294.27C560.338 294.281 562.68 293.325 564.414 291.611C566.148 289.898 567.132 287.567 567.15 285.13L567.77 137.9C567.779 136.689 567.549 135.488 567.093 134.366C566.636 133.244 565.962 132.224 565.11 131.363C564.258 130.503 563.244 129.819 562.127 129.352C561.01 128.885 559.811 128.643 558.6 128.64Z" fill="white"/>
<path d="M557.61 228.82H498.03V232.81H557.61V228.82Z" fill="#455A64"/>
<path d="M555.49 244.51C555.49 244.65 542.77 244.77 527.09 244.77C511.41 244.77 498.68 244.65 498.68 244.51C498.68 244.37 511.4 244.25 527.09 244.25C542.78 244.25 555.49 244.37 555.49 244.51Z" fill="#455A64"/>
<path d="M555.49 150C555.49 150.15 542.77 150.26 527.09 150.26C511.41 150.26 498.68 150.15 498.68 150C498.68 149.85 511.4 149.74 527.09 149.74C542.78 149.74 555.49 149.83 555.49 150Z" fill="#455A64"/>
<path d="M555.49 251.77C555.49 251.91 542.77 252.03 527.09 252.03C511.41 252.03 498.68 251.91 498.68 251.77C498.68 251.63 511.4 251.51 527.09 251.51C542.78 251.51 555.49 251.62 555.49 251.77Z" fill="#455A64"/>
<path d="M555.49 259C555.49 259.14 542.77 259.26 527.09 259.26C511.41 259.26 498.68 259.14 498.68 259C498.68 258.86 511.4 258.74 527.09 258.74C542.78 258.74 555.49 258.88 555.49 259Z" fill="#455A64"/>
<path d="M555.49 266.28C555.49 266.42 542.77 266.54 527.09 266.54C511.41 266.54 498.68 266.42 498.68 266.28C498.68 266.14 511.4 266.02 527.09 266.02C542.78 266.02 555.49 266.13 555.49 266.28Z" fill="#455A64"/>
<path d="M555.49 273.53C555.49 273.68 542.77 273.79 527.09 273.79C511.41 273.79 498.68 273.68 498.68 273.53C498.68 273.38 511.4 273.27 527.09 273.27C542.78 273.27 555.49 273.39 555.49 273.53Z" fill="#455A64"/>
<path d="M556.3 281.76C556.3 281.9 543.58 282.02 527.9 282.02C512.22 282.02 499.49 281.9 499.49 281.76C499.49 281.62 512.21 281.5 527.9 281.5C543.59 281.5 556.3 281.61 556.3 281.76Z" fill="#455A64"/>
<path d="M558.41 158.25H498.68V216.04H558.41V158.25Z" fill="#E0E0E0"/>
<path d="M503.31 211.09L519.84 181.35L533.35 200.36L541.56 190.26L553.78 211.09H503.31Z" fill="#724FFF"/>
<path d="M539.11 175.57C539.11 176.42 538.858 177.252 538.385 177.959C537.913 178.666 537.241 179.217 536.456 179.543C535.67 179.868 534.805 179.953 533.971 179.787C533.137 179.621 532.371 179.212 531.769 178.611C531.168 178.009 530.759 177.243 530.593 176.409C530.427 175.575 530.512 174.71 530.837 173.924C531.163 173.139 531.714 172.467 532.421 171.995C533.128 171.522 533.96 171.27 534.81 171.27C535.95 171.273 537.042 171.727 537.848 172.532C538.653 173.338 539.107 174.43 539.11 175.57Z" fill="#724FFF"/>
<path d="M553.78 211.25C553.78 211.25 553.78 211.17 553.78 211.01C553.78 210.85 553.78 210.62 553.78 210.34C553.78 209.72 553.78 208.86 553.78 207.74C553.78 205.45 553.78 202.13 553.71 197.92C553.71 189.48 553.64 177.46 553.59 163.03L553.83 163.27H503.37C503.3 163.33 503.9 162.73 503.65 162.99V175.99C503.65 180.24 503.65 184.4 503.65 188.44C503.65 196.54 503.65 204.19 503.65 211.23L503.4 210.98L539.89 211.11L550.19 211.17H552.92H553.62H553.87H553.65H552.97H550.29L540.05 211.23L503.4 211.36H503.15V211.11C503.15 204.11 503.15 196.42 503.15 188.32C503.15 184.32 503.15 180.12 503.15 175.87V162.87C502.89 163.12 503.49 162.51 503.44 162.58H553.9H554V163C553.94 177.5 553.9 189.57 553.87 198.05C553.87 202.23 553.87 205.53 553.81 207.81C553.81 208.91 553.81 209.76 553.81 210.36C553.81 210.63 553.81 210.84 553.81 211.01C553.812 211.091 553.802 211.172 553.78 211.25Z" fill="#455A64"/>
<path d="M244.44 71.98V205.2C244.44 211.579 249.611 216.75 255.99 216.75H457.23C463.609 216.75 468.78 211.579 468.78 205.2V71.98C468.78 65.6011 463.609 60.43 457.23 60.43H255.99C249.611 60.43 244.44 65.6011 244.44 71.98Z" fill="#455A64"/>
<path d="M259.78 65.36V211.82H447.13V65.36H259.78Z" fill="white"/>
<path d="M457.5 132.59C458.687 132.59 459.847 132.942 460.833 133.601C461.82 134.26 462.589 135.198 463.043 136.294C463.497 137.39 463.616 138.597 463.385 139.761C463.153 140.924 462.582 141.994 461.743 142.833C460.904 143.672 459.834 144.243 458.671 144.475C457.507 144.706 456.3 144.587 455.204 144.133C454.108 143.679 453.17 142.91 452.511 141.923C451.852 140.937 451.5 139.777 451.5 138.59C451.5 136.999 452.132 135.473 453.257 134.347C454.383 133.222 455.909 132.59 457.5 132.59Z" fill="#263238"/>
<path d="M250.9 116.27V160.91C250.9 161.584 251.446 162.13 252.12 162.13H252.16C252.834 162.13 253.38 161.584 253.38 160.91V116.27C253.38 115.596 252.834 115.05 252.16 115.05H252.12C251.446 115.05 250.9 115.596 250.9 116.27Z" fill="#263238"/>
<path d="M404.82 76.36H345.24V80.35H404.82V76.36Z" fill="#455A64"/>
<path d="M327.21 144.89H267.63V148.88H327.21V144.89Z" fill="#455A64"/>
<path d="M419.33 91.2C419.33 91.35 402.75 91.46 382.33 91.46C361.91 91.46 345.28 91.35 345.28 91.2C345.28 91.05 361.86 90.94 382.33 90.94C402.8 90.94 419.33 91.06 419.33 91.2Z" fill="#455A64"/>
<path d="M419.33 99.91C419.33 100.05 402.75 100.17 382.33 100.17C361.91 100.17 345.28 100.05 345.28 99.91C345.28 99.77 361.86 99.65 382.33 99.65C402.8 99.65 419.33 99.76 419.33 99.91Z" fill="#455A64"/>
<path d="M419.33 108.61C419.33 108.75 402.75 108.87 382.33 108.87C361.91 108.87 345.28 108.75 345.28 108.61C345.28 108.47 361.86 108.35 382.33 108.35C402.8 108.35 419.33 108.47 419.33 108.61Z" fill="#455A64"/>
<path d="M419.33 117.31C419.33 117.46 402.75 117.57 382.33 117.57C361.91 117.57 345.28 117.46 345.28 117.31C345.28 117.16 361.86 117.05 382.33 117.05C402.8 117.05 419.33 117.17 419.33 117.31Z" fill="#455A64"/>
<path d="M419.33 126C419.33 126.14 402.75 126.26 382.33 126.26C361.91 126.26 345.28 126.14 345.28 126C345.28 125.86 361.86 125.74 382.33 125.74C402.8 125.74 419.33 125.87 419.33 126Z" fill="#455A64"/>
<path d="M403.08 134.72C403.08 134.86 390.13 134.98 374.16 134.98C358.19 134.98 345.24 134.86 345.24 134.72C345.24 134.58 358.18 134.46 374.16 134.46C390.14 134.46 403.08 134.58 403.08 134.72Z" fill="#455A64"/>
<path d="M365.48 160.58C365.48 160.72 343.72 160.84 316.88 160.84C290.04 160.84 268.28 160.72 268.28 160.58C268.28 160.44 290.04 160.32 316.88 160.32C343.72 160.32 365.48 160.43 365.48 160.58Z" fill="#455A64"/>
<path d="M365.48 167.83C365.48 167.98 343.72 168.09 316.88 168.09C290.04 168.09 268.28 167.98 268.28 167.83C268.28 167.68 290.04 167.57 316.88 167.57C343.72 167.57 365.48 167.69 365.48 167.83Z" fill="#455A64"/>
<path d="M365.48 175.09C365.48 175.23 343.72 175.35 316.88 175.35C290.04 175.35 268.28 175.23 268.28 175.09C268.28 174.95 290.04 174.83 316.88 174.83C343.72 174.83 365.48 174.94 365.48 175.09Z" fill="#455A64"/>
<path d="M365.48 182.34C365.48 182.49 343.72 182.6 316.88 182.6C290.04 182.6 268.28 182.49 268.28 182.34C268.28 182.19 290.04 182.08 316.88 182.08C343.72 182.08 365.48 182.2 365.48 182.34Z" fill="#455A64"/>
<path d="M365.48 189.6C365.48 189.74 343.72 189.86 316.88 189.86C290.04 189.86 268.28 189.74 268.28 189.6C268.28 189.46 290.04 189.34 316.88 189.34C343.72 189.34 365.48 189.46 365.48 189.6Z" fill="#455A64"/>
<path d="M328.01 74.31H268.28V132.1H328.01V74.31Z" fill="#724FFF"/>
<path d="M272.91 127.16L289.44 97.42L302.95 116.42L311.16 106.33L323.38 127.16H272.91Z" fill="#E0E0E0"/>
<path d="M308.71 91.63C308.712 92.4809 308.461 93.3132 307.99 94.0217C307.519 94.7301 306.848 95.2828 306.062 95.6098C305.277 95.9368 304.412 96.0234 303.577 95.8586C302.742 95.6938 301.975 95.285 301.373 94.6841C300.77 94.0831 300.36 93.3169 300.193 92.4826C300.026 91.6482 300.111 90.7831 300.436 89.9968C300.761 89.2105 301.313 88.5383 302.02 88.0654C302.727 87.5924 303.559 87.34 304.41 87.34C305.549 87.34 306.641 87.7917 307.447 88.5959C308.253 89.4001 308.707 90.4913 308.71 91.63Z" fill="#E0E0E0"/>
<path d="M323.38 127.32C323.38 127.32 323.38 127.23 323.38 127.08C323.38 126.93 323.38 126.69 323.38 126.41C323.38 125.79 323.38 124.92 323.38 123.81C323.38 121.51 323.38 118.2 323.32 113.99C323.32 105.55 323.25 93.53 323.2 79.1L323.44 79.34H272.98C272.91 79.4 273.51 78.81 273.26 79.07V85.6C273.26 87.76 273.26 89.91 273.26 92.03V104.48C273.26 112.58 273.26 120.23 273.26 127.27L273.01 127.02L309.5 127.14L319.79 127.21H322.52H323.23H323.48H323.26H322.58H319.9L309.66 127.28L273.01 127.4H272.76V127.15C272.76 120.15 272.76 112.46 272.76 104.36C272.76 100.313 272.76 96.1633 272.76 91.91V78.91C272.5 79.16 273.1 78.55 273.05 78.61H323.51H323.76V78.86C323.71 93.35 323.67 105.43 323.64 113.91C323.64 118.09 323.59 121.39 323.58 123.67C323.58 124.76 323.58 125.67 323.58 126.22C323.58 126.49 323.58 126.7 323.58 126.87C323.573 127.04 323.501 127.201 323.38 127.32Z" fill="#455A64"/>
<path d="M421.16 152.55H378.89V193.45H421.16V152.55Z" fill="#724FFF"/>
<path d="M382.17 189.95L393.86 168.91L403.43 182.36L409.24 175.21L417.88 189.95H382.17Z" fill="#E0E0E0"/>
<path d="M407.5 164.81C407.5 165.403 407.324 165.983 406.994 166.477C406.665 166.97 406.196 167.355 405.648 167.582C405.1 167.809 404.497 167.868 403.915 167.752C403.333 167.637 402.798 167.351 402.379 166.931C401.959 166.512 401.673 165.977 401.558 165.395C401.442 164.813 401.501 164.21 401.728 163.662C401.955 163.114 402.34 162.645 402.833 162.316C403.327 161.986 403.907 161.81 404.5 161.81C405.296 161.81 406.059 162.126 406.621 162.689C407.184 163.251 407.5 164.014 407.5 164.81Z" fill="#E0E0E0"/>
<path d="M417.88 190.06C417.88 190.06 417.88 190 417.88 189.9C417.88 189.8 417.88 189.62 417.88 189.42C417.88 188.98 417.88 188.42 417.88 187.58C417.88 185.96 417.88 183.58 417.88 180.58C417.88 174.58 417.83 166.1 417.79 155.89L417.96 156.06H382.25C382.2 156.06 382.63 155.68 382.45 155.87V165.05C382.45 168.05 382.45 170.987 382.45 173.86C382.45 179.59 382.45 185 382.45 189.98L382.28 189.81L408 190H415.28H417.22H417.89C417.89 190 417.84 190 417.74 190H417.26H415.36L408.11 190.05L382.18 190.14H382V189.96C382 184.96 382 179.57 382 173.84V156C381.82 156.17 382.25 155.74 382.21 155.79H417.92H418.1V155.96C418.1 166.22 418.03 174.76 418.01 180.76C418.01 183.76 418.01 186.06 417.96 187.67C417.96 188.45 417.96 189.05 417.96 189.48C417.96 189.67 417.96 189.82 417.96 189.94C417.96 190.06 417.89 190.07 417.88 190.06Z" fill="#455A64"/>
<path d="M451.59 232.55H167.14C159.093 232.55 152.57 239.073 152.57 247.12V425.35C152.57 433.397 159.093 439.92 167.14 439.92H451.59C459.637 439.92 466.16 433.397 466.16 425.35V247.12C466.16 239.073 459.637 232.55 451.59 232.55Z" fill="#263238"/>
<path d="M139.46 424.59H479.21V424.94C479.21 429.661 477.335 434.188 473.996 437.526C470.658 440.865 466.131 442.74 461.41 442.74H157.26C152.539 442.74 148.012 440.865 144.673 437.526C141.335 434.188 139.46 429.661 139.46 424.94V424.59Z" fill="#263238"/>
<path d="M456.87 240.79H160.99V415.91H456.87V240.79Z" fill="#E0E0E0"/>
<path d="M278.45 424.59L282.67 431.3H341.99L345.91 424.59H278.45Z" fill="#455A64"/>
<path d="M443.27 252.46H170.86V415.85H443.27V252.46Z" fill="#FAFAFA"/>
<path d="M182.49 260.51C182.492 260.963 182.359 261.407 182.109 261.785C181.858 262.163 181.501 262.458 181.083 262.633C180.665 262.808 180.204 262.854 179.759 262.767C179.314 262.68 178.905 262.463 178.584 262.143C178.263 261.823 178.044 261.415 177.955 260.97C177.865 260.526 177.91 260.065 178.083 259.646C178.256 259.227 178.55 258.869 178.927 258.617C179.303 258.365 179.747 258.23 180.2 258.23C180.806 258.23 181.386 258.47 181.816 258.897C182.245 259.324 182.487 259.904 182.49 260.51Z" fill="#455A64"/>
<path d="M191.81 260.51C191.812 260.964 191.679 261.408 191.428 261.786C191.177 262.164 190.82 262.459 190.401 262.634C189.982 262.808 189.521 262.854 189.076 262.766C188.631 262.678 188.222 262.46 187.901 262.139C187.58 261.818 187.362 261.409 187.273 260.964C187.185 260.519 187.232 260.058 187.406 259.639C187.581 259.22 187.876 258.863 188.254 258.612C188.632 258.361 189.076 258.228 189.53 258.23C190.135 258.23 190.715 258.47 191.142 258.898C191.57 259.325 191.81 259.905 191.81 260.51Z" fill="#455A64"/>
<path d="M201.14 260.51C201.142 260.963 201.009 261.407 200.759 261.785C200.509 262.163 200.152 262.458 199.733 262.633C199.315 262.808 198.854 262.854 198.409 262.767C197.965 262.68 197.556 262.463 197.234 262.143C196.913 261.823 196.694 261.415 196.605 260.97C196.516 260.526 196.56 260.065 196.733 259.646C196.906 259.227 197.2 258.869 197.577 258.617C197.954 258.365 198.397 258.23 198.85 258.23C199.15 258.229 199.448 258.287 199.726 258.401C200.003 258.515 200.256 258.682 200.469 258.894C200.681 259.106 200.85 259.358 200.966 259.635C201.081 259.912 201.14 260.21 201.14 260.51Z" fill="#455A64"/>
<path d="M443.27 270.51C443.27 270.66 382.27 270.77 307.07 270.77C231.87 270.77 170.86 270.66 170.86 270.51C170.86 270.36 231.86 270.25 307.07 270.25C382.28 270.25 443.27 270.37 443.27 270.51Z" fill="#455A64"/>
<path d="M466.16 424.73H152.57V425.73H466.16V424.73Z" fill="#455A64"/>
<path d="M252.77 349.9H193.19V353.89H252.77V349.9Z" fill="#455A64"/>
<path d="M329.73 294.56H270.15V298.55H329.73V294.56Z" fill="#455A64"/>
<path d="M418.35 309.41C418.35 309.55 385.17 309.67 344.25 309.67C303.33 309.67 270.15 309.55 270.15 309.41C270.15 309.27 303.32 309.14 344.25 309.14C385.18 309.14 418.35 309.26 418.35 309.41Z" fill="#455A64"/>
<path d="M418.35 318.11C418.35 318.25 385.17 318.37 344.25 318.37C303.33 318.37 270.15 318.25 270.15 318.11C270.15 317.97 303.32 317.85 344.25 317.85C385.18 317.85 418.35 318 418.35 318.11Z" fill="#455A64"/>
<path d="M418.35 326.81C418.35 326.96 385.17 327.07 344.25 327.07C303.33 327.07 270.15 326.96 270.15 326.81C270.15 326.66 303.32 326.55 344.25 326.55C385.18 326.55 418.35 326.67 418.35 326.81Z" fill="#455A64"/>
<path d="M418.35 335.52C418.35 335.66 385.17 335.78 344.25 335.78C303.33 335.78 270.15 335.66 270.15 335.52C270.15 335.38 303.32 335.25 344.25 335.25C385.18 335.25 418.35 335.37 418.35 335.52Z" fill="#455A64"/>
<path d="M418.35 344.22C418.35 344.36 385.17 344.48 344.25 344.48C303.33 344.48 270.15 344.36 270.15 344.22C270.15 344.08 303.32 343.96 344.25 343.96C385.18 343.96 418.35 344.07 418.35 344.22Z" fill="#455A64"/>
<path d="M328 352.92C328 353.06 315.05 353.18 299.08 353.18C283.11 353.18 270.15 353.06 270.15 352.92C270.15 352.78 283.15 352.66 299.08 352.66C315.01 352.66 328 352.78 328 352.92Z" fill="#455A64"/>
<path d="M417.26 369.81C417.26 369.96 395.45 370.07 368.56 370.07C341.67 370.07 319.86 369.96 319.86 369.81C319.86 369.66 341.66 369.55 368.56 369.55C395.46 369.55 417.26 369.67 417.26 369.81Z" fill="#455A64"/>
<path d="M417.26 379.05C417.26 379.19 395.45 379.31 368.56 379.31C341.67 379.31 319.86 379.19 319.86 379.05C319.86 378.91 341.66 378.79 368.56 378.79C395.46 378.79 417.26 378.91 417.26 379.05Z" fill="#455A64"/>
<path d="M417.26 388.29C417.26 388.43 395.45 388.55 368.56 388.55C341.67 388.55 319.86 388.43 319.86 388.29C319.86 388.15 341.66 388.03 368.56 388.03C395.46 388.03 417.26 388.14 417.26 388.29Z" fill="#455A64"/>
<path d="M417.26 397.53C417.26 397.67 395.45 397.79 368.56 397.79C341.67 397.79 319.86 397.67 319.86 397.53C319.86 397.39 341.66 397.27 368.56 397.27C395.46 397.27 417.26 397.38 417.26 397.53Z" fill="#455A64"/>
<path d="M252.92 368.93C252.92 369.07 239.92 369.19 223.92 369.19C207.92 369.19 194.92 369.07 194.92 368.93C194.92 368.79 207.92 368.67 223.92 368.67C239.92 368.67 252.92 368.78 252.92 368.93Z" fill="#455A64"/>
<path d="M252.92 376.18C252.92 376.33 239.92 376.44 223.92 376.44C207.92 376.44 194.92 376.33 194.92 376.18C194.92 376.03 207.92 375.92 223.92 375.92C239.92 375.92 252.92 376 252.92 376.18Z" fill="#455A64"/>
<path d="M252.92 383.44C252.92 383.58 239.92 383.7 223.92 383.7C207.92 383.7 194.92 383.58 194.92 383.44C194.92 383.3 207.92 383.18 223.92 383.18C239.92 383.18 252.92 383.3 252.92 383.44Z" fill="#455A64"/>
<path d="M252.92 390.69C252.92 390.84 239.92 390.95 223.92 390.95C207.92 390.95 194.92 390.84 194.92 390.69C194.92 390.54 207.92 390.43 223.92 390.43C239.92 390.43 252.92 390.55 252.92 390.69Z" fill="#455A64"/>
<path d="M252.92 398C252.92 398.14 239.92 398.26 223.92 398.26C207.92 398.26 194.92 398.14 194.92 398C194.92 397.86 207.92 397.74 223.92 397.74C239.92 397.74 252.92 397.81 252.92 398Z" fill="#455A64"/>
<path d="M252.92 281.54H193.19V339.33H252.92V281.54Z" fill="#E0E0E0"/>
<path d="M197.82 334.38L214.35 304.64L227.86 323.65L236.08 313.56L248.29 334.38H197.82Z" fill="#724FFF"/>
<path d="M233.62 298.86C233.62 299.71 233.368 300.542 232.895 301.249C232.423 301.956 231.751 302.507 230.966 302.833C230.18 303.158 229.315 303.243 228.481 303.077C227.647 302.911 226.881 302.502 226.279 301.901C225.678 301.299 225.269 300.533 225.103 299.699C224.937 298.865 225.022 298 225.347 297.214C225.673 296.429 226.224 295.757 226.931 295.285C227.638 294.812 228.47 294.56 229.32 294.56C230.46 294.56 231.554 295.013 232.361 295.819C233.167 296.626 233.62 297.72 233.62 298.86Z" fill="#724FFF"/>
<path d="M248.29 334.54C248.286 334.463 248.286 334.386 248.29 334.31C248.29 334.13 248.29 333.91 248.29 333.63C248.29 333.02 248.29 332.15 248.29 331.03C248.29 328.74 248.29 325.43 248.22 321.22C248.22 312.78 248.15 300.76 248.1 286.32L248.34 286.57H197.88C197.81 286.63 198.41 286.03 198.16 286.29V299.29C198.16 303.53 198.16 307.69 198.16 311.74C198.16 319.83 198.16 327.48 198.16 334.52L197.91 334.28L234.4 334.4L244.7 334.47H247.43H248.38C248.38 334.47 248.31 334.47 248.16 334.47H247.48H244.8L234.56 334.54L197.91 334.66H197.67V334.41C197.67 327.41 197.67 319.72 197.67 311.63C197.67 307.58 197.67 303.42 197.67 299.18V286.18L197.96 285.89H248.42H248.67V286.13C248.67 300.63 248.57 312.7 248.54 321.18C248.54 325.37 248.54 328.66 248.48 330.94C248.48 332.04 248.48 332.89 248.48 333.5C248.48 333.77 248.48 333.98 248.48 334.14C248.48 334.3 248.3 334.55 248.29 334.54Z" fill="#455A64"/>
<path d="M312.38 365.4H270.11V406.3H312.38V365.4Z" fill="#E0E0E0"/>
<path d="M273.39 402.8L285.08 381.76L294.65 395.21L300.46 388.06L309.11 402.8H273.39Z" fill="#724FFF"/>
<path d="M298.72 377.66C298.72 378.253 298.544 378.833 298.214 379.327C297.885 379.82 297.416 380.205 296.868 380.432C296.32 380.659 295.717 380.718 295.135 380.602C294.553 380.487 294.018 380.201 293.599 379.781C293.179 379.362 292.893 378.827 292.778 378.245C292.662 377.663 292.721 377.06 292.948 376.512C293.175 375.964 293.56 375.495 294.053 375.166C294.547 374.836 295.127 374.66 295.72 374.66C296.516 374.66 297.279 374.976 297.841 375.539C298.404 376.101 298.72 376.864 298.72 377.66Z" fill="#724FFF"/>
<path d="M309.11 402.92C309.106 402.863 309.106 402.807 309.11 402.75C309.11 402.63 309.11 402.47 309.11 402.27C309.11 401.84 309.11 401.27 309.11 400.43C309.11 398.81 309.11 396.43 309.06 393.48C309.06 387.48 309.06 379 308.98 368.79L309.15 368.96H273.43C273.43 368.96 273.81 368.58 273.63 368.77V386.77C273.63 392.5 273.63 397.91 273.63 402.9L273.45 402.72L299.28 402.81L306.56 402.86H308.49H306.59H299.35L273.41 402.95H273.24V402.78C273.24 397.78 273.24 392.38 273.24 386.65C273.24 383.79 273.24 380.84 273.24 377.84V368.68C273.06 368.85 273.48 368.42 273.44 368.47H309.16H309.33V368.64C309.33 378.9 309.26 387.44 309.24 393.45C309.24 396.45 309.24 398.74 309.24 400.35C309.24 401.13 309.24 401.73 309.24 402.16C309.24 402.35 309.24 402.5 309.24 402.62C309.216 402.727 309.172 402.829 309.11 402.92Z" fill="#455A64"/>
<path d="M665.35 425L655.35 423.81L653 442.55L667.63 444.44L667.85 443.29C668.79 438.15 672.24 417.11 671.62 413.52C670.93 409.52 665.35 425 665.35 425Z" fill="#724FFF"/>
<path d="M670.75 412.18C670.93 412.18 670.24 419.24 669.21 427.89C668.18 436.54 667.21 443.54 667.03 443.52C666.85 443.5 667.55 436.52 668.57 427.81C669.59 419.1 670.57 412.16 670.75 412.18Z" fill="#263238"/>
<path d="M667.43 424.12C667.33 424.26 666.81 424.06 666.33 423.6C665.85 423.14 665.65 422.6 665.79 422.51C665.93 422.42 666.35 422.71 666.79 423.14C667.23 423.57 667.54 424 667.43 424.12Z" fill="#263238"/>
<path d="M668.23 423C668.15 423.16 667.56 423 666.98 422.56C666.4 422.12 666.08 421.56 666.21 421.46C666.34 421.36 666.83 421.63 667.37 422.04C667.91 422.45 668.32 422.84 668.23 423Z" fill="#263238"/>
<path d="M667.64 437.86C667.64 437.94 667.39 438.19 666.89 438.55C666.255 438.983 665.662 439.475 665.12 440.02C664.608 440.562 664.237 441.221 664.04 441.94C663.9 442.5 663.94 442.87 663.84 442.89C663.74 442.91 663.56 442.54 663.59 441.89C663.66 441.037 664.012 440.232 664.59 439.6C665.162 439.003 665.84 438.518 666.59 438.17C667.22 437.89 667.59 437.78 667.64 437.86Z" fill="#263238"/>
<path d="M665.56 423.84C665.72 423.77 666.04 424.14 666.16 424.69C666.28 425.24 666.16 425.69 665.98 425.69C665.8 425.69 665.64 425.29 665.53 424.8C665.42 424.31 665.39 423.91 665.56 423.84Z" fill="#263238"/>
<path d="M664.56 424C664.73 424 664.82 424.52 664.76 425.16C664.7 425.8 664.49 426.28 664.32 426.24C664.15 426.2 664.05 425.69 664.12 425.09C664.19 424.49 664.38 424 664.56 424Z" fill="#263238"/>
<path d="M659.25 444.04L603.82 438.421L488.88 440.99L519.44 416.35L596.15 412.671L663.22 421.91L659.25 444.04Z" fill="#263238"/>
<path d="M565.56 428.65C565.56 428.8 554.77 428.91 541.46 428.91C528.15 428.91 517.37 428.8 517.37 428.65C517.37 428.5 528.15 428.39 541.46 428.39C554.77 428.39 565.56 428.51 565.56 428.65Z" fill="#455A64"/>
<path d="M560.2 414.39L564.14 439.18H571.7L565.95 414.12L560.2 414.39Z" fill="black"/>
<path d="M589.46 439.51L588.34 429.51L569.55 431.51L571 446.15H572.17C577.39 445.89 598.66 444.47 602.01 443.05C605.79 441.42 589.46 439.51 589.46 439.51Z" fill="#724FFF"/>
<path d="M602.4 442C602.4 442.18 595.4 443.11 586.75 444.08C578.1 445.05 571.06 445.69 571.04 445.51C571.02 445.33 578.04 444.41 586.68 443.44C595.32 442.47 602.38 441.86 602.4 442Z" fill="#263238"/>
<path d="M590 441.52C589.83 441.45 589.91 440.9 590.25 440.33C590.59 439.76 591.06 439.44 591.19 439.55C591.32 439.66 591.12 440.14 590.81 440.66C590.5 441.18 590.18 441.59 590 441.52Z" fill="#263238"/>
<path d="M591.29 442C591.12 442 591.14 441.35 591.44 440.68C591.74 440.01 592.18 439.59 592.33 439.68C592.48 439.77 592.33 440.31 592.03 440.93C591.73 441.55 591.46 442.09 591.29 442Z" fill="#263238"/>
<path d="M576.68 444.84C576.62 444.9 576.3 444.67 575.84 444.27C575.275 443.751 574.662 443.286 574.01 442.88C573.365 442.505 572.636 442.295 571.89 442.27C571.32 442.27 570.96 442.38 570.89 442.27C570.82 442.16 571.16 441.92 571.82 441.8C572.68 441.679 573.555 441.855 574.3 442.3C575.011 442.727 575.635 443.283 576.14 443.94C576.56 444.45 576.75 444.78 576.68 444.84Z" fill="#263238"/>
<path d="M589.86 439.63C589.97 439.77 589.68 440.16 589.17 440.41C588.66 440.66 588.17 440.64 588.17 440.47C588.17 440.3 588.48 440.05 588.93 439.83C589.38 439.61 589.76 439.48 589.86 439.63Z" fill="#263238"/>
<path d="M589.46 438.69C589.46 438.87 589.01 439.07 588.38 439.15C587.75 439.23 587.23 439.15 587.22 438.97C587.21 438.79 587.7 438.59 588.3 438.51C588.9 438.43 589.42 438.52 589.46 438.69Z" fill="#263238"/>
<path d="M479.52 325.12L495.52 324.83C495.74 322.98 496.05 315.77 496.05 315.77C496.05 315.77 502.75 315.14 503.24 308.52C503.73 301.9 503.52 286.58 503.52 286.58C499.848 284.727 495.748 283.887 491.644 284.147C487.539 284.407 483.578 285.758 480.17 288.06L479.17 288.76L479.52 325.12Z" fill="#B78876"/>
<path d="M501.31 297.89C501.136 297.705 501.039 297.46 501.039 297.205C501.039 296.95 501.136 296.705 501.31 296.52C501.447 296.374 501.625 296.273 501.821 296.229C502.016 296.185 502.221 296.202 502.407 296.275C502.593 296.349 502.753 296.477 502.866 296.643C502.978 296.809 503.039 297.005 503.039 297.205C503.039 297.405 502.978 297.601 502.866 297.767C502.753 297.933 502.593 298.061 502.407 298.135C502.221 298.209 502.016 298.225 501.821 298.181C501.625 298.137 501.447 298.036 501.31 297.89Z" fill="#263238"/>
<path d="M503 296.47C502.89 296.58 502.27 296.04 501.36 295.98C500.45 295.92 499.75 296.35 499.66 296.23C499.57 296.11 499.73 295.97 500.03 295.77C500.439 295.513 500.919 295.394 501.4 295.43C501.88 295.46 502.336 295.646 502.7 295.96C503 296.21 503.07 296.42 503 296.47Z" fill="#263238"/>
<path d="M492.44 296.62C492.583 296.789 492.666 297.001 492.675 297.223C492.685 297.445 492.62 297.663 492.492 297.844C492.364 298.025 492.179 298.158 491.967 298.222C491.755 298.287 491.527 298.279 491.32 298.2C491.177 298.146 491.049 298.059 490.945 297.948C490.841 297.836 490.764 297.702 490.719 297.556C490.675 297.41 490.665 297.256 490.689 297.105C490.714 296.955 490.772 296.812 490.86 296.687C490.949 296.563 491.064 296.46 491.198 296.387C491.332 296.314 491.481 296.273 491.634 296.267C491.786 296.26 491.938 296.289 492.078 296.35C492.218 296.411 492.341 296.503 492.44 296.62Z" fill="#263238"/>
<path d="M493 296.66C492.89 296.77 492.27 296.23 491.35 296.17C490.43 296.11 489.75 296.54 489.65 296.42C489.55 296.3 489.72 296.16 490.03 295.96C490.438 295.703 490.917 295.584 491.398 295.62C491.879 295.656 492.335 295.845 492.7 296.16C493 296.4 493.09 296.62 493 296.66Z" fill="#263238"/>
<path d="M496.24 304.43C496.72 304.272 497.224 304.198 497.73 304.21C497.97 304.21 498.17 304.15 498.19 304.03C498.214 303.789 498.169 303.546 498.06 303.33L497.45 301.43C496.863 299.81 496.441 298.135 496.19 296.43C496.941 297.975 497.531 299.594 497.95 301.26C498.15 301.92 498.33 302.55 498.52 303.17C498.656 303.486 498.681 303.838 498.59 304.17C498.549 304.259 498.488 304.338 498.411 304.401C498.335 304.463 498.246 304.507 498.15 304.53C498.014 304.549 497.876 304.549 497.74 304.53C497.238 304.58 496.731 304.546 496.24 304.43Z" fill="#263238"/>
<path d="M493.21 305.26C492.29 304.63 495.74 306.81 497.61 306.83C497.269 307.291 496.783 307.624 496.229 307.775C495.676 307.925 495.088 307.885 494.56 307.66C492.62 306.81 493.21 305.26 493.21 305.26Z" fill="white"/>
<path d="M496.09 315.67C493.022 315.535 490.063 314.491 487.59 312.67C487.59 312.67 489.34 317.57 496 317.38L496.09 315.67Z" fill="#A36957"/>
<path d="M504 284.19C504.38 284.177 504.753 284.078 505.088 283.899C505.424 283.72 505.715 283.466 505.937 283.158C506.16 282.849 506.309 282.493 506.372 282.118C506.436 281.743 506.413 281.358 506.305 280.993C506.196 280.629 506.006 280.293 505.748 280.014C505.49 279.734 505.172 279.517 504.817 279.379C504.462 279.242 504.08 279.188 503.701 279.221C503.322 279.254 502.956 279.373 502.63 279.57C503.424 278.916 504.072 278.102 504.53 277.18C504.75 276.717 504.823 276.197 504.739 275.691C504.655 275.185 504.418 274.717 504.06 274.35C503.643 274.063 503.155 273.895 502.65 273.863C502.144 273.832 501.64 273.938 501.19 274.17C499.78 274.78 498.67 275.97 497.19 276.47C495.71 276.97 494.13 276.72 492.58 276.79C490.853 276.823 489.18 277.4 487.8 278.44C487.121 278.965 486.575 279.642 486.205 280.417C485.835 281.191 485.652 282.042 485.67 282.9C483.5 282.64 481.1 282.61 479.39 283.96C478.702 284.572 478.158 285.329 477.797 286.176C477.435 287.023 477.266 287.94 477.3 288.86C477.467 290.698 477.905 292.501 478.6 294.21C478.721 294.711 478.946 295.181 479.26 295.59L480.07 300.35L483.02 300.29L482.83 290.39C482.83 290.39 482.53 286.21 486.13 286.58C489.73 286.95 494.6 291 501.59 289.97C502.733 289.91 503.847 289.592 504.85 289.04C505.336 288.734 505.731 288.304 505.995 287.794C506.259 287.284 506.381 286.713 506.35 286.14C506.289 285.573 506.01 285.052 505.571 284.688C505.132 284.324 504.568 284.145 504 284.19Z" fill="#263238"/>
<path d="M480.44 294.64C480.29 294.59 475.51 293.97 475.96 299.64C476.41 305.31 481.96 302.96 481.96 302.8C481.96 302.64 480.44 294.64 480.44 294.64Z" fill="#B78876"/>
<path d="M480.08 300.93C480.08 300.93 479.98 301 479.82 301.09C479.596 301.208 479.335 301.237 479.09 301.17C478.708 300.967 478.387 300.667 478.158 300.3C477.93 299.933 477.803 299.512 477.79 299.08C477.733 298.597 477.788 298.108 477.95 297.65C477.988 297.468 478.07 297.299 478.188 297.156C478.307 297.013 478.458 296.901 478.63 296.83C478.741 296.792 478.862 296.794 478.972 296.836C479.081 296.878 479.173 296.957 479.23 297.06C479.32 297.21 479.29 297.32 479.32 297.33C479.35 297.34 479.44 297.23 479.37 297C479.331 296.86 479.242 296.739 479.12 296.66C479.04 296.607 478.949 296.572 478.855 296.554C478.761 296.537 478.664 296.539 478.57 296.56C478.33 296.625 478.112 296.751 477.937 296.927C477.761 297.102 477.635 297.32 477.57 297.56C477.365 298.067 477.293 298.617 477.36 299.16C477.371 299.663 477.53 300.152 477.819 300.565C478.107 300.978 478.511 301.296 478.98 301.48C479.135 301.513 479.296 301.51 479.45 301.472C479.604 301.434 479.748 301.362 479.87 301.26C480.08 301.06 480.1 300.94 480.08 300.93Z" fill="#A36957"/>
<path d="M466.54 424C469.54 428.47 487.73 455.85 509.45 435.94C537.12 410.6 559 388.4 559 388.4L567.22 438.55L592.98 437.15C592.98 437.15 582.98 362.48 576.6 355.69C569.51 348.11 562.99 348.75 507.31 392.69L466.54 424Z" fill="#455A64"/>
<path d="M558.68 338.96L582.74 321.4L583.92 323.29L560.02 341.06L558.68 338.96Z" fill="#263238"/>
<path d="M564.63 338.42C564.63 338.42 567.85 330.02 568.63 328.23C569.41 326.44 570.58 323.32 571.04 323.23C571.5 323.14 573.18 323.43 571.04 328.77C568.9 334.11 573.64 330.85 573.64 330.85L578.27 327.53C578.27 327.53 581.93 338.47 579.85 341.77C578.215 344.234 576.378 346.559 574.36 348.72L564.63 338.42Z" fill="#B78876"/>
<path d="M564.9 337.44C564.42 336.35 533.82 363.37 527.73 364.29L509.89 341.06C509.89 341.06 506.19 335.18 498.24 325.12C493.1 318.63 478.94 319.98 475.24 327.89C468.92 341.33 468.84 356.27 465.47 385.34L464 405C463.683 409.184 463.747 413.388 464.19 417.56C464.73 422.43 465.83 427.56 468.09 426.83L508.9 393.1L510.21 377.78C518.79 386.48 521.46 388.3 525.92 387.6C537.15 385.86 576.46 350.51 576.46 350.51C576.46 350.51 565.37 338.54 564.9 337.44Z" fill="#724FFF"/>
<path d="M571.19 355.42C570.393 354.941 569.658 354.367 569 353.71C567.328 352.217 565.76 350.61 564.31 348.9C562.85 347.197 561.513 345.393 560.31 343.5C559.774 342.737 559.322 341.919 558.96 341.06C559.566 341.76 560.117 342.506 560.61 343.29C561.61 344.68 563.01 346.58 564.7 348.56C566.39 350.54 568.03 352.24 569.25 353.44C569.942 354.054 570.591 354.715 571.19 355.42Z" fill="#263238"/>
<path d="M526 373.5C526.016 371.934 526.204 370.375 526.56 368.85C526.756 367.296 527.118 365.767 527.64 364.29C527.624 365.856 527.437 367.415 527.08 368.94C526.886 370.495 526.523 372.024 526 373.5Z" fill="#263238"/>
<path d="M529.9 372.54C529.282 371.268 528.825 369.925 528.54 368.54C528.098 367.201 527.813 365.815 527.69 364.41C528.308 365.682 528.765 367.025 529.05 368.41C529.49 369.75 529.775 371.135 529.9 372.54Z" fill="#263238"/>
<path d="M485.72 345.14C486.086 345.544 486.42 345.975 486.72 346.43L489.38 350.05C491.63 353.1 494.77 357.3 498.28 361.89L507.33 373.63L510.06 377.2C510.429 377.622 510.764 378.074 511.06 378.55C510.659 378.169 510.288 377.758 509.95 377.32C509.26 376.51 508.29 375.32 507.09 373.86C504.7 370.91 501.43 366.81 497.92 362.21C494.41 357.61 491.31 353.37 489.14 350.26C488.05 348.71 487.14 347.44 486.6 346.55C486.269 346.104 485.975 345.633 485.72 345.14Z" fill="#263238"/>
<path d="M480.5 364.9C479.442 364.301 478.476 363.553 477.63 362.68C476.669 361.928 475.817 361.047 475.1 360.06C476.163 360.659 477.134 361.41 477.98 362.29C478.943 363.032 479.792 363.911 480.5 364.9Z" fill="#263238"/>
<path d="M477 376.17C475.957 378.331 474.61 380.331 473 382.11C473.44 380.988 474.043 379.936 474.79 378.99C475.388 377.949 476.132 377 477 376.17Z" fill="#263238"/>
<path d="M481.92 391.72C481.81 391.81 480.92 390.91 479.92 389.72C479.246 389.042 478.698 388.25 478.3 387.38C478.41 387.29 479.3 388.19 480.3 389.38C480.976 390.057 481.524 390.849 481.92 391.72Z" fill="#263238"/>
<path d="M472.4 401.69C471.769 402.429 471.01 403.049 470.16 403.52C469.405 404.132 468.549 404.606 467.63 404.92C468.261 404.181 469.02 403.561 469.87 403.09C470.624 402.478 471.481 402.004 472.4 401.69Z" fill="#263238"/>
<path d="M485.71 404.33C484.65 403.868 483.732 403.133 483.05 402.2C482.238 401.365 481.662 400.33 481.38 399.2C481.52 399.13 482.25 400.45 483.44 401.84C484.63 403.23 485.8 404.2 485.71 404.33Z" fill="#263238"/>
<path d="M498.12 394.91C497.389 395.866 496.527 396.714 495.56 397.43C494.699 398.271 493.722 398.985 492.66 399.55C493.39 398.594 494.252 397.745 495.22 397.03C496.079 396.187 497.056 395.473 498.12 394.91Z" fill="#263238"/>
<path d="M472.58 413.1C470.871 412.316 469.514 410.927 468.77 409.2C468.89 409.12 469.64 410.08 470.69 411.14C471.74 412.2 472.67 413 472.58 413.1Z" fill="#263238"/>
<path d="M500.33 386C498.612 386.983 496.631 387.41 494.66 387.22C496.529 386.72 498.421 386.313 500.33 386Z" fill="#263238"/>
<path d="M491.09 375.49C490.883 376.709 490.548 377.902 490.09 379.05C489.764 380.205 489.374 381.34 488.92 382.45H488.81C488.81 382.39 488.87 382.37 488.89 382.37C488.91 382.37 488.89 382.37 488.89 382.48H488.78C488.898 381.28 489.159 380.098 489.56 378.96C489.865 377.724 490.383 376.549 491.09 375.49Z" fill="#263238"/>
<path d="M495 368.82C493.914 368.367 492.903 367.753 492 367C491.008 366.388 490.115 365.629 489.35 364.75C490.415 365.213 491.408 365.826 492.3 366.57C493.307 367.181 494.218 367.939 495 368.82Z" fill="#263238"/>
<path d="M487 354.12C486.698 355.112 486.194 356.032 485.52 356.82C484.979 357.704 484.264 358.469 483.42 359.07C483.868 358.148 484.432 357.288 485.1 356.51C485.622 355.631 486.261 354.827 487 354.12Z" fill="#263238"/>
<path d="M474.82 352.12C474.652 350.996 474.652 349.854 474.82 348.73C474.832 347.596 475.014 346.47 475.36 345.39C475.54 346.51 475.54 347.65 475.36 348.77C475.357 349.908 475.175 351.039 474.82 352.12Z" fill="#263238"/>
<path d="M470.07 374.16C469.799 372.963 469.691 371.736 469.75 370.51C469.648 369.29 469.716 368.062 469.95 366.86C470.337 369.275 470.377 371.733 470.07 374.16Z" fill="#263238"/>
<path d="M469.41 395.3C468.956 394.652 468.652 393.91 468.52 393.13C468.225 392.397 468.088 391.61 468.12 390.82C468.883 392.197 469.324 393.728 469.41 395.3Z" fill="#263238"/>
<path d="M486.25 335.63C485.456 336.541 484.594 337.39 483.67 338.17C482.87 339.077 481.997 339.916 481.06 340.68C481.603 339.575 482.37 338.595 483.31 337.8C484.127 336.878 485.129 336.139 486.25 335.63Z" fill="#263238"/>
<path d="M479.1 333.24C478.884 332.15 478.843 331.033 478.98 329.93C478.94 328.819 479.075 327.709 479.38 326.64C479.591 327.731 479.631 328.847 479.5 329.95C479.535 331.061 479.4 332.17 479.1 333.24Z" fill="#263238"/>
<path d="M496.62 330.86C494.74 329.724 492.924 328.485 491.18 327.15C493.285 327.894 495.159 329.172 496.62 330.86Z" fill="#263238"/>
<path d="M492.81 343.34C492.533 342.195 492.422 341.016 492.48 339.84C492.372 338.667 492.436 337.485 492.67 336.33C493.062 338.644 493.109 341.003 492.81 343.33V343.34Z" fill="#263238"/>
<path d="M503.07 350.64C501.052 350.238 499.05 349.758 497.07 349.2C499.169 349.073 501.258 349.574 503.07 350.64Z" fill="#263238"/>
<path d="M503.77 343.2C503.417 341.253 503.417 339.257 503.77 337.31C504.033 338.266 504.131 339.261 504.06 340.25C504.138 341.243 504.04 342.242 503.77 343.2Z" fill="#263238"/>
<path d="M511.59 355.69C511.271 354.48 511.127 353.231 511.16 351.98C511.023 350.738 511.056 349.483 511.26 348.25C511.709 350.703 511.821 353.207 511.59 355.69Z" fill="#263238"/>
<path d="M505.58 359.91C505.47 360.01 504.66 359.27 503.77 358.27C502.88 357.27 502.24 356.37 502.35 356.27C502.46 356.17 503.27 356.91 504.16 357.92C505.05 358.93 505.69 359.82 505.58 359.91Z" fill="#263238"/>
<path d="M513.18 365.67C512.237 365.991 511.247 366.153 510.25 366.15C509.258 366.323 508.242 366.323 507.25 366.15C508.187 365.818 509.176 365.655 510.17 365.67C511.165 365.484 512.185 365.484 513.18 365.67Z" fill="#263238"/>
<path d="M518.9 368.59C518.477 366.419 518.393 364.196 518.65 362C519.086 364.169 519.17 366.394 518.9 368.59Z" fill="#263238"/>
<path d="M524.54 379.54C523.341 379.769 522.109 379.769 520.91 379.54C519.691 379.492 518.492 379.211 517.38 378.71C518.584 378.705 519.786 378.812 520.97 379.03C522.174 379.082 523.37 379.252 524.54 379.54Z" fill="#263238"/>
<path d="M534.24 374.49C533.827 376.761 533.072 378.956 532 381C532.117 379.855 532.411 378.735 532.87 377.68C533.156 376.551 533.618 375.475 534.24 374.49Z" fill="#263238"/>
<path d="M541.23 365.65C539.151 365.432 537.123 364.868 535.23 363.98C537.307 364.21 539.333 364.774 541.23 365.65Z" fill="#263238"/>
<path d="M546.85 369C546.255 369.87 545.522 370.636 544.68 371.27C543.948 372.028 543.101 372.666 542.17 373.16C542.759 372.283 543.493 371.512 544.34 370.88C545.071 370.124 545.919 369.489 546.85 369Z" fill="#263238"/>
<path d="M549.1 360.73C548.547 359.741 548.206 358.648 548.1 357.52C547.813 356.416 547.765 355.264 547.96 354.14C548.279 355.214 548.496 356.315 548.61 357.43C548.876 358.512 549.04 359.617 549.1 360.73Z" fill="#263238"/>
<path d="M559.8 358.83C557.743 360.883 555.663 362.914 553.56 364.92C555.149 362.441 557.283 360.358 559.8 358.83Z" fill="#263238"/>
<path d="M560.86 355C559.712 354.838 558.596 354.501 557.55 354C556.44 353.674 555.388 353.178 554.43 352.53C555.574 352.696 556.686 353.033 557.73 353.53C558.84 353.863 559.895 354.358 560.86 355Z" fill="#263238"/>
<path d="M559.84 350.89C559.331 350.06 558.976 349.146 558.79 348.19C558.44 347.28 558.254 346.315 558.24 345.34C558.731 346.173 559.07 347.088 559.24 348.04C559.601 348.949 559.804 349.913 559.84 350.89Z" fill="#263238"/>
<path d="M503.86 379.7C503.74 379.79 502.86 378.8 501.98 377.5C501.346 376.762 500.852 375.915 500.52 375C501.273 375.615 501.909 376.361 502.4 377.2C503.025 377.945 503.519 378.79 503.86 379.7Z" fill="#263238"/>
<path d="M580.1 430.08C580.058 429.94 580.031 429.796 580.02 429.65C579.98 429.35 579.92 428.93 579.84 428.39C579.7 427.26 579.48 425.63 579.21 423.55C578.64 419.35 577.83 413.26 576.62 405.77C575.41 398.28 573.8 389.39 571.51 379.63C571.275 378.405 570.875 377.217 570.32 376.1C569.691 374.998 568.88 374.01 567.92 373.18C565.883 371.494 563.279 370.65 560.64 370.82C559.294 370.895 557.978 371.253 556.78 371.87C555.576 372.549 554.429 373.325 553.35 374.19L546.47 379.3C537.21 386.25 528.54 393.06 520.8 399.45C513.06 405.84 506.31 411.82 500.66 416.89C497.8 419.35 494.75 421.32 491.66 421.64C490.243 421.801 488.807 421.626 487.47 421.13C486.357 420.71 485.31 420.135 484.36 419.42C483.059 418.431 481.854 417.323 480.76 416.11L479.91 415.17C479.806 415.066 479.712 414.952 479.63 414.83C479.745 414.917 479.849 415.018 479.94 415.13L480.83 416.04C481.955 417.213 483.176 418.29 484.48 419.26C485.425 419.942 486.458 420.493 487.55 420.9C488.857 421.364 490.253 421.518 491.63 421.35C494.63 421.02 497.63 419.07 500.43 416.61C506.04 411.52 512.77 405.47 520.51 399.08C528.25 392.69 536.9 385.83 546.17 378.88L553.05 373.77C554.155 372.89 555.328 372.101 556.56 371.41C557.82 370.76 559.204 370.385 560.62 370.31C563.388 370.135 566.118 371.026 568.25 372.8C569.26 373.668 570.11 374.707 570.76 375.87C571.333 377.026 571.746 378.253 571.99 379.52C574.26 389.31 575.82 398.22 576.99 405.71C578.16 413.2 578.91 419.31 579.42 423.52C579.65 425.61 579.83 427.24 579.96 428.38C579.96 428.92 580.05 429.38 580.08 429.65C580.1 429.792 580.107 429.936 580.1 430.08Z" fill="#263238"/>
<path d="M591.78 429.52C591.456 429.62 591.119 429.674 590.78 429.68C590.13 429.75 589.19 429.83 588.03 429.91C585.7 430.07 582.49 430.24 578.94 430.39L569.85 430.78L567.09 430.88C566.758 430.919 566.422 430.919 566.09 430.88C566.413 430.774 566.75 430.713 567.09 430.7C567.74 430.62 568.68 430.53 569.84 430.43C572.17 430.24 575.38 430.05 578.93 429.89L588.03 429.56L590.79 429.5C591.12 429.466 591.452 429.473 591.78 429.52Z" fill="#263238"/>
<path d="M566.15 380.58C563.873 384.287 560.906 387.522 557.41 390.11C557.31 389.99 559.41 388.04 561.85 385.41C564.29 382.78 566 380.49 566.15 380.58Z" fill="#263238"/>
<path d="M567.12 383.62C565.772 384.649 564.347 385.575 562.86 386.39C561.461 387.361 559.99 388.224 558.46 388.97C559.697 387.795 561.082 386.787 562.58 385.97C563.986 384.994 565.512 384.204 567.12 383.62Z" fill="#263238"/>
<path d="M651.37 432.1C651.168 432.122 650.963 432.122 650.76 432.1L649 432L642.6 431.39L621.51 429.19C613.27 428.33 605.83 427.37 600.42 427.1C597.72 426.96 595.52 426.97 594.01 427.03L592.27 427.1C592.064 427.126 591.856 427.126 591.65 427.1C591.85 427.051 592.054 427.017 592.26 427C592.65 426.94 593.26 426.89 594 426.82C596.144 426.68 598.293 426.65 600.44 426.73C605.88 426.91 613.33 427.81 621.56 428.67L642.65 431L649.04 431.77L650.77 432C650.974 432.01 651.175 432.043 651.37 432.1Z" fill="#455A64"/>
<path d="M650.1 443.28C649.96 443.28 650.41 438.28 651.1 432.07C651.79 425.86 652.49 420.91 652.63 420.93C652.77 420.95 652.32 425.93 651.63 432.13C650.94 438.33 650.24 443.29 650.1 443.28Z" fill="#455A64"/>
</svg>
