<svg width="40" height="40" viewBox="0 0 40 40" fill="none" xmlns="http://www.w3.org/2000/svg">
<g id="Iconsax/Linear/global">
<path id="Vector" d="M20 36.6667C29.205 36.6667 36.6667 29.205 36.6667 20C36.6667 10.795 29.205 3.33337 20 3.33337C10.795 3.33337 3.33337 10.795 3.33337 20C3.33337 29.205 10.795 36.6667 20 36.6667Z" stroke="black" stroke-width="1.5" stroke-linecap="round" stroke-linejoin="round"/>
<path id="Vector_2" d="M13.3333 5H15C11.75 14.7359 11.75 25.2641 15 35H13.3333M25 5C28.2499 14.7359 28.2499 25.2641 25 35" stroke="black" stroke-width="1.5" stroke-linecap="round" stroke-linejoin="round"/>
<path id="Vector_3" d="M5 26.6666V25C14.7359 28.2499 25.2641 28.2499 35 25V26.6666M5 15C14.7359 11.75 25.2641 11.75 35 15" stroke="black" stroke-width="1.5" stroke-linecap="round" stroke-linejoin="round"/>
</g>
</svg>
