<svg width="428" height="321" viewBox="0 0 428 321" fill="none" xmlns="http://www.w3.org/2000/svg">
<path d="M385.115 299.044H356.764V299.261H385.115V299.044Z" fill="#EBEBEB"/>
<path d="M283.524 301.412H276.086V301.629H283.524V301.412Z" fill="#EBEBEB"/>
<path d="M355.908 290.964H339.481V291.182H355.908V290.964Z" fill="#EBEBEB"/>
<path d="M81.8763 292.427H44.9056V292.644H81.8763V292.427Z" fill="#EBEBEB"/>
<path d="M94.9219 292.427H89.5034V292.644H94.9219V292.427Z" fill="#EBEBEB"/>
<path d="M192.728 296.101H112.538V296.318H192.728V296.101Z" fill="#EBEBEB"/>
<path d="M202.872 246.206H37.5955C36.2992 246.206 35.056 245.683 34.1394 244.751C33.2227 243.818 32.7078 242.554 32.7078 241.235V4.92761C32.7191 3.61674 33.239 2.36347 34.1544 1.44059C35.0698 0.517715 36.3066 -5.02564e-05 37.5955 3.65875e-09H202.872C204.168 3.65876e-09 205.412 0.523744 206.328 1.45601C207.245 2.38828 207.76 3.65271 207.76 4.97114V241.235C207.76 242.554 207.245 243.818 206.328 244.751C205.412 245.683 204.168 246.206 202.872 246.206ZM37.5955 0.174121C36.3567 0.176423 35.1692 0.677974 34.2932 1.56893C33.4172 2.45988 32.924 3.66761 32.9218 4.92761V241.235C32.924 242.495 33.4172 243.703 34.2932 244.594C35.1692 245.485 36.3567 245.987 37.5955 245.989H202.872C204.111 245.987 205.298 245.485 206.174 244.594C207.05 243.703 207.543 242.495 207.546 241.235V4.92761C207.543 3.66761 207.05 2.45988 206.174 1.56893C205.298 0.677974 204.111 0.176423 202.872 0.174121H37.5955Z" fill="#EBEBEB"/>
<path d="M388.033 246.206H222.74C221.444 246.204 220.202 245.68 219.286 244.748C218.37 243.816 217.854 242.553 217.852 241.235V4.92761C217.865 3.61745 218.386 2.36549 219.301 1.44311C220.216 0.520715 221.451 0.00221855 222.74 0H388.033C389.319 0.00453105 390.552 0.52432 391.463 1.44671C392.375 2.36909 392.893 3.61975 392.904 4.92761V241.235C392.904 242.551 392.391 243.813 391.478 244.744C390.565 245.676 389.327 246.202 388.033 246.206ZM222.74 0.174121C221.501 0.176423 220.313 0.677974 219.437 1.56893C218.561 2.45988 218.068 3.66761 218.066 4.92761V241.235C218.068 242.495 218.561 243.703 219.437 244.594C220.313 245.485 221.501 245.987 222.74 245.989H388.033C389.272 245.987 390.46 245.485 391.336 244.594C392.212 243.703 392.705 242.495 392.707 241.235V4.92761C392.705 3.66761 392.212 2.45988 391.336 1.56893C390.46 0.677974 389.272 0.176423 388.033 0.174121H222.74Z" fill="#EBEBEB"/>
<path d="M428 285.036H0V285.253H428V285.036Z" fill="#EBEBEB"/>
<path d="M356.738 34.5369H249.918V150.231H356.738V34.5369Z" fill="#EBEBEB"/>
<path d="M350.318 41.0664H256.338V143.702H350.318V41.0664Z" fill="#F5F5F5"/>
<path d="M293.223 143.702H321.471L347.99 41.0664H319.742L293.223 143.702Z" fill="#FAFAFA"/>
<path d="M306.619 41.0664L280.1 143.702H286.948L313.467 41.0664H306.619Z" fill="#FAFAFA"/>
<path d="M358.082 39.978H248.565L246.254 34.4932H360.393L358.082 39.978Z" fill="#F5F5F5"/>
<path d="M358.082 43.1558H248.565L246.254 37.671H360.393L358.082 43.1558Z" fill="#F0F0F0"/>
<path d="M358.082 46.3336H248.565L246.254 40.8488H360.393L358.082 46.3336Z" fill="#E6E6E6"/>
<path d="M358.082 49.5114H248.565L246.254 44.0266H360.393L358.082 49.5114Z" fill="#E0E0E0"/>
<path d="M364.382 27.6245H242.273V34.9375H364.382V27.6245Z" fill="#E0E0E0"/>
<path d="M243.524 101.242C243.194 101.242 242.879 101.109 242.646 100.873C242.413 100.636 242.282 100.315 242.282 99.98V57.3205C242.282 56.9857 242.413 56.6646 242.646 56.4278C242.879 56.1911 243.194 56.0581 243.524 56.0581C243.853 56.0581 244.169 56.1911 244.401 56.4278C244.634 56.6646 244.765 56.9857 244.765 57.3205V99.98C244.765 100.315 244.634 100.636 244.401 100.873C244.169 101.109 243.853 101.242 243.524 101.242Z" fill="#E0E0E0"/>
<path d="M243.969 33.4749H243.07V58.8094H243.969V33.4749Z" fill="#E0E0E0"/>
<path d="M77.4853 32.2991H75.9445V154.506H77.4853V32.2991Z" fill="#E0E0E0"/>
<path d="M173.4 32.2991H171.859V154.506H173.4V32.2991Z" fill="#E0E0E0"/>
<path d="M179.443 39.978H69.9097L67.5985 34.4932H181.746L179.443 39.978Z" fill="#F5F5F5"/>
<path d="M179.443 47.5088H69.9097L67.5985 42.024H181.746L179.443 47.5088Z" fill="#F5F5F5"/>
<path d="M179.443 55.0395H69.9097L67.5985 49.5547H181.746L179.443 55.0395Z" fill="#F5F5F5"/>
<path d="M179.443 62.5704H69.9097L67.5985 57.0856H181.746L179.443 62.5704Z" fill="#F5F5F5"/>
<path d="M179.443 70.1011H69.9097L67.5985 64.6163H181.746L179.443 70.1011Z" fill="#F5F5F5"/>
<path d="M179.443 77.6319H69.9097L67.5985 72.1471H181.746L179.443 77.6319Z" fill="#F5F5F5"/>
<path d="M179.443 85.1622H69.9097L67.5985 79.6774H181.746L179.443 85.1622Z" fill="#F5F5F5"/>
<path d="M179.443 92.6929H69.9097L67.5985 87.2081H181.746L179.443 92.6929Z" fill="#F5F5F5"/>
<path d="M179.443 100.224H69.9097L67.5985 94.7389H181.746L179.443 100.224Z" fill="#F5F5F5"/>
<path d="M179.443 107.755H69.9097L67.5985 102.27H181.746L179.443 107.755Z" fill="#F5F5F5"/>
<path d="M179.443 115.285H69.9097L67.5985 109.8H181.746L179.443 115.285Z" fill="#F5F5F5"/>
<path d="M179.443 122.808H69.9097L67.5985 117.323H181.746L179.443 122.808Z" fill="#F5F5F5"/>
<path d="M179.443 130.346H69.9097L67.5985 124.853H181.746L179.443 130.346Z" fill="#F5F5F5"/>
<path d="M179.443 137.869H69.9097L67.5985 132.384H181.746L179.443 137.869Z" fill="#F5F5F5"/>
<path d="M179.443 145.399H69.9097L67.5985 139.915H181.746L179.443 145.399Z" fill="#F5F5F5"/>
<path d="M179.443 152.93H69.9097L67.5985 147.445H181.746L179.443 152.93Z" fill="#F5F5F5"/>
<path d="M181.746 152.93H67.5985V156.065H181.746V152.93Z" fill="#E0E0E0"/>
<path d="M185.726 27.6245H63.618V34.9375H185.726V27.6245Z" fill="#E0E0E0"/>
<path d="M64.8765 101.242C64.5473 101.242 64.2316 101.109 63.9988 100.873C63.766 100.636 63.6353 100.315 63.6353 99.98V57.3205C63.6353 56.9857 63.766 56.6646 63.9988 56.4278C64.2316 56.1911 64.5473 56.0581 64.8765 56.0581C65.2056 56.0581 65.5214 56.1911 65.7541 56.4278C65.9869 56.6646 66.1177 56.9857 66.1177 57.3205V99.98C66.1177 100.315 65.9869 100.636 65.7541 100.873C65.5214 101.109 65.2056 101.242 64.8765 101.242Z" fill="#E0E0E0"/>
<path d="M65.3214 33.4749H64.4226V58.8094H65.3214V33.4749Z" fill="#E0E0E0"/>
<path d="M76.4579 232.782C76.3552 232.895 76.9287 233.713 74.5833 233.356C68.8053 232.486 58.7473 230.092 55.9482 224.05C51.9506 215.422 64.3455 218.574 63.9175 214.16C63.4895 209.746 49.3655 210.512 47.8846 204.043C46.4038 197.575 55.9567 200.657 56.0851 197.505C56.2135 194.353 45.1882 196.304 42.9969 189.321C40.8055 182.339 49.143 187.484 48.1842 184.577C47.2255 181.669 37.9122 168.549 42.9712 167.025C48.0302 165.502 56.5987 178.97 59.92 180.877C63.2413 182.783 66.1517 171.787 70.0893 176.436C74.0269 181.085 67.7781 197.331 72.7942 200.474C76.535 202.824 75.4821 196.356 80.4126 197.566C87.0809 199.203 84.8296 223.258 76.4579 232.782Z" fill="#EBEBEB"/>
<path d="M58.6273 197.54C60.3274 197.668 62.0045 198.016 63.6178 198.576C62.5481 196.942 61.3608 195.391 60.0654 193.936C59.9958 193.852 59.9599 193.744 59.9648 193.635C59.9697 193.525 60.0151 193.422 60.0919 193.345C60.1687 193.268 60.2712 193.223 60.379 193.22C60.4867 193.216 60.5918 193.254 60.6732 193.326C63.4653 196.511 65.8549 200.038 67.7865 203.826C69.6098 192.691 65.0217 182.931 64.9703 182.862C64.943 182.785 64.9446 182.7 64.9748 182.624C65.0051 182.549 65.0618 182.487 65.1342 182.451C65.2065 182.416 65.2892 182.408 65.3665 182.431C65.4437 182.454 65.5099 182.505 65.5524 182.574C65.6037 182.679 70.4915 193.065 68.2745 204.749C68.8651 205.889 69.4643 207.117 70.0464 208.431C72.1176 213.118 73.754 217.991 74.9341 222.988C77.0721 218.886 78.2442 214.335 78.3581 209.694C78.3593 209.651 78.3685 209.61 78.3855 209.571C78.4024 209.532 78.4267 209.497 78.4569 209.468C78.4871 209.439 78.5227 209.416 78.5616 209.401C78.6004 209.386 78.6418 209.379 78.6834 209.38C78.7261 209.381 78.7682 209.391 78.8073 209.409C78.8463 209.426 78.8815 209.452 78.911 209.483C78.9404 209.515 78.9634 209.552 78.9787 209.592C78.994 209.633 79.0013 209.676 79.0001 209.72C78.8974 214.696 77.5827 219.569 75.1738 223.902C77.3581 233.734 78.088 243.843 77.3395 253.894C77.3362 253.951 77.3219 254.007 77.2973 254.059C77.2727 254.11 77.2383 254.156 77.1962 254.194C77.154 254.232 77.1049 254.262 77.0517 254.28C76.9984 254.299 76.942 254.307 76.8858 254.303H76.8345C76.7309 254.284 76.6381 254.226 76.5747 254.141C76.5113 254.055 76.4818 253.948 76.4921 253.842C77.5449 238.171 75.2509 225.626 72.0665 216.101C70.2995 214.019 67.8811 212.62 65.2185 212.14C65.1361 212.123 65.0629 212.075 65.0137 212.006C64.9645 211.936 64.9429 211.85 64.9532 211.766C64.9584 211.723 64.972 211.682 64.993 211.645C65.0139 211.608 65.042 211.575 65.0755 211.55C65.1089 211.524 65.1472 211.505 65.1879 211.494C65.2286 211.483 65.2711 211.481 65.3127 211.487C67.6477 211.897 69.8139 212.992 71.5444 214.639C69.6945 209.34 67.2472 204.277 64.2513 199.551C62.4459 198.784 60.5283 198.325 58.576 198.193C58.4912 198.186 58.4124 198.146 58.3564 198.081C58.3004 198.016 58.2717 197.931 58.2764 197.845C58.2785 197.801 58.2894 197.758 58.3084 197.718C58.3274 197.679 58.3542 197.644 58.3871 197.615C58.42 197.587 58.4583 197.565 58.4996 197.552C58.5409 197.539 58.5844 197.535 58.6273 197.54Z" fill="#F5F5F5"/>
<path d="M83.8881 236.116C88.6903 236.203 96.8907 231.667 100.152 227.262C103.413 222.857 94.2286 225.521 95.1702 222.039C96.1118 218.556 107.445 221.124 109.534 216.084C111.623 211.043 103.456 212.209 103.782 209.632C104.107 207.055 112.573 207.587 115.286 202.232C118 196.878 110.561 199.882 111.725 197.662C112.889 195.442 122.228 186.109 118.325 184.167C114.422 182.226 105.665 191.942 102.737 193.03C99.8097 194.118 99.1164 187.397 95.2986 190.61C91.4808 193.822 94.3399 207.856 89.8544 209.711C86.5075 211.095 87.9284 204.661 84.0764 206.289C77.2627 209.136 81.9107 236.073 83.8881 236.116Z" fill="#E0E0E0"/>
<g opacity="0.3">
<path opacity="0.3" d="M83.8881 236.116C88.6903 236.203 96.8907 231.667 100.152 227.262C103.413 222.857 94.2286 225.521 95.1702 222.039C96.1118 218.556 107.445 221.124 109.534 216.084C111.623 211.043 103.456 212.209 103.782 209.632C104.107 207.055 112.573 207.587 115.286 202.232C118 196.878 110.561 199.882 111.725 197.662C112.889 195.442 122.228 186.109 118.325 184.167C114.422 182.226 105.665 191.942 102.737 193.03C99.8097 194.118 99.1164 187.397 95.2986 190.61C91.4808 193.822 94.3399 207.856 89.8544 209.711C86.5075 211.095 87.9284 204.661 84.0764 206.289C77.2627 209.136 81.9107 236.073 83.8881 236.116Z" fill="#E0E0E0"/>
</g>
<path d="M85.446 230.257C85.3735 230.23 85.3128 230.178 85.2748 230.109C83.4446 226.023 82.7008 221.52 83.1177 217.05C83.1148 217.003 83.122 216.956 83.1387 216.911C83.1554 216.867 83.1812 216.827 83.2145 216.794C83.2477 216.761 83.2876 216.735 83.3314 216.719C83.3752 216.703 83.4219 216.696 83.4683 216.7C83.5148 216.704 83.5599 216.718 83.6006 216.741C83.6413 216.764 83.6767 216.796 83.7043 216.834C83.7319 216.872 83.7512 216.916 83.7607 216.962C83.7703 217.008 83.7699 217.056 83.7597 217.102C83.4011 221.346 84.0682 225.614 85.7028 229.535C87.6877 224.088 90.1336 218.828 93.0131 213.812C92.1571 203.364 97.4472 194.745 97.4985 194.658C97.5439 194.586 97.6159 194.534 97.6985 194.515C97.7812 194.497 97.8678 194.512 97.9394 194.558C98.0109 194.604 98.0614 194.678 98.0799 194.762C98.0983 194.846 98.0832 194.934 98.0378 195.007C94.9783 200.411 93.4412 206.568 93.5951 212.802C97.0465 206.78 101.165 201.18 105.87 196.112C105.909 196.067 105.956 196.03 106.01 196.005C106.063 195.979 106.121 195.965 106.18 195.963C106.239 195.961 106.297 195.971 106.352 195.994C106.407 196.016 106.457 196.05 106.498 196.092C106.539 196.135 106.572 196.186 106.593 196.242C106.614 196.298 106.623 196.358 106.621 196.418C106.618 196.478 106.603 196.536 106.577 196.59C106.551 196.644 106.514 196.692 106.469 196.73C102.993 200.45 99.856 204.483 97.0962 208.78C99.9879 207.672 103.054 207.111 106.144 207.125C106.229 207.13 106.309 207.168 106.366 207.231C106.424 207.295 106.455 207.379 106.452 207.465C106.45 207.549 106.416 207.629 106.357 207.687C106.297 207.746 106.218 207.778 106.136 207.778C102.814 207.75 99.521 208.404 96.4542 209.702C94.5633 212.655 92.8206 215.703 91.2326 218.835C92.5222 217.925 93.9906 217.31 95.5365 217.034C97.0824 216.757 98.6688 216.825 100.186 217.233C100.269 217.256 100.339 217.31 100.383 217.385C100.426 217.46 100.438 217.549 100.417 217.634C100.407 217.675 100.388 217.714 100.362 217.748C100.336 217.781 100.304 217.81 100.267 217.831C100.231 217.852 100.19 217.865 100.148 217.87C100.107 217.875 100.064 217.872 100.024 217.86C98.3785 217.429 96.6545 217.417 95.0035 217.824C93.3525 218.231 91.8253 219.044 90.5564 220.193C85.0372 231.321 81.8899 243.508 81.3201 255.958C81.3157 256.07 81.2686 256.176 81.1889 256.254C81.1091 256.332 81.0027 256.375 80.8921 256.375C80.7815 256.375 80.6752 256.332 80.5954 256.254C80.5156 256.176 80.4685 256.07 80.4641 255.958C80.8233 247.182 82.5035 238.515 85.446 230.257Z" fill="#F5F5F5"/>
<path d="M70.3547 283.817C65.7751 275.058 62.762 262.4 62.762 256.828C62.7841 254.556 63.2971 252.317 64.2645 250.27C65.2319 248.222 66.6302 246.416 68.3602 244.979H91.8232C93.5532 246.416 94.9514 248.222 95.9188 250.27C96.8863 252.317 97.3992 254.556 97.4214 256.828C97.4214 262.382 94.4083 275.041 89.8287 283.817H70.3547Z" fill="#F0F0F0"/>
<path d="M209.874 321C301.537 321 375.844 316.588 375.844 311.145C375.844 305.702 301.537 301.289 209.874 301.289C118.212 301.289 43.9044 305.702 43.9044 311.145C43.9044 316.588 118.212 321 209.874 321Z" fill="#F5F5F5"/>
<path d="M250.509 56.2759H229.965C229.296 56.2904 228.65 56.5323 228.132 56.9631C227.614 57.3938 227.253 57.9887 227.106 58.6527L226.969 59.3056C226.614 60.9255 225.734 62.3771 224.47 63.4271C223.206 64.4771 221.632 65.0646 220.001 65.0951H200.484C198.936 65.1303 197.437 64.5413 196.315 63.4566C195.192 62.372 194.537 60.8798 194.492 59.3056V58.6527C194.476 58.0076 194.21 57.3952 193.751 56.9497C193.292 56.5042 192.678 56.2619 192.044 56.2759H171.5C168.126 56.337 164.89 57.6535 162.406 59.9764C159.922 62.2994 158.361 65.4677 158.018 68.8823L141.531 260.885C141.357 262.49 141.521 264.115 142.013 265.651C142.504 267.187 143.312 268.598 144.382 269.792C145.452 270.985 146.759 271.934 148.218 272.573C149.676 273.212 151.251 273.528 152.839 273.5H231.822C235.197 273.437 238.432 272.119 240.917 269.794C243.401 267.47 244.962 264.3 245.304 260.885L261.825 68.8823C261.998 67.2768 261.833 65.6524 261.34 64.117C260.847 62.5816 260.039 61.1706 258.968 59.9779C257.897 58.7852 256.589 57.8381 255.131 57.1998C253.672 56.5615 252.096 56.2465 250.509 56.2759Z" fill="#724FFF"/>
<path opacity="0.7" d="M250.509 56.2759H229.965C229.296 56.2904 228.65 56.5323 228.132 56.9631C227.614 57.3938 227.253 57.9887 227.106 58.6527L226.969 59.3056C226.614 60.9255 225.734 62.3771 224.47 63.4271C223.206 64.4771 221.632 65.0646 220.001 65.0951H200.484C198.936 65.1303 197.437 64.5413 196.315 63.4566C195.192 62.372 194.537 60.8798 194.492 59.3056V58.6527C194.476 58.0076 194.21 57.3952 193.751 56.9497C193.292 56.5042 192.678 56.2619 192.044 56.2759H171.5C168.126 56.337 164.89 57.6535 162.406 59.9764C159.922 62.2994 158.361 65.4677 158.018 68.8823L141.531 260.885C141.357 262.49 141.521 264.115 142.013 265.651C142.504 267.187 143.312 268.598 144.382 269.792C145.452 270.985 146.759 271.934 148.218 272.573C149.676 273.212 151.251 273.528 152.839 273.5H231.822C235.197 273.437 238.432 272.119 240.917 269.794C243.401 267.47 244.962 264.3 245.304 260.885L261.825 68.8823C261.998 67.2768 261.833 65.6524 261.34 64.117C260.847 62.5816 260.039 61.1706 258.968 59.9779C257.897 58.7852 256.589 57.8381 255.131 57.1998C253.672 56.5615 252.096 56.2465 250.509 56.2759Z" fill="white"/>
<path d="M242.505 144.59H200.561C200.208 144.596 199.858 144.525 199.534 144.383C199.21 144.241 198.919 144.03 198.681 143.765C198.443 143.5 198.264 143.187 198.154 142.846C198.044 142.505 198.006 142.144 198.044 141.787L201.203 105.056C201.278 104.297 201.625 103.592 202.177 103.075C202.729 102.559 203.449 102.266 204.199 102.253H246.143C246.496 102.246 246.847 102.315 247.171 102.457C247.496 102.599 247.787 102.809 248.025 103.075C248.264 103.34 248.443 103.654 248.553 103.996C248.662 104.337 248.698 104.699 248.659 105.056L245.501 141.787C245.424 142.545 245.076 143.249 244.525 143.765C243.973 144.282 243.254 144.575 242.505 144.59Z" fill="white"/>
<path d="M228.552 259.44H158.36C157.483 259.457 156.613 259.283 155.807 258.93C155.001 258.578 154.278 258.054 153.687 257.395C153.096 256.736 152.649 255.956 152.378 255.108C152.106 254.26 152.015 253.362 152.112 252.475C152.302 250.589 153.164 248.839 154.536 247.556C155.908 246.273 157.695 245.545 159.559 245.51H229.751C230.628 245.494 231.498 245.668 232.304 246.02C233.11 246.373 233.833 246.896 234.424 247.555C235.015 248.214 235.462 248.994 235.733 249.843C236.005 250.691 236.096 251.588 236 252.475C235.811 254.362 234.949 256.113 233.577 257.396C232.204 258.68 230.417 259.407 228.552 259.44Z" fill="white"/>
<path d="M234.142 92.1535H169.745C169.251 92.1686 168.76 92.0749 168.306 91.8789C167.851 91.6828 167.443 91.3891 167.111 91.0177C166.778 90.6464 166.528 90.2063 166.379 89.7276C166.229 89.2489 166.183 88.743 166.244 88.2445L166.766 82.1503C166.874 81.0937 167.359 80.114 168.128 79.3956C168.898 78.6772 169.899 78.2697 170.943 78.25H235.34C235.832 78.241 236.32 78.3384 236.771 78.5358C237.223 78.7332 237.628 79.026 237.96 79.3949C238.292 79.7637 238.543 80.2002 238.696 80.6752C238.85 81.1503 238.902 81.6531 238.85 82.1503L238.319 88.2445C238.213 89.3026 237.729 90.2845 236.959 91.0046C236.19 91.7248 235.187 92.1335 234.142 92.1535Z" fill="white"/>
<path d="M247.239 81.9416C247.21 82.2365 247.075 82.5102 246.86 82.7108C246.646 82.9114 246.366 83.0249 246.075 83.0298C245.938 83.0318 245.802 83.0043 245.677 82.949C245.551 82.8937 245.438 82.8119 245.346 82.7091C245.254 82.6062 245.184 82.4846 245.142 82.3523C245.099 82.22 245.084 82.08 245.099 81.9416C245.128 81.6475 245.264 81.3748 245.478 81.1756C245.693 80.9764 245.973 80.8648 246.263 80.862C246.4 80.8587 246.535 80.8851 246.661 80.9394C246.786 80.9937 246.899 81.0747 246.992 81.1769C247.084 81.2791 247.154 81.4002 247.197 81.5321C247.239 81.6639 247.254 81.8035 247.239 81.9416Z" fill="white"/>
<path d="M246.956 85.1972C246.929 85.4914 246.796 85.765 246.583 85.9658C246.369 86.1666 246.091 86.2804 245.8 86.2855C245.664 86.2875 245.528 86.26 245.402 86.2047C245.277 86.1494 245.164 86.0676 245.072 85.9647C244.979 85.8619 244.91 85.7403 244.867 85.608C244.825 85.4757 244.81 85.3357 244.825 85.1972C244.852 84.9031 244.985 84.6294 245.198 84.4287C245.411 84.2279 245.69 84.1141 245.98 84.109C246.117 84.107 246.253 84.1345 246.378 84.1898C246.504 84.2451 246.617 84.3269 246.709 84.4298C246.801 84.5326 246.871 84.6542 246.913 84.7865C246.956 84.9188 246.971 85.0588 246.956 85.1972Z" fill="white"/>
<path d="M246.682 88.4449C246.653 88.7399 246.518 89.0136 246.304 89.2142C246.089 89.4148 245.81 89.5283 245.518 89.5332C245.381 89.5352 245.246 89.5076 245.12 89.4524C244.994 89.3971 244.882 89.3153 244.79 89.2124C244.697 89.1096 244.628 88.988 244.585 88.8557C244.542 88.7233 244.528 88.5834 244.542 88.4449C244.572 88.15 244.707 87.8763 244.921 87.6757C245.136 87.4751 245.415 87.3616 245.707 87.3567C245.844 87.3547 245.979 87.3822 246.105 87.4375C246.23 87.4928 246.343 87.5746 246.435 87.6774C246.528 87.7803 246.597 87.9019 246.64 88.0342C246.683 88.1665 246.697 88.3065 246.682 88.4449Z" fill="white"/>
<path d="M237.292 205.184H158.942C158.589 205.191 158.238 205.121 157.913 204.98C157.589 204.838 157.298 204.627 157.059 204.362C156.821 204.097 156.641 203.783 156.532 203.441C156.423 203.099 156.386 202.738 156.425 202.381L160.072 160.461C160.147 159.702 160.494 158.997 161.046 158.48C161.598 157.964 162.318 157.671 163.068 157.658H241.392C241.744 157.652 242.094 157.722 242.418 157.865C242.741 158.007 243.032 158.218 243.269 158.483C243.506 158.748 243.685 159.062 243.794 159.403C243.903 159.744 243.939 160.105 243.9 160.461L240.296 202.381C240.221 203.141 239.873 203.847 239.319 204.364C238.765 204.881 238.043 205.173 237.292 205.184Z" fill="white"/>
<path d="M180.497 213.943H156.101C156.015 213.944 155.93 213.928 155.852 213.893C155.773 213.859 155.703 213.808 155.645 213.743C155.587 213.679 155.544 213.603 155.518 213.52C155.492 213.437 155.483 213.35 155.493 213.263C155.51 213.078 155.593 212.905 155.727 212.778C155.862 212.651 156.037 212.579 156.22 212.576H180.616C180.703 212.574 180.788 212.591 180.868 212.626C180.947 212.66 181.018 212.712 181.076 212.778C181.133 212.843 181.177 212.92 181.202 213.004C181.228 213.088 181.235 213.176 181.224 213.263C181.205 213.448 181.121 213.618 180.987 213.743C180.853 213.868 180.679 213.939 180.497 213.943Z" fill="white"/>
<path d="M210.987 213.943H184.802C184.716 213.946 184.63 213.93 184.551 213.896C184.471 213.862 184.399 213.811 184.341 213.747C184.282 213.682 184.238 213.606 184.212 213.522C184.185 213.439 184.176 213.351 184.186 213.263C184.203 213.078 184.286 212.905 184.421 212.778C184.555 212.651 184.73 212.579 184.914 212.576H211.107C211.193 212.574 211.279 212.591 211.358 212.626C211.438 212.66 211.509 212.712 211.566 212.778C211.624 212.843 211.667 212.92 211.693 213.004C211.719 213.088 211.726 213.176 211.715 213.263C211.696 213.448 211.612 213.618 211.478 213.743C211.344 213.868 211.169 213.939 210.987 213.943Z" fill="white"/>
<path d="M172.056 219.993H155.587C155.5 219.995 155.414 219.978 155.334 219.943C155.255 219.908 155.183 219.857 155.125 219.791C155.067 219.726 155.023 219.649 154.996 219.565C154.969 219.481 154.961 219.393 154.97 219.305C154.989 219.12 155.073 218.949 155.207 218.822C155.341 218.696 155.515 218.623 155.698 218.617H172.202C172.288 218.617 172.373 218.635 172.452 218.67C172.531 218.706 172.602 218.757 172.66 218.822C172.718 218.887 172.762 218.963 172.789 219.047C172.817 219.13 172.826 219.218 172.818 219.305C172.799 219.496 172.71 219.673 172.569 219.8C172.428 219.927 172.245 219.996 172.056 219.993Z" fill="white"/>
<path d="M203.42 219.993H176.388C176.301 219.995 176.215 219.978 176.135 219.943C176.056 219.908 175.984 219.857 175.926 219.791C175.868 219.726 175.824 219.649 175.797 219.565C175.77 219.482 175.761 219.393 175.771 219.305C175.79 219.119 175.875 218.946 176.011 218.819C176.147 218.693 176.323 218.621 176.507 218.618H203.531C203.618 218.616 203.704 218.633 203.784 218.668C203.863 218.702 203.935 218.754 203.993 218.819C204.051 218.884 204.095 218.961 204.122 219.045C204.149 219.129 204.157 219.218 204.148 219.305C204.131 219.491 204.047 219.664 203.913 219.791C203.779 219.918 203.603 219.99 203.42 219.993Z" fill="white"/>
<path d="M199.055 226.035H155.065C154.979 226.038 154.893 226.022 154.813 225.988C154.734 225.954 154.662 225.904 154.603 225.839C154.545 225.775 154.501 225.698 154.474 225.615C154.447 225.531 154.439 225.443 154.449 225.356C154.467 225.169 154.553 224.996 154.688 224.87C154.824 224.743 155.001 224.671 155.185 224.668H199.175C199.261 224.667 199.346 224.685 199.425 224.721C199.504 224.756 199.575 224.808 199.633 224.872C199.691 224.937 199.735 225.014 199.762 225.097C199.79 225.18 199.799 225.268 199.791 225.356C199.77 225.54 199.684 225.711 199.549 225.836C199.413 225.961 199.238 226.032 199.055 226.035Z" fill="white"/>
<path d="M206.296 226.035H203.394C203.308 226.038 203.222 226.022 203.143 225.988C203.063 225.955 202.992 225.904 202.933 225.839C202.875 225.775 202.83 225.698 202.804 225.615C202.777 225.531 202.768 225.443 202.778 225.356C202.795 225.17 202.878 224.997 203.013 224.87C203.147 224.744 203.323 224.672 203.506 224.668H206.416C206.502 224.666 206.588 224.683 206.667 224.718C206.747 224.753 206.818 224.805 206.875 224.87C206.933 224.935 206.976 225.012 207.002 225.096C207.028 225.18 207.035 225.269 207.024 225.356C207.005 225.54 206.921 225.711 206.787 225.836C206.653 225.961 206.478 226.032 206.296 226.035Z" fill="white"/>
<path d="M175.078 232.085H154.534C154.448 232.086 154.363 232.068 154.284 232.033C154.205 231.997 154.134 231.946 154.076 231.881C154.018 231.816 153.974 231.74 153.946 231.656C153.919 231.573 153.909 231.485 153.918 231.398C153.937 231.211 154.022 231.038 154.158 230.912C154.293 230.785 154.47 230.713 154.654 230.71H175.198C175.285 230.708 175.371 230.725 175.45 230.76C175.53 230.795 175.601 230.846 175.66 230.912C175.718 230.977 175.762 231.054 175.789 231.138C175.815 231.221 175.824 231.31 175.814 231.398C175.796 231.584 175.71 231.757 175.575 231.884C175.439 232.01 175.262 232.082 175.078 232.085Z" fill="white"/>
<path d="M204.961 232.085H179.384C179.297 232.086 179.212 232.068 179.133 232.033C179.054 231.997 178.983 231.946 178.925 231.881C178.867 231.816 178.823 231.74 178.796 231.656C178.769 231.573 178.759 231.485 178.767 231.398C178.786 231.211 178.871 231.038 179.007 230.912C179.143 230.785 179.319 230.713 179.503 230.71H205.072C205.159 230.708 205.245 230.725 205.324 230.76C205.404 230.795 205.475 230.846 205.534 230.912C205.592 230.977 205.636 231.054 205.663 231.138C205.69 231.221 205.698 231.31 205.689 231.398C205.67 231.583 205.586 231.754 205.452 231.881C205.318 232.007 205.144 232.08 204.961 232.085Z" fill="white"/>
<path d="M179.315 238.127H154.02C153.934 238.129 153.848 238.112 153.769 238.078C153.69 238.043 153.619 237.991 153.561 237.926C153.503 237.86 153.46 237.783 153.434 237.699C153.409 237.615 153.401 237.527 153.412 237.44C153.431 237.256 153.516 237.085 153.65 236.96C153.784 236.835 153.958 236.764 154.14 236.761H179.426C179.513 236.757 179.598 236.773 179.678 236.807C179.758 236.841 179.829 236.892 179.888 236.956C179.946 237.021 179.99 237.097 180.017 237.181C180.044 237.264 180.053 237.352 180.043 237.44C180.026 237.625 179.942 237.798 179.808 237.925C179.674 238.052 179.498 238.124 179.315 238.127Z" fill="white"/>
<path d="M203.985 238.127H183.613C183.526 238.129 183.44 238.112 183.361 238.078C183.282 238.043 183.211 237.991 183.153 237.926C183.096 237.86 183.052 237.783 183.027 237.699C183.001 237.615 182.994 237.527 183.005 237.44C183.024 237.256 183.108 237.085 183.242 236.96C183.376 236.835 183.55 236.764 183.732 236.761H204.105C204.191 236.757 204.277 236.773 204.357 236.807C204.436 236.841 204.508 236.892 204.567 236.956C204.625 237.021 204.669 237.097 204.696 237.181C204.723 237.264 204.731 237.352 204.721 237.44C204.703 237.626 204.617 237.799 204.482 237.926C204.346 238.052 204.169 238.124 203.985 238.127Z" fill="white"/>
<path d="M241.512 141.107C241.438 141.194 241.347 141.265 241.245 141.316C241.144 141.368 241.033 141.398 240.92 141.405C240.807 141.412 240.694 141.397 240.587 141.359C240.48 141.321 240.381 141.262 240.296 141.186L205.26 107.18C205.101 107.017 205.011 106.796 205.011 106.566C205.011 106.336 205.101 106.116 205.26 105.952C205.335 105.866 205.425 105.795 205.527 105.743C205.628 105.692 205.739 105.662 205.852 105.655C205.965 105.648 206.078 105.663 206.186 105.701C206.293 105.739 206.391 105.797 206.476 105.874L241.512 139.88C241.671 140.043 241.761 140.264 241.761 140.494C241.761 140.724 241.671 140.944 241.512 141.107Z" fill="#724FFF"/>
<path d="M202.162 141.099C202.092 141.007 202.041 140.901 202.013 140.788C201.984 140.675 201.978 140.558 201.994 140.442C202.011 140.327 202.051 140.216 202.11 140.117C202.17 140.017 202.248 139.931 202.341 139.863L220.215 125.002C220.385 124.852 220.606 124.777 220.83 124.791C221.054 124.806 221.263 124.91 221.413 125.08C221.481 125.172 221.531 125.277 221.559 125.389C221.587 125.501 221.593 125.618 221.576 125.732C221.559 125.846 221.52 125.956 221.462 126.055C221.403 126.154 221.325 126.24 221.233 126.308L203.36 141.177C203.19 141.327 202.969 141.403 202.745 141.388C202.521 141.373 202.311 141.269 202.162 141.099Z" fill="#724FFF"/>
<path d="M225.256 121.885C225.188 121.793 225.139 121.687 225.111 121.576C225.083 121.464 225.077 121.347 225.094 121.233C225.11 121.119 225.149 121.009 225.208 120.91C225.267 120.811 225.344 120.725 225.436 120.657L243.344 105.77C243.514 105.621 243.735 105.545 243.959 105.56C244.183 105.574 244.392 105.678 244.542 105.848C244.611 105.941 244.66 106.046 244.688 106.158C244.716 106.27 244.722 106.386 244.705 106.5C244.688 106.615 244.649 106.724 244.591 106.823C244.532 106.922 244.454 107.008 244.362 107.076L226.455 121.963C226.285 122.113 226.064 122.188 225.84 122.174C225.616 122.159 225.406 122.055 225.256 121.885Z" fill="#724FFF"/>
<g opacity="0.7">
<path opacity="0.7" d="M241.512 141.107C241.438 141.194 241.347 141.265 241.245 141.316C241.144 141.368 241.033 141.398 240.92 141.405C240.807 141.412 240.694 141.397 240.587 141.359C240.48 141.321 240.381 141.262 240.296 141.186L205.26 107.18C205.101 107.017 205.011 106.796 205.011 106.566C205.011 106.336 205.101 106.116 205.26 105.952C205.335 105.866 205.425 105.795 205.527 105.743C205.628 105.692 205.739 105.662 205.852 105.655C205.965 105.648 206.078 105.663 206.186 105.701C206.293 105.739 206.391 105.797 206.476 105.874L241.512 139.88C241.671 140.043 241.761 140.264 241.761 140.494C241.761 140.724 241.671 140.944 241.512 141.107Z" fill="white"/>
</g>
<g opacity="0.7">
<path opacity="0.7" d="M202.162 141.099C202.092 141.007 202.041 140.901 202.013 140.788C201.984 140.675 201.978 140.558 201.994 140.442C202.011 140.327 202.051 140.216 202.11 140.117C202.17 140.017 202.248 139.931 202.341 139.863L220.215 125.002C220.385 124.852 220.606 124.777 220.83 124.791C221.054 124.806 221.263 124.91 221.413 125.08C221.481 125.172 221.531 125.277 221.559 125.389C221.587 125.501 221.593 125.618 221.576 125.732C221.559 125.846 221.52 125.956 221.462 126.055C221.403 126.154 221.325 126.24 221.233 126.308L203.36 141.177C203.19 141.327 202.969 141.403 202.745 141.388C202.521 141.373 202.311 141.269 202.162 141.099Z" fill="white"/>
</g>
<g opacity="0.7">
<path opacity="0.7" d="M225.256 121.885C225.188 121.793 225.139 121.687 225.111 121.576C225.083 121.464 225.077 121.347 225.094 121.233C225.11 121.119 225.149 121.009 225.208 120.91C225.267 120.811 225.344 120.725 225.436 120.657L243.344 105.77C243.514 105.621 243.735 105.545 243.959 105.56C244.183 105.574 244.392 105.678 244.542 105.848C244.611 105.941 244.66 106.046 244.688 106.158C244.716 106.27 244.722 106.386 244.705 106.5C244.688 106.615 244.649 106.724 244.591 106.823C244.532 106.922 244.454 107.008 244.362 107.076L226.455 121.963C226.285 122.113 226.064 122.188 225.84 122.174C225.616 122.159 225.406 122.055 225.256 121.885Z" fill="white"/>
</g>
<path d="M141.873 52.0967H130.745C129.668 52.1013 128.636 52.5399 127.875 53.3166C127.115 54.0932 126.688 55.1447 126.688 56.2407V67.5586C126.688 68.6576 127.117 69.7117 127.881 70.4889C128.645 71.266 129.682 71.7026 130.762 71.7026H141.89C142.971 71.7026 144.007 71.266 144.771 70.4889C145.536 69.7117 145.965 68.6576 145.965 67.5586V56.2407C145.965 55.6951 145.859 55.1548 145.653 54.6508C145.447 54.1469 145.146 53.6893 144.765 53.3043C144.385 52.9192 143.934 52.6143 143.438 52.4071C142.941 52.1999 142.41 52.0944 141.873 52.0967ZM136.335 56.1014C138.004 56.1014 138.903 57.4857 138.903 59.1834C138.903 60.881 138.004 62.2653 136.335 62.2653C134.666 62.2653 133.767 60.8898 133.767 59.1834C133.767 57.477 134.657 56.1014 136.335 56.1014ZM143.02 67.6543H129.641C129.587 67.6545 129.533 67.6438 129.483 67.6229C129.434 67.6019 129.388 67.5712 129.35 67.5325L130.206 65.1557C130.473 64.4062 130.961 63.7585 131.602 63.3005C132.244 62.8426 133.009 62.5967 133.793 62.5961H138.852C139.637 62.5961 140.403 62.8417 141.046 63.2996C141.689 63.7575 142.178 64.4055 142.447 65.1557L143.303 67.5325C143.266 67.571 143.222 67.6016 143.174 67.6225C143.125 67.6435 143.073 67.6543 143.02 67.6543Z" fill="#724FFF"/>
<path opacity="0.7" d="M141.873 52.0967H130.745C129.668 52.1013 128.636 52.5399 127.875 53.3166C127.115 54.0932 126.688 55.1447 126.688 56.2407V67.5586C126.688 68.6576 127.117 69.7117 127.881 70.4889C128.645 71.266 129.682 71.7026 130.762 71.7026H141.89C142.971 71.7026 144.007 71.266 144.771 70.4889C145.536 69.7117 145.965 68.6576 145.965 67.5586V56.2407C145.965 55.6951 145.859 55.1548 145.653 54.6508C145.447 54.1469 145.146 53.6893 144.765 53.3043C144.385 52.9192 143.934 52.6143 143.438 52.4071C142.941 52.1999 142.41 52.0944 141.873 52.0967ZM136.335 56.1014C138.004 56.1014 138.903 57.4857 138.903 59.1834C138.903 60.881 138.004 62.2653 136.335 62.2653C134.666 62.2653 133.767 60.8898 133.767 59.1834C133.767 57.477 134.657 56.1014 136.335 56.1014ZM143.02 67.6543H129.641C129.587 67.6545 129.533 67.6438 129.483 67.6229C129.434 67.6019 129.388 67.5712 129.35 67.5325L130.206 65.1557C130.473 64.4062 130.961 63.7585 131.602 63.3005C132.244 62.8426 133.009 62.5967 133.793 62.5961H138.852C139.637 62.5961 140.403 62.8417 141.046 63.2996C141.689 63.7575 142.178 64.4055 142.447 65.1557L143.303 67.5325C143.266 67.571 143.222 67.6016 143.174 67.6225C143.125 67.6435 143.073 67.6543 143.02 67.6543Z" fill="white"/>
<path d="M102.429 98.4827H94.0058C93.2856 98.4815 92.5723 98.6248 91.9066 98.9043C91.241 99.1838 90.636 99.5941 90.1264 100.112C89.6168 100.629 89.2125 101.244 88.9366 101.92C88.6608 102.597 88.5188 103.322 88.5188 104.055V112.621C88.5188 114.101 89.0969 115.521 90.1259 116.567C91.1549 117.614 92.5505 118.202 94.0058 118.202H102.429C103.149 118.202 103.862 118.057 104.527 117.777C105.192 117.496 105.797 117.085 106.306 116.567C106.814 116.048 107.218 115.433 107.493 114.756C107.767 114.079 107.908 113.354 107.907 112.621V104.055C107.908 103.323 107.767 102.597 107.492 101.921C107.218 101.244 106.814 100.63 106.305 100.112C105.796 99.5945 105.192 99.1841 104.527 98.9045C103.861 98.6249 103.149 98.4815 102.429 98.4827ZM98.2173 113.013C98.2173 113.013 94.7933 109.191 94.7933 107.241C94.7933 106.307 95.1581 105.411 95.8074 104.751C96.4568 104.09 97.3375 103.719 98.2558 103.719C99.1741 103.719 100.055 104.09 100.704 104.751C101.354 105.411 101.718 106.307 101.718 107.241C101.676 109.191 98.2173 113.013 98.2173 113.013Z" fill="#724FFF"/>
<path d="M98.2171 105.639C97.9032 105.637 97.5959 105.731 97.3341 105.907C97.0724 106.083 96.8681 106.335 96.7472 106.629C96.6263 106.924 96.5942 107.248 96.655 107.562C96.7158 107.875 96.8668 108.163 97.0888 108.388C97.3108 108.614 97.5938 108.768 97.9018 108.83C98.2097 108.892 98.5288 108.859 98.8186 108.736C99.1083 108.613 99.3555 108.405 99.5289 108.139C99.7022 107.873 99.7939 107.56 99.7922 107.241C99.7922 106.816 99.6262 106.409 99.3309 106.108C99.0355 105.808 98.6349 105.639 98.2171 105.639Z" fill="#724FFF"/>
<g opacity="0.7">
<path opacity="0.7" d="M102.429 98.4827H94.0058C93.2856 98.4815 92.5723 98.6248 91.9066 98.9043C91.241 99.1838 90.636 99.5941 90.1264 100.112C89.6168 100.629 89.2125 101.244 88.9366 101.92C88.6608 102.597 88.5188 103.322 88.5188 104.055V112.621C88.5188 114.101 89.0969 115.521 90.1259 116.567C91.1549 117.614 92.5505 118.202 94.0058 118.202H102.429C103.149 118.202 103.862 118.057 104.527 117.777C105.192 117.496 105.797 117.085 106.306 116.567C106.814 116.048 107.218 115.433 107.493 114.756C107.767 114.079 107.908 113.354 107.907 112.621V104.055C107.908 103.323 107.767 102.597 107.492 101.921C107.218 101.244 106.814 100.63 106.305 100.112C105.796 99.5945 105.192 99.1841 104.527 98.9045C103.861 98.6249 103.149 98.4815 102.429 98.4827ZM98.2173 113.013C98.2173 113.013 94.7933 109.191 94.7933 107.241C94.7933 106.307 95.1581 105.411 95.8074 104.751C96.4568 104.09 97.3375 103.719 98.2558 103.719C99.1741 103.719 100.055 104.09 100.704 104.751C101.354 105.411 101.718 106.307 101.718 107.241C101.676 109.191 98.2173 113.013 98.2173 113.013Z" fill="white"/>
<path opacity="0.7" d="M98.2171 105.639C97.9032 105.637 97.5959 105.73 97.3341 105.907C97.0724 106.083 96.8681 106.334 96.7472 106.629C96.6263 106.924 96.5942 107.248 96.655 107.562C96.7158 107.875 96.8668 108.163 97.0888 108.388C97.3108 108.614 97.5938 108.768 97.9018 108.83C98.2097 108.891 98.5288 108.859 98.8186 108.736C99.1083 108.613 99.3555 108.405 99.5289 108.139C99.7022 107.873 99.7939 107.56 99.7922 107.241C99.7922 106.816 99.6262 106.408 99.3309 106.108C99.0355 105.808 98.6349 105.639 98.2171 105.639Z" fill="white"/>
</g>
<path d="M287.359 74.2014L293 70.4926L287.359 66.7751V74.2014Z" fill="#724FFF"/>
<path d="M294.627 60.3673H283.875C282.661 60.3673 281.496 60.858 280.637 61.7315C279.778 62.605 279.296 63.7897 279.296 65.025V75.9598C279.298 77.1944 279.781 78.3778 280.639 79.2508C281.498 80.1238 282.661 80.6152 283.875 80.6176H294.627C295.841 80.6176 297.006 80.1268 297.865 79.2533C298.724 78.3798 299.206 77.1951 299.206 75.9598V65.025C299.207 64.4131 299.09 63.8069 298.86 63.2413C298.63 62.6756 298.293 62.1617 297.867 61.729C297.442 61.2962 296.937 60.9532 296.38 60.7195C295.824 60.4859 295.228 60.3662 294.627 60.3673ZM289.251 77.7794C287.834 77.7794 286.448 77.3518 285.27 76.5507C284.091 75.7496 283.173 74.611 282.631 73.279C282.089 71.947 281.947 70.4814 282.225 69.0676C282.502 67.6539 283.185 66.3555 284.188 65.3367C285.191 64.3179 286.468 63.6246 287.858 63.3444C289.249 63.0643 290.69 63.2098 291.999 63.7627C293.308 64.3155 294.426 65.2509 295.212 66.4504C295.999 67.6498 296.417 69.0595 296.416 70.5011C296.415 71.4569 296.228 72.4031 295.868 73.2857C295.507 74.1683 294.979 74.97 294.314 75.6451C293.648 76.3201 292.859 76.8553 291.99 77.22C291.121 77.5847 290.191 77.7718 289.251 77.7707V77.7794Z" fill="#724FFF"/>
<g opacity="0.7">
<path opacity="0.7" d="M287.359 74.201L293 70.4923L287.359 66.7748V74.201Z" fill="white"/>
<path opacity="0.7" d="M294.627 60.3673H283.875C282.661 60.3673 281.496 60.858 280.637 61.7315C279.778 62.605 279.296 63.7897 279.296 65.025V75.9598C279.298 77.1944 279.781 78.3778 280.639 79.2508C281.498 80.1238 282.661 80.6152 283.875 80.6176H294.627C295.841 80.6176 297.006 80.1268 297.865 79.2533C298.724 78.3798 299.206 77.1951 299.206 75.9598V65.025C299.207 64.4131 299.09 63.8069 298.86 63.2413C298.63 62.6756 298.293 62.1617 297.867 61.729C297.442 61.2962 296.937 60.9532 296.38 60.7195C295.824 60.4859 295.228 60.3662 294.627 60.3673ZM289.251 77.7794C287.834 77.7794 286.448 77.3518 285.27 76.5507C284.091 75.7496 283.173 74.611 282.631 73.279C282.089 71.947 281.947 70.4814 282.225 69.0676C282.502 67.6539 283.185 66.3555 284.188 65.3367C285.191 64.3179 286.468 63.6246 287.858 63.3444C289.249 63.0643 290.69 63.2098 291.999 63.7627C293.308 64.3155 294.426 65.2509 295.212 66.4504C295.999 67.6498 296.417 69.0595 296.416 70.5011C296.415 71.4569 296.228 72.4031 295.868 73.2857C295.507 74.1683 294.979 74.97 294.314 75.6451C293.648 76.3201 292.859 76.8553 291.99 77.22C291.121 77.5847 290.191 77.7718 289.251 77.7707V77.7794Z" fill="white"/>
</g>
<path d="M305.181 102.305C305.181 102.078 305.181 101.852 305.181 101.634L306.474 100.903C306.379 100.28 306.219 99.6703 305.994 99.0834H304.522C304.335 98.6747 304.111 98.2842 303.854 97.9168L304.616 96.637C304.226 96.1457 303.787 95.6965 303.306 95.2963L302.039 96.0711C301.68 95.8145 301.299 95.5901 300.901 95.4007V93.8946C300.322 93.6721 299.723 93.5087 299.112 93.407L298.393 94.7217C298.179 94.7217 297.956 94.7217 297.734 94.7217C297.511 94.7217 297.297 94.7217 297.075 94.7217L296.356 93.407C295.745 93.5109 295.146 93.6742 294.567 93.8946V95.4007C294.168 95.5882 293.787 95.8126 293.428 96.0711L292.161 95.2963C291.676 95.694 291.234 96.1435 290.843 96.637L291.605 97.9168C291.354 98.2864 291.133 98.6766 290.946 99.0834H289.473C289.25 99.6713 289.086 100.281 288.985 100.903L290.278 101.634C290.278 101.852 290.278 102.078 290.278 102.305C290.278 102.531 290.278 102.757 290.278 102.975L288.985 103.706C289.085 104.328 289.249 104.938 289.473 105.526H290.946C291.133 105.933 291.354 106.323 291.605 106.692L290.843 107.981C291.236 108.47 291.678 108.916 292.161 109.313L293.428 108.538C293.785 108.8 294.166 109.024 294.567 109.208V110.715C295.145 110.939 295.744 111.102 296.356 111.202L297.075 109.888C297.297 109.888 297.511 109.888 297.734 109.888C297.956 109.888 298.179 109.888 298.393 109.888L299.112 111.202C299.724 111.105 300.323 110.941 300.901 110.715V109.208C301.301 109.022 301.682 108.798 302.039 108.538L303.306 109.313C303.785 108.914 304.223 108.467 304.616 107.981L303.854 106.692C304.111 106.325 304.335 105.935 304.522 105.526H305.994C306.22 104.939 306.381 104.329 306.474 103.706L305.181 102.975C305.164 102.731 305.181 102.531 305.181 102.305ZM297.717 107.459C296.714 107.459 295.735 107.156 294.901 106.59C294.068 106.024 293.418 105.219 293.035 104.277C292.651 103.335 292.551 102.299 292.747 101.299C292.942 100.299 293.425 99.381 294.133 98.6602C294.842 97.9394 295.745 97.4485 296.728 97.2497C297.711 97.0508 298.73 97.1529 299.656 97.543C300.582 97.9331 301.373 98.5937 301.93 99.4412C302.487 100.289 302.784 101.285 302.784 102.305C302.784 103.672 302.25 104.982 301.3 105.949C300.35 106.916 299.061 107.459 297.717 107.459Z" fill="#724FFF"/>
<path opacity="0.7" d="M305.181 102.305C305.181 102.078 305.181 101.852 305.181 101.634L306.474 100.903C306.379 100.28 306.219 99.6703 305.994 99.0834H304.522C304.335 98.6747 304.111 98.2842 303.854 97.9168L304.616 96.637C304.226 96.1457 303.787 95.6965 303.306 95.2963L302.039 96.0711C301.68 95.8145 301.299 95.5901 300.901 95.4007V93.8946C300.322 93.6721 299.723 93.5087 299.112 93.407L298.393 94.7217C298.179 94.7217 297.956 94.7217 297.734 94.7217C297.511 94.7217 297.297 94.7217 297.075 94.7217L296.356 93.407C295.745 93.5109 295.146 93.6742 294.567 93.8946V95.4007C294.168 95.5882 293.787 95.8126 293.428 96.0711L292.161 95.2963C291.676 95.694 291.234 96.1435 290.843 96.637L291.605 97.9168C291.354 98.2864 291.133 98.6766 290.946 99.0834H289.473C289.25 99.6713 289.086 100.281 288.985 100.903L290.278 101.634C290.278 101.852 290.278 102.078 290.278 102.305C290.278 102.531 290.278 102.757 290.278 102.975L288.985 103.706C289.085 104.328 289.249 104.938 289.473 105.526H290.946C291.133 105.933 291.354 106.323 291.605 106.692L290.843 107.981C291.236 108.47 291.678 108.916 292.161 109.313L293.428 108.538C293.785 108.8 294.166 109.024 294.567 109.208V110.715C295.145 110.939 295.744 111.102 296.356 111.202L297.075 109.888C297.297 109.888 297.511 109.888 297.734 109.888C297.956 109.888 298.179 109.888 298.393 109.888L299.112 111.202C299.724 111.105 300.323 110.941 300.901 110.715V109.208C301.301 109.022 301.682 108.798 302.039 108.538L303.306 109.313C303.785 108.914 304.223 108.467 304.616 107.981L303.854 106.692C304.111 106.325 304.335 105.935 304.522 105.526H305.994C306.22 104.939 306.381 104.329 306.474 103.706L305.181 102.975C305.164 102.731 305.181 102.531 305.181 102.305ZM297.717 107.459C296.714 107.459 295.735 107.156 294.901 106.59C294.068 106.024 293.418 105.219 293.035 104.277C292.651 103.335 292.551 102.299 292.747 101.299C292.942 100.299 293.425 99.381 294.133 98.6602C294.842 97.9394 295.745 97.4485 296.728 97.2497C297.711 97.0508 298.73 97.1529 299.656 97.543C300.582 97.9331 301.373 98.5937 301.93 99.4412C302.487 100.289 302.784 101.285 302.784 102.305C302.784 103.672 302.25 104.982 301.3 105.949C300.35 106.916 299.061 107.459 297.717 107.459Z" fill="white"/>
<path d="M285.673 128.188C285.673 127.848 285.673 127.517 285.63 127.186L287.564 126.098C287.419 125.164 287.178 124.248 286.845 123.365L284.637 123.408C284.358 122.798 284.026 122.216 283.644 121.667L284.782 119.743C284.199 119.01 283.542 118.342 282.822 117.749L280.93 118.898C280.389 118.516 279.816 118.181 279.218 117.897V115.651C278.353 115.312 277.455 115.067 276.539 114.92L275.469 116.887C275.144 116.887 274.819 116.887 274.485 116.887C274.151 116.887 273.826 116.887 273.5 116.887L272.456 114.92C271.54 115.069 270.643 115.314 269.777 115.651V117.897C269.179 118.181 268.606 118.516 268.065 118.898L266.216 117.749C265.493 118.342 264.833 119.01 264.247 119.743L265.385 121.667C265.006 122.216 264.677 122.799 264.401 123.408L262.193 123.365C261.856 124.247 261.615 125.163 261.474 126.098L263.408 127.186C263.34 127.852 263.34 128.523 263.408 129.189L261.474 130.286C261.616 131.218 261.857 132.131 262.193 133.011L264.401 132.967C264.675 133.578 265.005 134.161 265.385 134.708L264.247 136.633C264.833 137.365 265.493 138.033 266.216 138.626L268.108 137.477C268.647 137.863 269.22 138.198 269.82 138.478V140.724C270.684 141.065 271.582 141.311 272.499 141.456L273.577 139.488C274.232 139.558 274.892 139.558 275.546 139.488L276.616 141.456C277.533 141.313 278.432 141.068 279.295 140.724V138.478C279.895 138.198 280.468 137.862 281.007 137.477L282.899 138.626C283.619 138.033 284.276 137.365 284.859 136.633L283.721 134.708C284.105 134.161 284.437 133.578 284.714 132.967L286.922 133.011C287.254 132.13 287.495 131.217 287.641 130.286L285.707 129.189C285.656 128.849 285.673 128.527 285.673 128.188ZM274.545 132.663C273.674 132.663 272.824 132.4 272.1 131.908C271.377 131.417 270.813 130.718 270.48 129.9C270.147 129.082 270.06 128.183 270.229 127.315C270.399 126.447 270.818 125.649 271.433 125.023C272.049 124.398 272.833 123.971 273.686 123.799C274.54 123.626 275.424 123.715 276.228 124.053C277.032 124.392 277.72 124.966 278.203 125.702C278.686 126.437 278.944 127.303 278.944 128.188C278.944 128.778 278.83 129.362 278.607 129.906C278.384 130.451 278.058 130.945 277.647 131.361C277.235 131.777 276.747 132.106 276.211 132.329C275.674 132.553 275.099 132.666 274.519 132.663H274.545Z" fill="#724FFF"/>
<path opacity="0.7" d="M285.673 128.188C285.673 127.848 285.673 127.517 285.63 127.186L287.564 126.098C287.419 125.164 287.178 124.248 286.845 123.365L284.637 123.408C284.358 122.798 284.026 122.216 283.644 121.667L284.782 119.743C284.199 119.01 283.542 118.342 282.822 117.749L280.93 118.898C280.389 118.516 279.816 118.181 279.218 117.897V115.651C278.353 115.312 277.455 115.067 276.539 114.92L275.469 116.887C275.144 116.887 274.819 116.887 274.485 116.887C274.151 116.887 273.826 116.887 273.5 116.887L272.456 114.92C271.54 115.069 270.643 115.314 269.777 115.651V117.897C269.179 118.181 268.606 118.516 268.065 118.898L266.216 117.749C265.493 118.342 264.833 119.01 264.247 119.743L265.385 121.667C265.006 122.216 264.677 122.799 264.401 123.408L262.193 123.365C261.856 124.247 261.615 125.163 261.474 126.098L263.408 127.186C263.34 127.852 263.34 128.523 263.408 129.189L261.474 130.286C261.616 131.218 261.857 132.131 262.193 133.011L264.401 132.967C264.675 133.578 265.005 134.161 265.385 134.708L264.247 136.633C264.833 137.365 265.493 138.033 266.216 138.626L268.108 137.477C268.647 137.863 269.22 138.198 269.82 138.478V140.724C270.684 141.065 271.582 141.311 272.499 141.456L273.577 139.488C274.232 139.558 274.892 139.558 275.546 139.488L276.616 141.456C277.533 141.313 278.432 141.068 279.295 140.724V138.478C279.895 138.198 280.468 137.862 281.007 137.477L282.899 138.626C283.619 138.033 284.276 137.365 284.859 136.633L283.721 134.708C284.105 134.161 284.437 133.578 284.714 132.967L286.922 133.011C287.254 132.13 287.495 131.217 287.641 130.286L285.707 129.189C285.656 128.849 285.673 128.527 285.673 128.188ZM274.545 132.663C273.674 132.663 272.824 132.4 272.1 131.908C271.377 131.417 270.813 130.718 270.48 129.9C270.147 129.082 270.06 128.183 270.229 127.315C270.399 126.447 270.818 125.649 271.433 125.023C272.049 124.398 272.833 123.971 273.686 123.799C274.54 123.626 275.424 123.715 276.228 124.053C277.032 124.392 277.72 124.966 278.203 125.702C278.686 126.437 278.944 127.303 278.944 128.188C278.944 128.778 278.83 129.362 278.607 129.906C278.384 130.451 278.058 130.945 277.647 131.361C277.235 131.777 276.747 132.106 276.211 132.329C275.674 132.553 275.099 132.666 274.519 132.663H274.545Z" fill="white"/>
<path d="M254.232 77.7099V82.2719L249.952 84.5616C249.785 84.6524 249.646 84.7874 249.549 84.9522C249.452 85.117 249.401 85.3054 249.401 85.4975C249.401 85.6895 249.452 85.878 249.549 86.0428C249.646 86.2076 249.785 86.3426 249.952 86.4334L254.232 88.7231V93.285C254.232 93.7722 254.422 94.2395 254.761 94.584C255.099 94.9285 255.559 95.122 256.038 95.122H271.352C271.831 95.122 272.292 94.9287 272.632 94.5845C272.972 94.2402 273.164 93.773 273.166 93.285V77.7099C273.166 77.2204 272.975 76.751 272.635 76.4049C272.295 76.0587 271.833 75.8643 271.352 75.8643H256.012C255.536 75.8711 255.082 76.0689 254.749 76.4145C254.415 76.7602 254.229 77.2257 254.232 77.7099Z" fill="#724FFF"/>
<g opacity="0.9">
<path opacity="0.9" d="M259.471 82.4637H268.176C268.46 82.4637 268.732 82.349 268.933 82.1449C269.134 81.9408 269.246 81.664 269.246 81.3754C269.246 81.0868 269.134 80.81 268.933 80.6059C268.732 80.4018 268.46 80.2872 268.176 80.2872H259.471C259.187 80.2872 258.915 80.4018 258.714 80.6059C258.514 80.81 258.401 81.0868 258.401 81.3754C258.401 81.664 258.514 81.9408 258.714 82.1449C258.915 82.349 259.187 82.4637 259.471 82.4637Z" fill="white"/>
<path opacity="0.9" d="M268.177 84.4487H259.471C259.187 84.4487 258.915 84.5633 258.714 84.7674C258.514 84.9715 258.401 85.2483 258.401 85.5369C258.401 85.8255 258.514 86.1023 258.714 86.3064C258.915 86.5105 259.187 86.6252 259.471 86.6252H268.177C268.46 86.6252 268.732 86.5105 268.933 86.3064C269.134 86.1023 269.247 85.8255 269.247 85.5369C269.247 85.2483 269.134 84.9715 268.933 84.7674C268.732 84.5633 268.46 84.4487 268.177 84.4487Z" fill="white"/>
<path opacity="0.9" d="M268.177 88.5317H259.471C259.187 88.5317 258.915 88.6464 258.714 88.8505C258.514 89.0546 258.401 89.3314 258.401 89.62C258.401 89.9086 258.514 90.1854 258.714 90.3895C258.915 90.5936 259.187 90.7082 259.471 90.7082H268.177C268.46 90.7082 268.732 90.5936 268.933 90.3895C269.134 90.1854 269.247 89.9086 269.247 89.62C269.247 89.3314 269.134 89.0546 268.933 88.8505C268.732 88.6464 268.46 88.5317 268.177 88.5317Z" fill="white"/>
</g>
<path d="M167.69 70.5189H171.346L173.229 74.1493C173.353 74.386 173.538 74.5839 173.764 74.7219C173.99 74.8599 174.249 74.9328 174.513 74.9328C174.777 74.9328 175.035 74.8599 175.261 74.7219C175.488 74.5839 175.673 74.386 175.797 74.1493L177.68 70.5189H181.335C181.682 70.5189 182.026 70.4492 182.346 70.3139C182.666 70.1786 182.957 69.9804 183.202 69.7304C183.447 69.4805 183.641 69.1839 183.773 68.8575C183.905 68.5312 183.973 68.1816 183.972 67.8287V53.9774C183.972 53.2663 183.694 52.5842 183.199 52.0814C182.705 51.5785 182.034 51.296 181.335 51.296H167.69C167.344 51.2948 167.001 51.3634 166.68 51.4977C166.36 51.6321 166.069 51.8296 165.824 52.0788C165.579 52.328 165.384 52.6241 165.252 52.9499C165.12 53.2758 165.053 53.625 165.054 53.9774V67.9071C165.072 68.6061 165.357 69.2704 165.85 69.7583C166.342 70.2462 167.003 70.5191 167.69 70.5189Z" fill="#724FFF"/>
<path opacity="0.9" d="M174.521 55.449L170.31 57.9563V65.2868H173.443V60.3679H175.608V65.2868H178.741V57.9563L174.521 55.449Z" fill="white"/>
<path d="M208.693 269.704H205.44L203.343 265.647C203.239 265.45 203.084 265.286 202.896 265.172C202.707 265.058 202.492 264.997 202.273 264.997C202.053 264.997 201.838 265.058 201.65 265.172C201.461 265.286 201.307 265.45 201.203 265.647L199.105 269.704H195.767C194.97 269.704 194.206 270.026 193.642 270.599C193.079 271.172 192.762 271.949 192.762 272.76V285.906C192.762 286.716 193.079 287.494 193.642 288.067C194.206 288.64 194.97 288.962 195.767 288.962H208.693C209.489 288.962 210.254 288.64 210.817 288.067C211.381 287.494 211.697 286.716 211.697 285.906V272.76C211.697 271.949 211.381 271.172 210.817 270.599C210.254 270.026 209.489 269.704 208.693 269.704Z" fill="#724FFF"/>
<path opacity="0.9" d="M204.062 274.728C203.434 274.089 202.641 273.645 201.774 273.448C200.907 273.252 200.004 273.31 199.168 273.617C198.333 273.924 197.601 274.466 197.058 275.181C196.515 275.895 196.184 276.753 196.102 277.652C196.021 278.551 196.193 279.455 196.598 280.259C197.004 281.062 197.626 281.732 198.392 282.188C199.158 282.645 200.036 282.871 200.924 282.838C201.811 282.806 202.671 282.517 203.403 282.006C203.439 282.222 203.537 282.422 203.685 282.58L206.596 285.532C206.792 285.731 207.058 285.844 207.336 285.844C207.614 285.844 207.88 285.731 208.077 285.532C208.273 285.332 208.383 285.061 208.383 284.779C208.383 284.496 208.273 284.225 208.077 284.026L205.175 281.074C205.019 280.917 204.818 280.814 204.601 280.778C205.217 279.863 205.499 278.758 205.401 277.654C205.303 276.55 204.829 275.515 204.062 274.728ZM203.069 280.447C202.61 280.913 202.026 281.23 201.39 281.359C200.755 281.487 200.096 281.421 199.497 281.168C198.898 280.916 198.386 280.488 198.026 279.94C197.666 279.392 197.474 278.747 197.474 278.088C197.474 277.429 197.666 276.784 198.026 276.236C198.386 275.688 198.898 275.26 199.497 275.008C200.096 274.755 200.755 274.689 201.39 274.817C202.026 274.946 202.61 275.263 203.069 275.729C203.374 276.038 203.616 276.406 203.781 276.811C203.946 277.216 204.031 277.65 204.031 278.088C204.031 278.526 203.946 278.96 203.781 279.365C203.616 279.77 203.374 280.138 203.069 280.447Z" fill="white"/>
<path d="M346.928 182.156C346.928 182.156 339.952 199.743 333.121 201.64C326.29 203.538 316.001 201.997 316.001 201.997L312.817 202.868L309.692 202.398H309.581L306.063 202.311C305.936 202.322 305.809 202.295 305.696 202.235C305.584 202.174 305.49 202.083 305.427 201.97C305.364 201.857 305.334 201.729 305.341 201.6C305.347 201.47 305.39 201.345 305.464 201.24L306.722 199.499C306.828 199.356 306.974 199.249 307.142 199.194L310.497 198.097C310.63 198.067 310.767 198.067 310.899 198.097L316.035 198.924C316.035 198.924 330.288 196.547 331.743 195.207C333.198 193.866 337.487 179.806 337.487 179.806L346.928 182.156Z" fill="#EEC1BB"/>
<path opacity="0.1" d="M316.352 198.811L316.018 198.863L310.882 198.036C310.75 198.006 310.612 198.006 310.48 198.036L307.124 199.133C306.957 199.189 306.81 199.295 306.705 199.438L305.446 201.179C305.373 201.285 305.33 201.409 305.323 201.539C305.317 201.668 305.347 201.797 305.41 201.909C305.473 202.022 305.566 202.114 305.679 202.174C305.792 202.234 305.919 202.261 306.046 202.25L309.564 202.337H309.675L311.772 202.651C313.561 201.734 315.126 200.422 316.352 198.811Z" fill="black"/>
<path d="M351.14 164.736C346.072 163.047 338.942 166.921 336.211 183.149L346.731 186.309C346.731 186.309 358.381 167.156 351.14 164.736Z" fill="#724FFF"/>
<path d="M321.659 143.528C321.659 144.068 321.942 144.494 322.284 144.494C322.626 144.494 322.926 144.033 322.9 143.511C322.875 142.988 322.618 142.553 322.275 142.562C321.933 142.57 321.659 142.997 321.659 143.528Z" fill="#263238"/>
<path d="M323.73 144.059L321.239 148.246C321.239 148.246 322.095 149.239 323.97 148.508L323.73 144.059Z" fill="#D4827D"/>
<path d="M324.201 140.167C324.171 140.203 324.132 140.229 324.089 140.244C324.045 140.26 323.998 140.263 323.953 140.254C323.616 140.196 323.27 140.22 322.944 140.324C322.618 140.429 322.321 140.611 322.078 140.855C322.026 140.905 321.957 140.932 321.886 140.932C321.814 140.932 321.746 140.905 321.693 140.855C321.644 140.801 321.617 140.729 321.617 140.655C321.617 140.581 321.644 140.509 321.693 140.455C321.996 140.14 322.369 139.905 322.78 139.77C323.192 139.635 323.63 139.604 324.056 139.68C324.092 139.684 324.127 139.696 324.158 139.714C324.19 139.732 324.218 139.756 324.24 139.786C324.262 139.815 324.279 139.848 324.288 139.884C324.298 139.919 324.3 139.957 324.296 139.993C324.282 140.06 324.25 140.121 324.201 140.167Z" fill="#263238"/>
<path d="M341.801 139.732C342.186 146.81 342.503 149.805 339.43 153.827C334.525 158.136 326.17 158.824 323.705 152.007C321.488 145.913 321.231 135.353 327.668 131.705C328.76 131.086 329.961 130.692 331.203 130.546C332.444 130.4 333.702 130.504 334.904 130.852C336.106 131.201 337.229 131.787 338.208 132.577C339.187 133.367 340.004 134.346 340.611 135.457C341.323 136.771 341.73 138.233 341.801 139.732Z" fill="#EEC1BB"/>
<path d="M332.103 155.22L333.866 165.711L342.46 163.691L339.456 152.983L332.103 155.22Z" fill="#EEC1BB"/>
<path d="M325.913 140.254C326.35 135.658 324.792 140.968 322.703 134.9C320.615 128.832 330.484 123.904 332.059 125.036C333.634 126.168 332.736 127.9 337.957 128.884C339.382 129.114 340.675 129.864 341.595 130.994C342.515 132.124 342.999 133.556 342.956 135.022C342.956 135.022 345.961 136.432 344.891 142.997C344.106 147.203 342.345 151.157 339.755 154.532C339.755 154.532 337.777 152.46 334.619 154.367C333.386 153.548 332.343 152.467 331.563 151.198C330.159 149.056 329.722 147.019 327.796 146.845C323.773 146.47 325.768 141.769 325.913 140.254Z" fill="#263238"/>
<path d="M342.4 135.814C342.4 135.814 346.68 133.15 344.78 130.356C342.88 127.561 343.795 133.438 342.4 135.814Z" fill="#263238"/>
<path d="M327.138 142.927C326.188 144.006 325.699 145.425 325.777 146.871C325.896 148.786 327.745 149.126 329.201 148.081C330.656 147.036 332.034 144.999 331.195 143.319C331.009 142.952 330.735 142.639 330.399 142.408C330.063 142.177 329.675 142.035 329.272 141.996C328.868 141.957 328.461 142.022 328.088 142.185C327.715 142.347 327.388 142.603 327.138 142.927Z" fill="#FFC3BD"/>
<path opacity="0.1" d="M332.265 156.213L332.967 160.374C332.905 159.344 333.045 158.311 333.377 157.335C333.709 156.36 334.227 155.46 334.902 154.689C334.377 154.723 333.868 154.878 333.411 155.142C332.954 155.406 332.562 155.772 332.265 156.213Z" fill="black"/>
<path d="M271.84 183.271H269.383V198.01H271.84V183.271Z" fill="#724FFF"/>
<path opacity="0.7" d="M271.84 183.271H269.383V198.01H271.84V183.271Z" fill="white"/>
<path d="M254.96 154.001H248.839C247.738 154.001 246.682 154.446 245.904 155.238C245.125 156.029 244.688 157.103 244.688 158.223V187.066C244.688 187.621 244.795 188.17 245.004 188.682C245.212 189.194 245.518 189.66 245.904 190.052C246.289 190.444 246.747 190.755 247.25 190.967C247.754 191.18 248.294 191.289 248.839 191.289H254.96V154.001Z" fill="#724FFF"/>
<path d="M292.393 154.001H250.979C248.686 154.001 246.828 155.891 246.828 158.223V187.058C246.828 189.39 248.686 191.28 250.979 191.28H292.393C294.685 191.28 296.544 189.39 296.544 187.058V158.223C296.544 155.891 294.685 154.001 292.393 154.001Z" fill="#724FFF"/>
<path opacity="0.5" d="M292.393 154.001H250.979C248.686 154.001 246.828 155.891 246.828 158.223V187.058C246.828 189.39 248.686 191.28 250.979 191.28H292.393C294.685 191.28 296.544 189.39 296.544 187.058V158.223C296.544 155.891 294.685 154.001 292.393 154.001Z" fill="white"/>
<path d="M292.392 155.742H250.979C249.632 155.742 248.54 156.853 248.54 158.223V187.058C248.54 188.428 249.632 189.539 250.979 189.539H292.392C293.74 189.539 294.832 188.428 294.832 187.058V158.223C294.832 156.853 293.74 155.742 292.392 155.742Z" fill="#263238"/>
<path d="M261.671 204.191C261.743 201.828 262.716 199.586 264.385 197.941C266.054 196.295 268.287 195.375 270.612 195.375C272.936 195.375 275.169 196.295 276.838 197.941C278.507 199.586 279.481 201.828 279.552 204.191H261.671Z" fill="#724FFF"/>
<path d="M282.771 201.092H264.889V204.043H300.653V202.833L282.771 201.092Z" fill="#724FFF"/>
<path opacity="0.8" d="M282.771 201.092H264.889V204.043H300.653V202.833L282.771 201.092Z" fill="white"/>
<path d="M282.771 204.043H264.889V201.092L282.771 202.833V204.043Z" fill="#724FFF"/>
<path opacity="0.6" d="M282.771 204.043H264.889V201.092L282.771 202.833V204.043Z" fill="white"/>
<path d="M322.198 305.652H285.313C284.577 305.653 283.848 305.506 283.168 305.221C282.488 304.935 281.87 304.516 281.349 303.987C280.828 303.458 280.415 302.83 280.133 302.139C279.851 301.447 279.706 300.706 279.706 299.958V213.698C279.706 212.95 279.851 212.209 280.133 211.518C280.415 210.826 280.828 210.198 281.349 209.669C281.87 209.14 282.488 208.721 283.168 208.436C283.848 208.15 284.577 208.004 285.313 208.005H322.198C322.595 208.005 322.976 208.165 323.257 208.451C323.538 208.737 323.696 209.124 323.696 209.528C323.696 209.932 323.538 210.32 323.257 210.606C322.976 210.891 322.595 211.052 322.198 211.052H285.313C284.972 211.046 284.634 211.109 284.317 211.238C284.001 211.367 283.713 211.558 283.47 211.801C283.226 212.044 283.033 212.334 282.902 212.654C282.77 212.974 282.702 213.317 282.702 213.664V299.923C282.702 300.27 282.77 300.613 282.902 300.933C283.033 301.252 283.226 301.542 283.47 301.785C283.713 302.028 284.001 302.22 284.317 302.349C284.634 302.477 284.972 302.541 285.313 302.535H322.198C322.595 302.535 322.976 302.695 323.257 302.981C323.538 303.267 323.696 303.654 323.696 304.058C323.705 304.264 323.673 304.47 323.602 304.663C323.531 304.856 323.422 305.032 323.282 305.181C323.142 305.33 322.974 305.448 322.788 305.529C322.601 305.61 322.401 305.652 322.198 305.652Z" fill="#263238"/>
<g opacity="0.5">
<path opacity="0.5" d="M322.198 305.652H285.313C284.577 305.653 283.848 305.506 283.168 305.221C282.488 304.935 281.87 304.516 281.349 303.987C280.828 303.458 280.415 302.83 280.133 302.139C279.851 301.447 279.706 300.706 279.706 299.958V213.698C279.706 212.95 279.851 212.209 280.133 211.518C280.415 210.826 280.828 210.198 281.349 209.669C281.87 209.14 282.488 208.721 283.168 208.436C283.848 208.15 284.577 208.004 285.313 208.005H322.198C322.595 208.005 322.976 208.165 323.257 208.451C323.538 208.737 323.696 209.124 323.696 209.528C323.696 209.932 323.538 210.32 323.257 210.606C322.976 210.891 322.595 211.052 322.198 211.052H285.313C284.972 211.046 284.634 211.109 284.317 211.238C284.001 211.367 283.713 211.558 283.47 211.801C283.226 212.044 283.033 212.334 282.902 212.654C282.77 212.974 282.702 213.317 282.702 213.664V299.923C282.702 300.27 282.77 300.613 282.902 300.933C283.033 301.252 283.226 301.542 283.47 301.785C283.713 302.028 284.001 302.22 284.317 302.349C284.634 302.477 284.972 302.541 285.313 302.535H322.198C322.595 302.535 322.976 302.695 323.257 302.981C323.538 303.267 323.696 303.654 323.696 304.058C323.705 304.264 323.673 304.47 323.602 304.663C323.531 304.856 323.422 305.032 323.282 305.181C323.142 305.33 322.974 305.448 322.788 305.529C322.601 305.61 322.401 305.652 322.198 305.652Z" fill="white"/>
</g>
<path d="M285.168 204.043H232.789V208.509H285.168V204.043Z" fill="#724FFF"/>
<path opacity="0.2" d="M285.168 204.043H232.789V208.509H285.168V204.043Z" fill="white"/>
<path d="M327.446 204.043H282.771V208.509H327.446V204.043Z" fill="#724FFF"/>
<path opacity="0.5" d="M327.446 204.043H282.771V208.509H327.446V204.043Z" fill="white"/>
<path d="M311.781 274.005L314.255 299.444H308.331L302.399 274.667L311.781 274.005Z" fill="#EEC1BB"/>
<path d="M307.775 297.746L315.333 297.877C315.471 297.88 315.604 297.931 315.71 298.021C315.816 298.111 315.888 298.235 315.915 298.373L317.182 304.65C317.236 304.917 317.184 305.194 317.038 305.422C316.893 305.65 316.665 305.811 316.403 305.869H316.189C313.459 305.773 311.053 305.582 307.629 305.521C303.632 305.451 304.633 305.956 299.925 305.947C297.092 305.947 296.63 302.648 297.828 302.508C303.349 301.899 303.949 300.219 306.106 298.251C306.582 297.881 307.176 297.701 307.775 297.746Z" fill="#263238"/>
<path opacity="0.1" d="M313.613 292.802L311.781 274.005L302.399 274.667L306.739 292.802H313.613Z" fill="black"/>
<path d="M352.338 215.352L328.045 216.223C328.045 216.223 295.32 227.863 294.464 236.804C293.522 246.015 304.514 288.335 304.514 288.335H314.28C314.28 288.335 311.584 257.281 310.557 247.774C309.53 238.267 344.617 241.41 350.712 233.304C356.284 225.869 352.338 215.352 352.338 215.352Z" fill="#263238"/>
<path opacity="0.2" d="M352.338 215.352L328.045 216.223C328.045 216.223 295.32 227.863 294.464 236.804C293.522 246.015 304.514 288.335 304.514 288.335H314.28C314.28 288.335 311.584 257.281 310.557 247.774C309.53 238.267 344.617 241.41 350.712 233.304C356.284 225.869 352.338 215.352 352.338 215.352Z" fill="black"/>
<path d="M315.906 286.942L316.12 290.451H304.051L302.87 286.942H315.906Z" fill="#724FFF"/>
<path d="M289.174 275.215L289.824 299.444H284.004L280.554 275.215H289.174Z" fill="#EEC1BB"/>
<path d="M283.199 297.746L290.758 297.877C290.896 297.88 291.028 297.931 291.134 298.021C291.24 298.111 291.312 298.235 291.34 298.373L292.607 304.65C292.66 304.917 292.608 305.194 292.463 305.422C292.317 305.65 292.089 305.81 291.828 305.869H291.614C288.883 305.773 286.478 305.582 283.054 305.521C279.048 305.451 280.058 305.956 275.35 305.947C272.516 305.947 272.054 302.648 273.252 302.508C278.774 301.899 279.373 300.219 281.53 298.251C282.006 297.879 282.6 297.699 283.199 297.746Z" fill="#263238"/>
<path opacity="0.1" d="M289.645 292.784L289.174 275.215H280.554L283.062 292.801C284.937 292.81 287.513 292.793 289.645 292.784Z" fill="black"/>
<path d="M341.775 217.398C341.775 217.398 343.795 236.186 325.006 237.065C306.217 237.945 291.545 240.13 291.117 246.929C290.689 253.729 291.117 288.37 291.117 288.37H280.905C280.905 288.37 276.933 266.466 275.384 252.884C273.877 239.695 271.104 230.127 284.432 225.66C298.581 220.907 323.731 216.519 323.731 216.519L341.844 215.352L341.775 217.398Z" fill="#263238"/>
<path d="M292.624 286.942L291.982 290.451H280.768L279.587 286.942H292.624Z" fill="#724FFF"/>
<path d="M345.824 163.499C345.824 163.499 345.824 159.268 337.409 159.756C328.473 160.278 330.159 164.335 330.159 164.335L345.824 163.499Z" fill="#724FFF"/>
<path opacity="0.3" d="M345.824 163.499C345.824 163.499 345.824 159.268 337.409 159.756C328.473 160.278 330.159 164.335 330.159 164.335L345.824 163.499Z" fill="black"/>
<path d="M353.665 182.479C353.1 190.845 353.297 216.014 353.297 216.014C353.297 216.014 335.321 217.216 321.214 216.746L319.579 168.331C319.585 167.475 319.845 166.641 320.324 165.938C320.804 165.234 321.481 164.694 322.267 164.387C326.256 162.812 335.62 161.027 350.266 162.986C355.317 163.674 354.332 172.589 353.665 182.479Z" fill="#724FFF"/>
<path d="M322.464 182.156C322.464 182.156 315.479 199.743 308.657 201.64C301.834 203.538 291.537 201.997 291.537 201.997L288.352 202.868L285.236 202.398H285.125L281.598 202.311C281.472 202.322 281.344 202.295 281.232 202.235C281.119 202.174 281.026 202.083 280.963 201.97C280.9 201.857 280.87 201.729 280.876 201.6C280.883 201.47 280.925 201.345 280.999 201.24L282.266 199.499C282.372 199.356 282.518 199.249 282.686 199.194L286.032 198.097C286.168 198.067 286.308 198.067 286.443 198.097L291.579 198.924C291.579 198.924 305.832 196.547 307.278 195.207C308.725 193.866 313.031 179.806 313.031 179.806L322.464 182.156Z" fill="#EEC1BB"/>
<path opacity="0.1" d="M322.284 173.973C322.284 173.973 321.197 175.287 319.879 177.185L320.35 191.202C325.597 188.843 327.677 175.105 327.677 175.105L324.253 172.649L322.284 173.973Z" fill="black"/>
<path d="M326.675 164.736C321.608 163.047 314.469 166.921 311.738 183.149L322.267 186.274C322.267 186.274 333.917 167.156 326.675 164.736Z" fill="#724FFF"/>
<path d="M333.378 246.181H325.46V269.783H333.378V246.181Z" fill="#263238"/>
<path opacity="0.6" d="M333.378 246.181H325.46V269.783H333.378V246.181Z" fill="white"/>
<path d="M334.602 291.165V261.181H324.227V291.165L300.61 294.499V297.833L329.415 295.335L358.219 297.833V294.499L334.602 291.165Z" fill="#263238"/>
<path d="M300.267 306.008C301.993 306.008 303.392 304.585 303.392 302.83C303.392 301.075 301.993 299.653 300.267 299.653C298.542 299.653 297.143 301.075 297.143 302.83C297.143 304.585 298.542 306.008 300.267 306.008Z" fill="#724FFF"/>
<path d="M358.219 306.008C359.944 306.008 361.343 304.585 361.343 302.83C361.343 301.075 359.944 299.653 358.219 299.653C356.493 299.653 355.094 301.075 355.094 302.83C355.094 304.585 356.493 306.008 358.219 306.008Z" fill="#724FFF"/>
<path d="M329.414 306.008C331.14 306.008 332.539 304.585 332.539 302.83C332.539 301.075 331.14 299.653 329.414 299.653C327.689 299.653 326.29 301.075 326.29 302.83C326.29 304.585 327.689 306.008 329.414 306.008Z" fill="#724FFF"/>
<path opacity="0.3" d="M333.378 246.181H325.46V252.014H333.378V246.181Z" fill="black"/>
<path d="M360.718 192.682H334.918C332.89 192.684 330.936 193.455 329.437 194.844C327.938 196.234 327.002 198.142 326.812 200.196L324.638 223.902C324.397 226.515 323.239 228.952 321.376 230.768C319.514 232.584 317.071 233.657 314.494 233.792L289.593 235.063C288.136 235.139 286.763 235.781 285.758 236.857C284.753 237.933 284.192 239.36 284.192 240.844V241.375C284.192 242.647 284.689 243.867 285.573 244.767C286.458 245.667 287.658 246.172 288.908 246.172H364.742L368.825 201.771C368.934 200.621 368.807 199.46 368.449 198.363C368.092 197.267 367.513 196.258 366.75 195.402C365.986 194.546 365.055 193.862 364.017 193.394C362.978 192.925 361.854 192.683 360.718 192.682Z" fill="#724FFF"/>
<path opacity="0.3" d="M360.718 192.682H334.918C332.89 192.684 330.936 193.455 329.437 194.844C327.938 196.234 327.002 198.142 326.812 200.196L324.638 223.902C324.397 226.515 323.239 228.952 321.376 230.768C319.514 232.584 317.071 233.657 314.494 233.792L289.593 235.063C288.136 235.139 286.763 235.781 285.758 236.857C284.753 237.933 284.192 239.36 284.192 240.844V241.375C284.192 242.647 284.689 243.867 285.573 244.767C286.458 245.667 287.658 246.172 288.908 246.172H364.742L368.825 201.771C368.934 200.621 368.807 199.46 368.449 198.363C368.092 197.267 367.513 196.258 366.75 195.402C365.986 194.546 365.055 193.862 364.017 193.394C362.978 192.925 361.854 192.683 360.718 192.682Z" fill="white"/>
<path d="M301.5 219.392H305.053V238.293C305.053 238.755 304.872 239.198 304.551 239.524C304.23 239.851 303.795 240.034 303.341 240.034H303.212C302.758 240.034 302.323 239.851 302.002 239.524C301.68 239.198 301.5 238.755 301.5 238.293V219.392Z" fill="#263238"/>
<path opacity="0.2" d="M301.5 219.392H305.053V238.293C305.053 238.755 304.872 239.198 304.551 239.524C304.23 239.851 303.795 240.034 303.341 240.034H303.212C302.758 240.034 302.323 239.851 302.002 239.524C301.68 239.198 301.5 238.755 301.5 238.293V219.392Z" fill="white"/>
<path d="M318.629 213.969H310.728V220.629H318.646C319.09 220.652 319.534 220.583 319.951 220.426C320.368 220.269 320.749 220.027 321.071 219.716C321.394 219.404 321.651 219.029 321.826 218.614C322.001 218.198 322.092 217.751 322.092 217.299C322.092 216.846 322.001 216.399 321.826 215.983C321.651 215.568 321.394 215.193 321.071 214.881C320.749 214.57 320.368 214.328 319.951 214.171C319.534 214.014 319.09 213.945 318.646 213.969H318.629Z" fill="#724FFF"/>
<path opacity="0.5" d="M318.629 213.969H310.728V220.629H318.646C319.09 220.652 319.534 220.583 319.951 220.426C320.368 220.269 320.749 220.027 321.071 219.716C321.394 219.404 321.651 219.029 321.826 218.614C322.001 218.198 322.092 217.751 322.092 217.299C322.092 216.846 322.001 216.399 321.826 215.983C321.651 215.568 321.394 215.193 321.071 214.881C320.749 214.57 320.368 214.328 319.951 214.171C319.534 214.014 319.09 213.945 318.646 213.969H318.629Z" fill="white"/>
<path d="M315.47 213.968H287.796C286.051 213.968 284.637 215.406 284.637 217.181V217.424C284.637 219.199 286.051 220.637 287.796 220.637H315.47C317.215 220.637 318.629 219.199 318.629 217.424V217.181C318.629 215.406 317.215 213.968 315.47 213.968Z" fill="#724FFF"/>
<path opacity="0.3" d="M315.47 213.968H287.796C286.051 213.968 284.637 215.406 284.637 217.181V217.424C284.637 219.199 286.051 220.637 287.796 220.637H315.47C317.215 220.637 318.629 219.199 318.629 217.424V217.181C318.629 215.406 317.215 213.968 315.47 213.968Z" fill="white"/>
<path d="M366.522 246.18H328.593L332.821 200.239C333.011 198.185 333.947 196.277 335.446 194.888C336.945 193.498 338.899 192.727 340.927 192.725H366.727C367.86 192.727 368.981 192.968 370.017 193.434C371.053 193.9 371.982 194.581 372.745 195.433C373.508 196.285 374.087 197.29 374.447 198.383C374.807 199.475 374.938 200.632 374.834 201.78L371.144 241.949C371.024 243.111 370.485 244.186 369.631 244.967C368.778 245.748 367.67 246.18 366.522 246.18Z" fill="#724FFF"/>
<path opacity="0.5" d="M366.522 246.18H328.593L332.821 200.239C333.011 198.185 333.947 196.277 335.446 194.888C336.945 193.498 338.899 192.727 340.927 192.725H366.727C367.86 192.727 368.981 192.968 370.017 193.434C371.053 193.9 371.982 194.581 372.745 195.433C373.508 196.285 374.087 197.29 374.447 198.383C374.807 199.475 374.938 200.632 374.834 201.78L371.144 241.949C371.024 243.111 370.485 244.186 369.631 244.967C368.778 245.748 367.67 246.18 366.522 246.18Z" fill="white"/>
<path d="M277.918 305.652H241.033C240.297 305.653 239.568 305.506 238.888 305.221C238.208 304.935 237.589 304.516 237.069 303.987C236.548 303.458 236.135 302.83 235.853 302.139C235.571 301.447 235.426 300.706 235.426 299.958V213.698C235.426 212.95 235.571 212.209 235.853 211.518C236.135 210.826 236.548 210.198 237.069 209.669C237.589 209.14 238.208 208.721 238.888 208.436C239.568 208.15 240.297 208.004 241.033 208.005H277.918C278.315 208.005 278.696 208.165 278.977 208.451C279.258 208.737 279.416 209.124 279.416 209.528C279.416 209.932 279.258 210.32 278.977 210.606C278.696 210.891 278.315 211.052 277.918 211.052H241.033C240.692 211.046 240.353 211.109 240.037 211.238C239.72 211.367 239.432 211.558 239.189 211.801C238.946 212.044 238.753 212.334 238.621 212.654C238.49 212.974 238.422 213.317 238.422 213.664V299.923C238.422 300.27 238.49 300.613 238.621 300.933C238.753 301.252 238.946 301.542 239.189 301.785C239.432 302.028 239.72 302.22 240.037 302.349C240.353 302.477 240.692 302.541 241.033 302.535H277.918C278.315 302.535 278.696 302.695 278.977 302.981C279.258 303.267 279.416 303.654 279.416 304.058C279.425 304.264 279.393 304.47 279.322 304.663C279.251 304.856 279.142 305.032 279.002 305.181C278.862 305.33 278.694 305.448 278.507 305.529C278.321 305.61 278.12 305.652 277.918 305.652Z" fill="#263238"/>
<g opacity="0.5">
<path opacity="0.5" d="M277.918 305.652H241.033C240.297 305.653 239.568 305.506 238.888 305.221C238.208 304.935 237.589 304.516 237.069 303.987C236.548 303.458 236.135 302.83 235.853 302.139C235.571 301.447 235.426 300.706 235.426 299.958V213.698C235.426 212.95 235.571 212.209 235.853 211.518C236.135 210.826 236.548 210.198 237.069 209.669C237.589 209.14 238.208 208.721 238.888 208.436C239.568 208.15 240.297 208.004 241.033 208.005H277.918C278.315 208.005 278.696 208.165 278.977 208.451C279.258 208.737 279.416 209.124 279.416 209.528C279.416 209.932 279.258 210.32 278.977 210.606C278.696 210.891 278.315 211.052 277.918 211.052H241.033C240.692 211.046 240.353 211.109 240.037 211.238C239.72 211.367 239.432 211.558 239.189 211.801C238.946 212.044 238.753 212.334 238.621 212.654C238.49 212.974 238.422 213.317 238.422 213.664V299.923C238.422 300.27 238.49 300.613 238.621 300.933C238.753 301.252 238.946 301.542 239.189 301.785C239.432 302.028 239.72 302.22 240.037 302.349C240.353 302.477 240.692 302.541 241.033 302.535H277.918C278.315 302.535 278.696 302.695 278.977 302.981C279.258 303.267 279.416 303.654 279.416 304.058C279.425 304.264 279.393 304.47 279.322 304.663C279.251 304.856 279.142 305.032 279.002 305.181C278.862 305.33 278.694 305.448 278.507 305.529C278.321 305.61 278.12 305.652 277.918 305.652Z" fill="white"/>
</g>
<path d="M253.539 162.62L250.971 160.879C250.905 160.837 250.851 160.778 250.814 160.709C250.777 160.64 250.757 160.562 250.757 160.483C250.757 160.404 250.777 160.326 250.814 160.257C250.851 160.188 250.905 160.129 250.971 160.087L253.539 158.346C253.633 158.283 253.748 158.26 253.859 158.283C253.969 158.306 254.067 158.372 254.129 158.468C254.189 158.563 254.209 158.678 254.187 158.788C254.164 158.899 254.101 158.996 254.009 159.06L251.878 160.496L254.009 161.933C254.101 161.996 254.164 162.094 254.187 162.204C254.209 162.314 254.189 162.429 254.129 162.525C254.061 162.614 253.962 162.674 253.853 162.692C253.743 162.709 253.631 162.684 253.539 162.62Z" fill="white"/>
<path d="M259.223 162.498C259.171 162.403 259.158 162.291 259.185 162.186C259.212 162.081 259.278 161.99 259.368 161.932L261.5 160.496L259.368 159.033C259.276 158.97 259.213 158.872 259.192 158.761C259.171 158.65 259.195 158.535 259.257 158.441C259.287 158.394 259.326 158.354 259.372 158.322C259.418 158.291 259.469 158.269 259.523 158.257C259.577 158.246 259.633 158.246 259.687 158.256C259.741 158.267 259.793 158.289 259.839 158.319L262.407 160.061C262.472 160.103 262.526 160.162 262.563 160.231C262.601 160.3 262.62 160.378 262.62 160.457C262.62 160.536 262.601 160.613 262.563 160.683C262.526 160.752 262.472 160.81 262.407 160.853L259.839 162.594C259.793 162.631 259.74 162.657 259.684 162.672C259.627 162.688 259.568 162.691 259.51 162.682C259.453 162.673 259.397 162.652 259.348 162.62C259.298 162.589 259.256 162.547 259.223 162.498Z" fill="white"/>
<path d="M255.704 163.674C255.651 163.657 255.602 163.629 255.559 163.593C255.517 163.557 255.482 163.512 255.456 163.462C255.431 163.412 255.415 163.357 255.411 163.301C255.406 163.244 255.413 163.188 255.43 163.134L257.202 157.44C257.218 157.386 257.244 157.337 257.279 157.293C257.313 157.25 257.357 157.214 257.405 157.188C257.454 157.162 257.507 157.147 257.562 157.142C257.617 157.137 257.672 157.144 257.724 157.161C257.777 157.177 257.826 157.204 257.869 157.239C257.911 157.275 257.946 157.319 257.972 157.368C257.997 157.418 258.013 157.472 258.017 157.528C258.022 157.583 258.015 157.639 257.998 157.693L256.235 163.395C256.218 163.449 256.191 163.499 256.156 163.542C256.12 163.586 256.076 163.621 256.027 163.647C255.977 163.673 255.923 163.689 255.868 163.693C255.813 163.698 255.757 163.691 255.704 163.674Z" fill="white"/>
<path d="M270.239 168.027H251.176C251.118 168.027 251.06 168.015 251.007 167.992C250.953 167.969 250.905 167.936 250.864 167.894C250.824 167.851 250.792 167.801 250.77 167.747C250.749 167.692 250.738 167.633 250.739 167.574C250.738 167.515 250.749 167.456 250.77 167.401C250.792 167.346 250.824 167.296 250.864 167.254C250.905 167.212 250.953 167.179 251.007 167.156C251.06 167.133 251.118 167.121 251.176 167.121H270.239C270.357 167.121 270.47 167.169 270.554 167.254C270.637 167.339 270.684 167.454 270.684 167.574C270.684 167.633 270.673 167.692 270.65 167.747C270.628 167.802 270.595 167.852 270.554 167.894C270.513 167.936 270.463 167.969 270.409 167.992C270.355 168.015 270.298 168.027 270.239 168.027Z" fill="white"/>
<path d="M292.135 168.026H273.064C273.005 168.026 272.947 168.015 272.893 167.992C272.839 167.969 272.79 167.936 272.749 167.894C272.708 167.852 272.675 167.802 272.653 167.747C272.63 167.692 272.619 167.633 272.619 167.574C272.627 167.46 272.678 167.353 272.761 167.276C272.843 167.198 272.951 167.156 273.064 167.156H292.118C292.236 167.156 292.35 167.204 292.433 167.288C292.517 167.373 292.563 167.489 292.563 167.609C292.555 167.72 292.507 167.824 292.428 167.901C292.349 167.978 292.245 168.023 292.135 168.026Z" fill="white"/>
<path d="M262.073 172.014H251.176C251.118 172.014 251.06 172.002 251.007 171.979C250.953 171.957 250.905 171.923 250.864 171.881C250.824 171.839 250.792 171.789 250.77 171.734C250.749 171.679 250.738 171.62 250.739 171.561C250.739 171.444 250.785 171.331 250.867 171.247C250.949 171.164 251.06 171.117 251.176 171.117H262.073C262.189 171.117 262.301 171.164 262.385 171.247C262.468 171.33 262.516 171.443 262.518 171.561C262.518 171.681 262.471 171.797 262.388 171.881C262.304 171.966 262.191 172.014 262.073 172.014Z" fill="white"/>
<path d="M282.754 172.014H264.906C264.848 172.014 264.79 172.002 264.737 171.979C264.683 171.957 264.635 171.923 264.594 171.881C264.554 171.839 264.522 171.789 264.5 171.734C264.479 171.679 264.468 171.62 264.469 171.561C264.469 171.444 264.515 171.331 264.597 171.247C264.679 171.164 264.79 171.117 264.906 171.117H282.754C282.869 171.117 282.98 171.164 283.062 171.247C283.144 171.331 283.19 171.444 283.19 171.561C283.191 171.62 283.181 171.679 283.159 171.734C283.138 171.789 283.106 171.839 283.065 171.881C283.025 171.923 282.976 171.957 282.923 171.979C282.869 172.002 282.812 172.014 282.754 172.014Z" fill="white"/>
<path d="M280.212 176.01H251.176C251.059 176.008 250.948 175.959 250.867 175.874C250.785 175.789 250.739 175.676 250.739 175.557C250.738 175.498 250.749 175.439 250.77 175.384C250.792 175.33 250.824 175.28 250.864 175.237C250.905 175.195 250.953 175.162 251.007 175.139C251.06 175.116 251.118 175.104 251.176 175.104H280.212C280.33 175.104 280.443 175.152 280.526 175.237C280.61 175.322 280.657 175.437 280.657 175.557C280.657 175.677 280.61 175.792 280.526 175.877C280.443 175.962 280.33 176.01 280.212 176.01Z" fill="white"/>
<path d="M289.114 176.01H283.054C282.935 176.01 282.822 175.962 282.739 175.877C282.655 175.792 282.608 175.677 282.608 175.557C282.608 175.437 282.655 175.322 282.739 175.237C282.822 175.152 282.935 175.104 283.054 175.104H289.114C289.232 175.104 289.345 175.152 289.429 175.237C289.512 175.322 289.559 175.437 289.559 175.557C289.559 175.677 289.512 175.792 289.429 175.877C289.345 175.962 289.232 176.01 289.114 176.01Z" fill="white"/>
<path d="M264.735 179.997H251.176C251.118 179.997 251.06 179.986 251.007 179.963C250.953 179.94 250.905 179.906 250.864 179.864C250.824 179.822 250.792 179.772 250.77 179.717C250.749 179.662 250.738 179.604 250.739 179.545C250.738 179.486 250.749 179.427 250.77 179.372C250.792 179.317 250.824 179.267 250.864 179.225C250.905 179.183 250.953 179.149 251.007 179.127C251.06 179.104 251.118 179.092 251.176 179.092H264.735C264.853 179.092 264.966 179.14 265.05 179.225C265.133 179.309 265.18 179.425 265.18 179.545C265.18 179.665 265.133 179.78 265.05 179.865C264.966 179.95 264.853 179.997 264.735 179.997Z" fill="white"/>
<path d="M284.449 179.997H267.577C267.459 179.997 267.346 179.95 267.262 179.865C267.179 179.78 267.132 179.665 267.132 179.545C267.132 179.425 267.179 179.309 267.262 179.225C267.346 179.14 267.459 179.092 267.577 179.092H284.449C284.567 179.092 284.68 179.14 284.763 179.225C284.847 179.309 284.894 179.425 284.894 179.545C284.894 179.665 284.847 179.78 284.763 179.865C284.68 179.95 284.567 179.997 284.449 179.997Z" fill="white"/>
<path d="M270.239 183.985H251.176C251.118 183.985 251.06 183.973 251.007 183.95C250.953 183.927 250.905 183.894 250.864 183.852C250.824 183.81 250.792 183.76 250.77 183.705C250.749 183.65 250.738 183.591 250.739 183.532C250.739 183.414 250.785 183.301 250.867 183.218C250.949 183.135 251.06 183.088 251.176 183.088H270.239C270.297 183.087 270.355 183.098 270.409 183.119C270.463 183.141 270.512 183.174 270.553 183.215C270.595 183.256 270.628 183.306 270.65 183.36C270.673 183.415 270.684 183.473 270.684 183.532C270.684 183.652 270.637 183.767 270.554 183.852C270.47 183.937 270.357 183.985 270.239 183.985Z" fill="white"/>
<path d="M286.529 183.985H273.064C272.946 183.985 272.832 183.937 272.749 183.852C272.666 183.767 272.619 183.652 272.619 183.532C272.619 183.473 272.63 183.415 272.653 183.36C272.675 183.306 272.708 183.256 272.75 183.215C272.791 183.174 272.84 183.141 272.894 183.119C272.948 183.098 273.006 183.087 273.064 183.088H286.512C286.627 183.088 286.738 183.135 286.82 183.218C286.902 183.301 286.948 183.414 286.948 183.532C286.95 183.648 286.908 183.761 286.829 183.846C286.751 183.93 286.643 183.98 286.529 183.985Z" fill="white"/>
<path d="M121.098 106.057C121.449 110.157 120.576 117.584 117.537 119.987C122.494 121.806 127.75 124.94 131.105 129.076C134.435 124.148 130.651 121.336 130.651 121.336C126.371 119.786 126.825 116.487 127.929 113.448L121.098 106.057Z" fill="#B97964"/>
<path d="M137.303 102.523C137.251 103.036 137.491 103.48 137.825 103.515C138.159 103.55 138.458 103.149 138.51 102.645C138.561 102.14 138.321 101.687 137.988 101.652C137.654 101.617 137.363 102.009 137.303 102.523Z" fill="#263238"/>
<path d="M137.859 101.661L139.1 101.417C139.1 101.417 138.39 102.348 137.859 101.661Z" fill="#263238"/>
<path d="M137.474 103.071C137.823 104.296 138.333 105.467 138.989 106.554C138.711 106.717 138.402 106.817 138.083 106.847C137.764 106.877 137.442 106.836 137.14 106.728L137.474 103.071Z" fill="#A24E3F"/>
<path d="M138.741 99.8146C138.82 99.8018 138.892 99.7619 138.946 99.7014C138.999 99.6434 139.029 99.5672 139.029 99.4881C139.029 99.409 138.999 99.3328 138.946 99.2748C138.594 98.948 138.17 98.7118 137.71 98.586C137.25 98.4603 136.767 98.4487 136.301 98.5522C136.236 98.5982 136.189 98.6677 136.172 98.7468C136.155 98.8258 136.167 98.9087 136.207 98.9788C136.233 99.0235 136.271 99.0601 136.316 99.0847C136.362 99.1092 136.413 99.1208 136.464 99.1181C136.834 99.0461 137.215 99.063 137.578 99.1672C137.941 99.2715 138.274 99.4604 138.552 99.7188C138.602 99.7722 138.669 99.8061 138.741 99.8146Z" fill="#263238"/>
<path d="M120.697 99.2487C120.5 105.613 120.286 108.32 123.076 111.872C127.279 117.209 134.889 116.043 136.926 109.844C138.758 104.263 138.775 94.7564 133.014 91.6745C127.254 88.5925 120.876 92.8672 120.697 99.2487Z" fill="#B97964"/>
<path d="M120.97 111.272C114.816 110.201 116.579 106.257 116.579 106.257C110.519 105.012 115.201 102 115.201 102C110.159 99.7886 115.201 97.8037 115.201 97.8037C110.339 93.7031 117.273 92.284 117.273 92.284C115.561 85.8851 121.553 88.5143 121.553 88.5143C124.805 83.0121 127.613 88.2619 127.613 88.2619C133.314 80.4264 134.701 87.0343 134.701 87.0343C140.53 85.4759 138.296 91.7094 138.296 91.7094C143.089 93.0153 139.323 95.4878 139.323 95.4878C141.172 97.8646 134.487 98.2738 134.487 98.2738C134.487 98.2738 137.671 103.497 134.487 104.934L126.389 111.246C126.389 111.246 122.648 109.696 120.97 111.272Z" fill="#263238"/>
<path d="M127.022 106.135C127.022 106.135 131.302 95.6881 127.955 86.7731L130.78 85.7893C130.78 85.7893 134.469 98.7526 127.022 106.135Z" fill="#724FFF"/>
<path d="M131.294 104.986C131.996 106.484 132.27 107.136 133.28 107.598C133.592 107.78 133.949 107.865 134.308 107.841C134.667 107.818 135.011 107.688 135.298 107.467C135.585 107.246 135.801 106.944 135.92 106.599C136.039 106.254 136.056 105.881 135.968 105.526C135.702 104.028 134.572 101.826 133.006 101.782C132.64 101.784 132.28 101.886 131.966 102.077C131.652 102.268 131.393 102.542 131.219 102.869C131.044 103.197 130.958 103.566 130.972 103.938C130.985 104.311 131.096 104.672 131.294 104.986Z" fill="#B97964"/>
<path d="M126.868 126.734C126.868 126.734 132.663 131.087 135.017 132.828L151.786 124.784C151.762 123.838 152.019 122.907 152.523 122.112C153.027 121.317 153.754 120.695 154.611 120.326L155.809 119.821L158.334 118.672C158.805 118.458 159.323 118.375 159.835 118.43C160.348 118.485 160.837 118.677 161.253 118.986C161.742 119.348 162.109 119.856 162.304 120.438C162.499 121.021 162.511 121.651 162.341 122.242C161.988 123.466 161.33 124.576 160.43 125.464C159.53 126.352 158.418 126.988 157.205 127.309L154.756 127.961C154.756 127.961 140.384 139.036 135.248 139.297C130.112 139.558 122.588 134.43 122.588 134.43L126.868 126.734Z" fill="#B97964"/>
<path d="M112.932 119.395C117.358 119.395 122.305 122.198 130.052 127.335C128.94 131.038 126.87 134.369 124.06 136.981C124.06 136.981 119.78 135.814 114.096 130.373C107.248 123.783 110.219 119.404 112.932 119.395Z" fill="#263238"/>
<path d="M196.992 132.436H155.048C154.695 132.442 154.345 132.371 154.021 132.229C153.697 132.087 153.406 131.876 153.169 131.611C152.931 131.346 152.751 131.033 152.641 130.692C152.531 130.351 152.494 129.99 152.531 129.633L155.69 92.9107C155.765 92.1515 156.112 91.4467 156.664 90.93C157.216 90.4133 157.936 90.1206 158.686 90.1074H200.63C200.982 90.1015 201.332 90.172 201.656 90.3143C201.979 90.4566 202.27 90.6674 202.507 90.9326C202.744 91.1978 202.923 91.5114 203.032 91.8525C203.141 92.1936 203.177 92.5543 203.138 92.9107L199.979 129.633C199.904 130.391 199.559 131.094 199.008 131.611C198.458 132.127 197.741 132.421 196.992 132.436Z" fill="#724FFF"/>
<path opacity="0.4" d="M196.992 132.436H155.048C154.695 132.442 154.345 132.371 154.021 132.229C153.697 132.087 153.406 131.876 153.169 131.611C152.931 131.346 152.751 131.033 152.641 130.692C152.531 130.351 152.494 129.99 152.531 129.633L155.69 92.9107C155.765 92.1515 156.112 91.4467 156.664 90.93C157.216 90.4133 157.936 90.1206 158.686 90.1074H200.63C200.982 90.1015 201.332 90.172 201.656 90.3143C201.979 90.4566 202.27 90.6674 202.507 90.9326C202.744 91.1978 202.923 91.5114 203.032 91.8525C203.141 92.1936 203.177 92.5543 203.138 92.9107L199.979 129.633C199.904 130.391 199.559 131.094 199.008 131.611C198.458 132.127 197.741 132.421 196.992 132.436Z" fill="white"/>
<path opacity="0.7" d="M197.146 130.695C197.429 130.69 197.701 130.579 197.91 130.383C198.118 130.187 198.248 129.92 198.276 129.633L201.434 92.9111C201.449 92.7761 201.435 92.6395 201.394 92.5103C201.352 92.3812 201.285 92.2624 201.195 92.162C201.105 92.0615 200.995 91.9817 200.872 91.9277C200.75 91.8737 200.618 91.8469 200.484 91.8489H158.54C158.255 91.8538 157.982 91.9645 157.773 92.1602C157.563 92.356 157.431 92.6231 157.402 92.9111L154.251 129.633C154.237 129.768 154.251 129.905 154.292 130.034C154.333 130.163 154.401 130.282 154.491 130.382C154.581 130.483 154.691 130.562 154.813 130.616C154.936 130.67 155.068 130.697 155.202 130.695H197.146Z" fill="white"/>
<path d="M167.999 109.104L154.303 129.267V129.633C154.288 129.768 154.302 129.904 154.343 130.033C154.385 130.163 154.453 130.281 154.542 130.382C154.632 130.482 154.742 130.562 154.865 130.616C154.987 130.67 155.12 130.697 155.253 130.695H179.016L167.999 109.104Z" fill="#724FFF"/>
<path opacity="0.3" d="M167.999 109.104L154.303 129.267V129.633C154.288 129.768 154.302 129.904 154.343 130.033C154.385 130.163 154.453 130.281 154.542 130.382C154.632 130.482 154.742 130.562 154.865 130.616C154.987 130.67 155.12 130.697 155.253 130.695H179.016L167.999 109.104Z" fill="white"/>
<path d="M198.396 128.231L186.917 106.057L169.916 130.695H197.146C197.429 130.69 197.701 130.579 197.91 130.383C198.118 130.187 198.248 129.92 198.276 129.633L198.396 128.231Z" fill="#724FFF"/>
<path d="M182.482 102.139C182.378 103.201 181.894 104.186 181.122 104.908C180.35 105.63 179.345 106.039 178.297 106.057C177.803 106.066 177.313 105.968 176.86 105.77C176.407 105.572 176 105.277 175.667 104.907C175.334 104.536 175.083 104.098 174.93 103.62C174.776 103.143 174.725 102.638 174.778 102.139C174.881 101.077 175.364 100.089 176.136 99.3655C176.908 98.6416 177.914 98.2314 178.964 98.213C179.458 98.2037 179.949 98.3018 180.403 98.5006C180.857 98.6995 181.264 98.9946 181.597 99.3662C181.93 99.7378 182.181 100.177 182.334 100.656C182.487 101.134 182.537 101.64 182.482 102.139Z" fill="#724FFF"/>
<path opacity="0.4" d="M182.482 102.139C182.378 103.201 181.894 104.186 181.122 104.908C180.35 105.63 179.345 106.039 178.297 106.057C177.803 106.066 177.313 105.968 176.86 105.77C176.407 105.572 176 105.277 175.667 104.907C175.334 104.536 175.083 104.098 174.93 103.62C174.776 103.143 174.725 102.638 174.778 102.139C174.881 101.077 175.364 100.089 176.136 99.3655C176.908 98.6416 177.914 98.2314 178.964 98.213C179.458 98.2037 179.949 98.3018 180.403 98.5006C180.857 98.6995 181.264 98.9946 181.597 99.3662C181.93 99.7378 182.181 100.177 182.334 100.656C182.487 101.134 182.537 101.64 182.482 102.139Z" fill="white"/>
<path d="M77.811 280.657L73.5481 293.507L80.0794 296.223L85.1897 284.365L77.811 280.657Z" fill="#B97964"/>
<path d="M82.4247 295.901C82.3912 295.88 82.3639 295.851 82.3458 295.815C82.3277 295.78 82.3195 295.74 82.322 295.7C82.3268 295.662 82.3435 295.626 82.3696 295.598C82.3958 295.57 82.43 295.551 82.4675 295.544C82.6045 295.544 85.6861 294.812 86.8331 295.544C87.05 295.679 87.2066 295.894 87.2697 296.144C87.3176 296.284 87.322 296.435 87.2821 296.577C87.2422 296.718 87.1602 296.844 87.0471 296.937C86.6105 297.25 85.5919 297.12 84.6589 296.824C83.8896 296.581 83.1421 296.273 82.4247 295.901ZM83.0753 295.84C84.4192 296.449 86.3195 297.032 86.816 296.649C86.8845 296.597 86.9701 296.51 86.9016 296.24C86.8883 296.161 86.8565 296.087 86.8088 296.023C86.7611 295.96 86.6989 295.909 86.6277 295.875C86.5267 295.81 86.4172 295.76 86.3024 295.727C85.2294 295.556 84.1342 295.594 83.0753 295.84Z" fill="#724FFF"/>
<path d="M82.3305 295.857C82.314 295.828 82.3053 295.795 82.3053 295.762C82.3053 295.728 82.314 295.695 82.3305 295.666C82.3305 295.579 83.1865 293.576 84.3935 293.054C84.5657 292.981 84.7505 292.943 84.937 292.943C85.1236 292.943 85.3084 292.981 85.4806 293.054C85.9514 293.254 86.0284 293.559 85.9856 293.768C85.8829 294.682 83.5717 295.77 82.5616 295.892C82.5497 295.898 82.5365 295.901 82.5231 295.901C82.5097 295.901 82.4966 295.898 82.4846 295.892C82.4581 295.9 82.4301 295.901 82.4031 295.895C82.3762 295.889 82.3512 295.876 82.3305 295.857ZM85.2324 293.394C85.0113 293.311 84.7686 293.311 84.5476 293.394C83.7856 293.875 83.1878 294.583 82.8356 295.422C83.9398 295.152 85.5148 294.229 85.6261 293.681C85.6261 293.629 85.6261 293.489 85.3351 293.367H85.2324V293.394Z" fill="#724FFF"/>
<path d="M81.9795 294.586L73.779 291.974C73.6288 291.927 73.4674 291.934 73.3213 291.992C73.1751 292.051 73.0528 292.158 72.9744 292.296L69.4305 298.617C69.3539 298.75 69.304 298.897 69.2836 299.05C69.2632 299.203 69.2728 299.358 69.3118 299.507C69.3508 299.656 69.4185 299.796 69.5108 299.918C69.6032 300.04 69.7185 300.142 69.85 300.219C69.9199 300.262 69.9946 300.298 70.0725 300.323C73.0428 301.194 75.7221 301.856 79.4029 303.022C83.7514 304.38 82.4845 304.563 87.5692 306.244C90.6336 307.253 92.2772 303.867 90.9932 303.283C85.2494 300.672 85.1895 298.617 83.546 295.718C83.1742 295.162 82.6182 294.76 81.9795 294.586Z" fill="#263238"/>
<path opacity="0.2" d="M75.7646 286.821L82.6126 290.338L85.1892 284.365L77.8105 280.657L75.7646 286.821Z" fill="#263238"/>
<path d="M106.76 161.802C106.76 161.802 97.5585 168.95 99.5273 191.341C99.7156 193.413 100.383 195.581 100.383 197.949C100.383 199.525 99.9553 200.631 99.4502 204.174C98.7141 209.328 97.3616 228.551 95.9321 231.05C94.5026 233.548 93.9205 233.104 89.9401 239.999C85.6601 247.417 80.0961 260.424 75.7904 282.467C78.6653 284.531 81.9492 285.931 85.4118 286.568C85.4118 286.568 108.926 248.853 113.925 234.811C118.402 222.248 123.735 182.157 123.735 182.157L124.163 164.745L106.76 161.802Z" fill="#724FFF"/>
<path opacity="0.1" d="M116.827 191.341H110.167C110.167 191.341 107.976 212.654 115.218 230.431C115.971 227.576 116.733 224.154 117.478 220.454L120.362 201.684C119.951 198.515 119.635 196.095 119.583 195.938C119.438 195.442 116.827 191.341 116.827 191.341Z" fill="black"/>
<path d="M115.732 285.828L115.774 299.488L123.35 298.974L124.514 285.828H115.732Z" fill="#B97964"/>
<path d="M124.223 298.739C124.185 298.734 124.15 298.717 124.122 298.691C124.095 298.664 124.076 298.629 124.069 298.591C124.06 298.553 124.064 298.513 124.079 298.477C124.095 298.44 124.121 298.41 124.155 298.391C124.274 298.321 126.954 296.65 128.28 296.946C128.528 297.002 128.745 297.151 128.888 297.364C128.977 297.481 129.028 297.623 129.036 297.77C129.043 297.918 129.007 298.065 128.931 298.191C128.272 298.693 127.458 298.937 126.637 298.878C125.83 298.906 125.022 298.859 124.223 298.739ZM124.822 298.469C126.286 298.6 128.246 298.513 128.614 297.982C128.666 297.912 128.708 297.799 128.563 297.564C128.523 297.495 128.469 297.437 128.403 297.393C128.338 297.349 128.264 297.321 128.186 297.311C128.07 297.294 127.952 297.294 127.835 297.311C126.766 297.494 125.743 297.887 124.822 298.469Z" fill="#724FFF"/>
<path d="M124.12 298.739C124.092 298.72 124.068 298.694 124.052 298.664C124.035 298.633 124.026 298.599 124.026 298.565C124.026 298.469 124.172 296.301 125.139 295.43C125.277 295.302 125.439 295.203 125.616 295.14C125.792 295.077 125.979 295.052 126.166 295.065C126.68 295.065 126.851 295.361 126.877 295.578C127.073 296.449 125.25 298.269 124.309 298.73C124.284 298.739 124.257 298.739 124.232 298.73C124.197 298.746 124.157 298.749 124.12 298.739ZM126.055 295.43C125.819 295.435 125.594 295.528 125.421 295.692C124.857 296.401 124.522 297.271 124.463 298.181C125.413 297.563 126.603 296.162 126.534 295.622C126.534 295.57 126.491 295.43 126.158 295.413H126.055V295.43Z" fill="#724FFF"/>
<path d="M123.384 297.65L114.824 297.964C114.668 297.971 114.519 298.031 114.401 298.136C114.283 298.24 114.203 298.382 114.174 298.538L112.873 305.695C112.815 305.998 112.878 306.313 113.048 306.569C113.218 306.825 113.482 307.003 113.78 307.062C113.863 307.07 113.946 307.07 114.028 307.062C117.118 306.887 119.858 306.618 123.71 306.487C128.255 306.322 127.134 306.914 132.467 306.8C135.694 306.722 136.147 302.978 134.778 302.848C128.503 302.273 127.784 300.375 125.293 298.19C124.745 297.776 124.064 297.583 123.384 297.65Z" fill="#263238"/>
<path opacity="0.2" d="M115.757 292.897L123.906 292.723L124.514 285.828H115.732L115.757 292.897Z" fill="#263238"/>
<path d="M111.888 159.321C111.888 159.321 102.703 171.692 109.509 195.886L117.213 231.224C117.213 231.224 109.902 247.295 113.789 289.694C117.555 290.232 121.383 290.143 125.122 289.432C125.122 289.432 133.682 244.657 134.975 229.535C136.404 212.872 135.548 162.646 135.548 162.646L111.888 159.321Z" fill="#724FFF"/>
<path d="M117.435 119.221C117.435 119.221 116.014 113.039 125.139 115.738C134.264 118.437 133.493 123.722 133.493 123.722L117.435 119.221Z" fill="#263238"/>
<path opacity="0.4" d="M117.435 119.221C117.435 119.221 116.014 113.039 125.139 115.738C134.264 118.437 133.493 123.722 133.493 123.722L117.435 119.221Z" fill="black"/>
<path d="M140.068 134.683C140.068 136.85 139.212 139.985 138.356 143.493C137.962 145.156 137.603 146.889 137.363 148.647C136.07 158.224 135.651 168.314 135.651 168.314C130.614 169.432 125.404 169.482 120.347 168.462C115.289 167.442 110.493 165.373 106.256 162.385C106.256 162.385 109.843 159.295 109.106 137.886C108.773 128.24 105.349 116.774 121.022 118.576C134.256 120.1 138.707 124.279 139.777 130.817C139.777 130.896 139.777 130.983 139.777 131.07L139.854 131.679C139.983 132.675 140.055 133.678 140.068 134.683Z" fill="#263238"/>
<path opacity="0.4" d="M140.068 134.683C140.068 136.851 139.212 139.985 138.356 143.493C134.778 139.14 131.191 130.913 131.191 130.913L134.144 126.49L139.349 128.954C139.528 129.566 139.671 130.188 139.777 130.817C139.777 130.896 139.777 130.983 139.777 131.07L139.854 131.679C139.983 132.675 140.055 133.678 140.068 134.683Z" fill="black"/>
<path d="M145.52 130.904C145.52 130.904 150.656 136.058 152.685 138.13L170.438 132.715C170.555 131.781 170.943 130.904 171.553 130.197C172.163 129.49 172.967 128.984 173.862 128.745L175.112 128.414L177.783 127.665C178.28 127.528 178.804 127.526 179.303 127.659C179.801 127.792 180.257 128.055 180.625 128.423C181.055 128.854 181.344 129.41 181.451 130.015C181.558 130.62 181.479 131.244 181.224 131.801C180.695 132.958 179.882 133.956 178.862 134.699C177.842 135.442 176.65 135.904 175.403 136.04L172.886 136.31C172.886 136.31 157.042 145.112 151.94 144.625C146.838 144.137 140.136 137.895 140.136 137.895L145.52 130.904Z" fill="#B97964"/>
<path d="M132.766 121.528C137.149 122.181 141.625 125.724 148.576 131.975C146.93 135.472 144.39 138.454 141.223 140.612C141.223 140.612 137.174 138.809 132.346 132.567C126.508 125.01 130.112 121.127 132.766 121.528Z" fill="#263238"/>
</svg>
